SplineFontDB: 1.0
FontName: Norasi-Italic
FullName: Norasi Italic
FamilyName: Norasi
Weight: Book
Copyright: Copyright © 1999, The National Font Project (v.beta ). Yannis Haralambous, Virach Sornlertlamvanich and Anutara Tantraporn. All rights reserved.
Version: 1.0; 1999; initial release
ItalicAngle: -12
UnderlinePosition: -100
UnderlineWidth: 50
Ascent: 1638
Descent: 410
NeedsXUIDChange: 1
FSType: 0
PfmFamily: 17
TTFWeight: 400
TTFWidth: 5
Panose: 2 0 5 6 0 0 0 2 0 4
LineGap: 20
VLineGap: 0
LangName: 1033 "" "" "" "TheOmegaProject(v.beta1).YannisHaralambous,VirachSornlertlamvanichandAnutaraTantraporn: Omega3: 1999" "" "Version 1.0; 1999; initial release" "" "Norasi Italic is a trademark of the The National Font Project (v.beta ). Yannis Haralambous, Virach Sornlertlamvanich and Anutara Tantraporn." "" "Yannis Haralambous, Virach Sornlertlamvanich and Anutara Tantraporn" "This font was developed under National Font Project at NECTEC as to be a free licensed font for Thai users and developers." 
Encoding: compacted
OldEncoding: iso8859_1
DisplaySize: -72
AntiAlias: 1
WinInfo: 208 8 2
BeginChars: 224 223
StartChar: exclam
Encoding: 2 33
OldEncoding: 33
Width: 522
VWidth: 1000
Flags: HW
Fore
514 831 m 1
 502 780 l 1
 326 246 l 1
 307 246 l 1
 315 319 323 385 329 441 c 0
 335 498 340 549 344 594 c 0
 348 639 352 680 355 718 c 0
 359 755 362 792 367 827 c 1
 383 905 415 944 463 944 c 0
 513 944 531 909 516 840 c 2
 514 831 l 1
354 57 m 0
 350 38 339 23 321 10 c 0
 302 -2 283 -8 262 -8 c 0
 212 -8 192 14 203 57 c 0
 212 102 242 128 293 133 c 1
 342 133 362 108 354 57 c 0
EndSplineSet
EndChar
StartChar: quotedbl
Encoding: 3 34
OldEncoding: 34
Width: 645
VWidth: 1000
Flags: HW
Fore
688 885 m 0
 687 874 670 828 639 748 c 0
 624 708 611 675 601 650 c 0
 591 625 584 606 580 594 c 1
 551 594 l 1
 554 654 556 702 557 738 c 0
 558 774 559 803 560 823 c 0
 561 844 561 858 562 866 c 0
 563 874 564 881 565 885 c 0
 573 924 598 944 639 944 c 0
 677 944 694 924 688 885 c 0
446 885 m 0
 445 874 429 828 397 748 c 0
 382 708 370 675 359 650 c 0
 349 625 342 606 338 594 c 1
 309 594 l 1
 312 654 314 702 315 738 c 0
 317 774 318 803 318 823 c 0
 319 844 320 858 321 866 c 0
 321 874 322 881 324 885 c 0
 332 924 356 944 397 944 c 0
 436 944 452 924 446 885 c 0
EndSplineSet
EndChar
StartChar: numbersign
Encoding: 4 35
OldEncoding: 35
Width: 774
VWidth: 1000
Flags: HW
Fore
840 567 m 1
 694 567 l 1
 627 381 l 1
 766 381 l 1
 748 303 l 1
 594 303 l 1
 489 0 l 1
 408 0 l 1
 514 303 l 1
 326 303 l 1
 217 0 l 1
 135 0 l 1
 244 303 l 1
 94 303 l 1
 113 381 l 1
 276 381 l 1
 344 567 l 1
 190 567 l 1
 207 645 l 1
 373 645 l 1
 475 926 l 1
 555 926 l 1
 455 645 l 1
 641 645 l 1
 741 926 l 1
 821 926 l 1
 721 645 l 1
 856 645 l 1
 840 567 l 1
612 567 m 1
 426 567 l 1
 356 381 l 1
 545 381 l 1
 612 567 l 1
EndSplineSet
EndChar
StartChar: dollar
Encoding: 5 36
OldEncoding: 36
Width: 790
VWidth: 1000
Flags: HW
Fore
733 250 m 0
 702 109 592 26 403 0 c 1
 377 -121 l 1
 328 -121 l 1
 354 0 l 1
 257 0 174 25 104 74 c 1
 143 260 l 1
 164 260 l 1
 167 114 233 41 362 41 c 1
 449 444 l 1
 413 468 383 489 357 509 c 0
 332 529 312 547 297 563 c 0
 256 615 242 672 254 733 c 0
 268 800 306 854 369 895 c 0
 423 933 486 952 557 952 c 1
 575 1042 l 1
 625 1042 l 1
 606 952 l 1
 719 932 l 2
 761 924 795 905 819 877 c 1
 784 717 l 1
 764 717 l 1
 768 836 713 901 598 913 c 1
 522 561 l 1
 639 479 l 1
 700 422 l 1
 737 375 748 318 733 250 c 0
477 584 m 1
 547 913 l 1
 446 897 386 847 367 762 c 0
 360 728 367 696 387 666 c 1
 477 584 l 1
614 217 m 0
 623 262 614 302 590 336 c 0
 576 354 544 382 494 420 c 1
 412 41 l 1
 524 59 591 117 614 217 c 0
EndSplineSet
EndChar
StartChar: percent
Encoding: 6 37
OldEncoding: 37
Width: 1200
VWidth: 1000
Flags: HW
Fore
1120 969 m 1
 358 -14 l 1
 291 -14 l 1
 979 872 l 1
 922 848 868 836 817 836 c 0
 773 836 743 840 725 850 c 1
 723 786 l 1
 708 722 681 662 641 604 c 0
 636 597 629 589 621 579 c 0
 612 568 603 557 592 545 c 0
 513 457 431 414 348 414 c 0
 296 414 259 433 238 471 c 0
 216 509 210 555 221 608 c 0
 239 690 286 767 362 840 c 0
 443 912 522 948 600 948 c 0
 631 948 665 935 700 909 c 1
 744 885 784 872 819 872 c 0
 894 872 976 905 1063 969 c 1
 1120 969 l 1
1190 375 m 0
 1172 287 1129 205 1061 129 c 0
 987 43 908 0 823 0 c 0
 766 0 726 18 705 55 c 0
 683 92 677 139 688 197 c 0
 707 277 755 353 831 424 c 0
 911 496 989 532 1067 532 c 0
 1172 532 1213 480 1190 375 c 0
686 793 m 0
 690 806 691 829 688 860 c 1
 664 867 641 877 621 891 c 2
 606 903 l 1
 600 905 l 2
 550 905 492 861 426 772 c 0
 369 693 334 625 322 569 c 0
 308 498 330 463 387 463 c 0
 451 463 516 503 582 584 c 0
 638 653 672 723 686 793 c 0
1151 365 m 0
 1158 397 1155 426 1142 450 c 0
 1129 473 1107 485 1075 485 c 0
 1015 485 952 438 885 342 c 0
 830 266 798 202 788 152 c 0
 772 79 795 43 856 43 c 0
 919 43 982 83 1044 162 c 0
 1100 229 1136 296 1151 365 c 0
EndSplineSet
EndChar
StartChar: ampersand
Encoding: 7 38
OldEncoding: 38
Width: 1171
VWidth: 1000
Flags: HW
Fore
1104 139 m 1
 1098 127 1090 114 1078 100 c 0
 1067 87 1053 72 1038 57 c 0
 982 10 923 -14 860 -14 c 0
 788 -14 717 27 647 109 c 1
 575 57 l 1
 520 27 l 1
 451 -1 382 -14 313 -14 c 0
 241 -14 188 3 155 39 c 0
 121 74 112 128 127 201 c 0
 149 310 242 408 408 496 c 1
 471 526 l 1
 459 641 l 1
 461 725 l 1
 468 755 479 783 496 810 c 0
 512 837 532 860 556 880 c 0
 580 899 606 915 635 927 c 0
 664 938 693 944 723 944 c 0
 775 944 816 929 848 899 c 0
 879 869 890 828 879 776 c 0
 872 746 860 719 843 693 c 0
 826 668 801 644 770 621 c 0
 755 610 734 597 708 584 c 0
 681 570 649 554 610 537 c 1
 625 483 643 433 665 385 c 0
 686 337 709 292 735 250 c 1
 842 359 901 443 913 502 c 0
 922 544 896 565 838 565 c 1
 844 596 l 1
 1149 596 l 1
 1143 565 l 1
 1111 561 1086 555 1067 547 c 0
 1047 539 1021 517 991 483 c 1
 944 420 l 1
 914 383 884 347 853 311 c 0
 822 276 791 242 758 209 c 1
 769 184 783 162 801 143 c 0
 819 124 842 109 870 96 c 0
 885 87 908 82 938 82 c 0
 971 82 1000 89 1026 102 c 0
 1033 105 1041 111 1050 120 c 0
 1058 129 1070 141 1085 156 c 1
 1104 139 l 1
805 782 m 0
 812 815 808 843 793 866 c 0
 778 890 754 901 721 901 c 0
 647 901 602 860 586 778 c 0
 573 721 578 655 598 582 c 1
 720 639 788 706 805 782 c 0
623 145 m 1
 572 226 524 337 479 479 c 1
 406 436 l 1
 356 397 l 1
 307 350 277 301 266 252 c 0
 261 226 260 201 264 177 c 0
 268 153 276 132 289 114 c 0
 301 95 317 81 337 70 c 0
 357 59 380 53 406 53 c 0
 464 53 537 84 623 145 c 1
EndSplineSet
EndChar
StartChar: quotesingle
Encoding: 8 39
OldEncoding: 39
Width: 333
VWidth: 1000
Flags: HW
Fore
444 831 m 0
 436 796 410 754 365 707 c 0
 324 667 282 638 240 621 c 1
 233 647 l 1
 324 699 373 750 383 801 c 0
 386 813 380 819 367 819 c 2
 350 817 l 1
 332 815 l 2
 272 815 247 839 258 887 c 0
 269 935 303 962 360 969 c 1
 385 969 406 961 424 944 c 0
 449 918 455 881 444 831 c 0
EndSplineSet
EndChar
StartChar: parenleft
Encoding: 9 40
OldEncoding: 40
Width: 526
VWidth: 1000
Flags: HW
Fore
432 -227 m 1
 410 -250 l 1
 359 -220 316 -180 282 -129 c 0
 247 -79 218 -17 195 55 c 0
 190 70 187 84 183 97 c 0
 180 110 177 124 176 137 c 0
 168 204 174 283 195 375 c 0
 248 626 408 824 674 969 c 1
 682 946 l 1
 595 887 528 829 483 772 c 0
 442 717 408 658 380 594 c 0
 352 530 332 460 319 385 c 1
 289 215 l 1
 282 174 281 130 285 82 c 0
 290 -53 339 -156 432 -227 c 1
EndSplineSet
EndChar
StartChar: parenright
Encoding: 10 41
OldEncoding: 41
Width: 526
VWidth: 1000
Flags: HW
Fore
524 340 m 0
 498 216 444 103 360 1 c 0
 277 -101 173 -184 47 -250 c 1
 37 -227 l 1
 75 -201 109 -176 138 -151 c 0
 168 -125 194 -99 218 -73 c 0
 242 -46 263 -17 282 13 c 0
 300 44 317 78 334 115 c 0
 361 176 383 248 399 330 c 0
 414 395 425 453 430 504 c 0
 436 554 438 597 436 633 c 0
 425 772 375 877 287 946 c 1
 311 969 l 1
 406 910 472 821 510 700 c 0
 547 586 552 466 524 340 c 0
EndSplineSet
EndChar
StartChar: asterisk
Encoding: 11 42
OldEncoding: 42
Width: 790
VWidth: 1000
Flags: HW
Fore
780 553 m 0
 775 519 754 502 719 502 c 0
 701 502 678 523 649 565 c 0
 633 588 617 607 603 621 c 0
 589 634 576 644 565 649 c 2
 557 653 l 1
 555 643 l 2
 548 617 544 593 543 569 c 0
 541 546 542 524 545 504 c 2
 553 440 l 1
 545 405 521 384 481 379 c 1
 449 379 436 398 444 436 c 1
 479 514 l 1
 493 541 503 564 509 581 c 0
 515 598 520 610 522 616 c 1
 528 643 l 1
 528 653 l 1
 451 606 l 1
 401 565 l 1
 354 522 l 1
 337 510 318 504 299 504 c 0
 268 504 255 519 260 549 c 0
 267 580 296 602 348 614 c 0
 429 635 487 655 524 676 c 1
 510 686 l 2
 506 692 465 706 387 729 c 0
 332 747 308 770 313 799 c 0
 316 811 323 823 334 834 c 0
 341 840 353 845 371 848 c 0
 393 848 414 832 434 801 c 0
 463 754 498 720 539 696 c 1
 543 715 l 2
 545 728 547 743 548 760 c 0
 549 776 548 795 547 817 c 0
 544 840 543 860 544 876 c 0
 544 891 546 904 549 913 c 0
 557 950 579 969 614 969 c 0
 647 969 659 950 651 913 c 1
 616 836 l 2
 591 781 576 746 573 731 c 2
 565 694 l 1
 578 700 l 2
 612 718 653 750 702 795 c 0
 743 831 773 850 791 850 c 0
 827 850 842 833 834 799 c 0
 827 774 813 756 793 745 c 1
 709 727 l 2
 657 716 612 698 573 674 c 1
 582 666 l 1
 637 637 l 1
 727 614 l 2
 771 603 788 583 780 553 c 0
EndSplineSet
EndChar
StartChar: plus
Encoding: 12 43
OldEncoding: 43
Width: 892
VWidth: 1000
Flags: HW
Fore
881 328 m 1
 555 328 l 1
 485 0 l 1
 414 0 l 1
 483 328 l 1
 158 328 l 1
 172 399 l 1
 498 399 l 1
 567 725 l 1
 639 725 l 1
 569 399 l 1
 895 399 l 1
 881 328 l 1
EndSplineSet
EndChar
StartChar: comma
Encoding: 13 44
OldEncoding: 44
Width: 356
VWidth: 1000
Flags: HW
Fore
285 8 m 0
 282 -7 274 -25 260 -45 c 0
 246 -66 229 -87 207 -111 c 0
 162 -156 119 -185 80 -199 c 1
 74 -170 l 1
 164 -119 214 -69 223 -18 c 0
 226 -6 221 0 207 0 c 2
 190 -2 l 1
 174 -4 l 2
 114 -4 89 18 98 63 c 0
 108 118 141 145 199 145 c 0
 236 145 261 132 275 105 c 0
 290 79 293 46 285 8 c 0
EndSplineSet
EndChar
StartChar: hyphen
Encoding: 14 45
OldEncoding: 45
Width: 552
VWidth: 1000
Flags: HW
Fore
553 264 m 1
 109 264 l 1
 123 332 l 1
 567 332 l 1
 553 264 l 1
EndSplineSet
EndChar
StartChar: period
Encoding: 15 46
OldEncoding: 46
Width: 395
VWidth: 1000
Flags: HW
Fore
297 61 m 0
 293 41 281 24 261 9 c 0
 241 -5 221 -12 201 -12 c 0
 180 -12 163 -5 151 9 c 0
 138 24 133 41 137 61 c 0
 143 83 155 102 173 119 c 0
 191 135 212 143 233 143 c 0
 254 143 271 135 285 118 c 0
 298 101 302 82 297 61 c 0
EndSplineSet
EndChar
StartChar: slash
Encoding: 16 47
OldEncoding: 47
Width: 475
VWidth: 1000
Flags: HW
Fore
684 969 m 1
 20 -248 l 1
 -53 -248 l 1
 608 969 l 1
 684 969 l 1
EndSplineSet
EndChar
StartChar: zero
Encoding: 17 48
OldEncoding: 48
Width: 774
VWidth: 1000
Flags: HW
Fore
799 463 m 0
 774 344 732 242 672 158 c 0
 593 42 496 -16 381 -16 c 0
 322 -16 276 -1 242 29 c 0
 208 59 183 97 169 144 c 0
 155 191 148 243 150 299 c 0
 151 355 157 410 168 463 c 0
 179 515 196 569 219 626 c 0
 242 682 271 734 306 781 c 0
 341 828 382 867 428 898 c 0
 474 929 527 944 586 944 c 0
 700 944 772 885 801 766 c 0
 824 683 823 582 799 463 c 0
666 463 m 0
 730 760 700 909 578 909 c 0
 457 909 365 760 301 463 c 0
 237 165 266 16 389 16 c 0
 509 16 601 165 666 463 c 0
EndSplineSet
EndChar
StartChar: one
Encoding: 18 49
OldEncoding: 49
Width: 780
VWidth: 1000
Flags: HW
Fore
600 0 m 1
 215 0 l 1
 219 20 l 1
 267 20 302 28 325 42 c 0
 347 56 363 85 373 129 c 2
 508 762 l 2
 517 806 507 827 475 827 c 0
 470 827 436 818 375 799 c 1
 379 815 l 1
 655 944 l 1
 668 942 l 1
 489 104 l 2
 481 65 489 40 512 29 c 0
 527 23 558 20 604 20 c 1
 600 0 l 1
EndSplineSet
EndChar
StartChar: two
Encoding: 19 50
OldEncoding: 50
Width: 774
VWidth: 1000
Flags: HW
Fore
750 190 m 1
 633 0 l 1
 88 0 l 1
 92 16 l 1
 397 283 l 2
 546 410 633 529 657 641 c 0
 671 707 664 756 636 791 c 0
 608 825 561 842 496 842 c 0
 440 842 391 821 350 780 c 0
 324 756 294 715 258 657 c 1
 231 666 l 1
 263 752 309 820 369 869 c 0
 429 919 502 944 588 944 c 0
 660 944 715 921 753 873 c 0
 790 826 801 766 786 692 c 0
 763 590 680 477 537 352 c 2
 248 104 l 1
 582 104 l 2
 616 104 644 112 666 127 c 0
 685 138 707 161 731 197 c 1
 750 190 l 1
EndSplineSet
EndChar
StartChar: three
Encoding: 20 51
OldEncoding: 51
Width: 776
VWidth: 1000
Flags: HW
Fore
713 301 m 0
 692 197 636 117 543 59 c 0
 458 9 363 -16 258 -16 c 0
 218 -16 190 -12 172 -2 c 1
 131 9 113 29 119 59 c 0
 127 92 148 109 182 109 c 0
 201 109 230 96 268 70 c 0
 311 42 343 29 367 29 c 0
 427 29 478 51 520 96 c 0
 560 134 587 184 602 246 c 0
 609 279 608 308 600 334 c 1
 588 418 507 461 358 461 c 1
 360 479 l 1
 526 528 620 607 643 715 c 0
 653 758 646 794 623 820 c 0
 599 847 565 860 520 860 c 0
 436 860 356 811 283 713 c 1
 262 719 l 1
 340 869 448 944 586 944 c 0
 647 944 695 928 730 896 c 0
 765 864 776 818 764 758 c 0
 748 685 690 620 592 561 c 1
 637 539 668 516 686 492 c 0
 723 445 732 382 713 301 c 0
EndSplineSet
EndChar
StartChar: four
Encoding: 21 52
OldEncoding: 52
Width: 759
VWidth: 1000
Flags: HW
Fore
739 229 m 1
 602 229 l 1
 553 0 l 1
 446 0 l 1
 496 229 l 1
 111 229 l 1
 129 317 l 1
 688 926 l 1
 750 926 l 1
 621 317 l 1
 758 317 l 1
 739 229 l 1
512 317 m 1
 610 782 l 1
 184 317 l 1
 512 317 l 1
EndSplineSet
EndChar
StartChar: five
Encoding: 22 53
OldEncoding: 53
Width: 778
VWidth: 1000
Flags: HW
Fore
874 956 m 1
 795 831 l 2
 789 823 778 819 760 819 c 2
 485 819 l 1
 401 700 l 1
 481 688 545 669 595 644 c 0
 645 619 678 588 694 553 c 1
 725 498 l 1
 735 455 l 1
 739 421 735 373 723 313 c 0
 700 211 644 130 557 70 c 0
 471 12 378 -16 276 -16 c 0
 156 -16 102 10 115 63 c 0
 122 100 144 119 182 119 c 0
 214 119 247 104 283 74 c 0
 318 46 347 33 369 33 c 0
 429 33 483 60 532 115 c 0
 575 162 602 218 614 283 c 0
 636 382 606 459 522 512 c 0
 451 556 371 578 281 578 c 0
 272 578 270 584 274 596 c 1
 498 928 l 1
 791 928 l 2
 815 928 840 941 864 967 c 1
 874 956 l 1
EndSplineSet
EndChar
StartChar: six
Encoding: 23 54
OldEncoding: 54
Width: 765
VWidth: 1000
Flags: HW
Fore
745 301 m 0
 736 256 721 214 699 175 c 0
 678 136 652 103 622 75 c 0
 591 47 555 25 515 8 c 0
 475 -8 431 -16 383 -16 c 0
 326 -16 280 -4 247 20 c 0
 213 45 189 77 174 116 c 0
 159 155 152 199 153 250 c 0
 153 300 159 351 170 401 c 0
 185 475 215 545 260 611 c 0
 305 678 359 735 421 784 c 0
 483 834 552 872 627 901 c 0
 702 930 777 944 852 944 c 1
 852 922 l 1
 736 902 636 859 551 791 c 0
 466 722 402 635 358 528 c 1
 461 575 l 1
 495 585 526 590 555 590 c 0
 634 590 690 562 723 507 c 0
 756 452 763 383 745 301 c 0
612 246 m 0
 652 433 608 526 481 526 c 0
 424 526 378 513 342 485 c 1
 335 472 327 454 318 432 c 0
 310 410 302 384 295 352 c 0
 287 318 281 282 278 243 c 0
 274 204 276 168 283 135 c 0
 289 102 303 75 323 53 c 0
 342 31 372 20 412 20 c 0
 440 20 466 27 487 39 c 0
 509 51 528 68 545 89 c 0
 561 110 575 134 586 162 c 0
 597 189 606 217 612 246 c 0
EndSplineSet
EndChar
StartChar: seven
Encoding: 24 55
OldEncoding: 55
Width: 778
VWidth: 1000
Flags: HW
Fore
868 905 m 1
 377 -8 l 1
 285 -8 l 1
 741 825 l 1
 436 825 l 2
 398 825 363 816 332 797 c 0
 315 787 288 758 250 711 c 1
 227 721 l 1
 352 928 l 1
 872 928 l 1
 868 905 l 1
EndSplineSet
EndChar
StartChar: eight
Encoding: 25 56
OldEncoding: 56
Width: 763
VWidth: 1000
Flags: HW
Fore
694 209 m 0
 686 171 672 137 651 109 c 0
 631 80 606 56 578 38 c 0
 549 19 517 6 482 -3 c 0
 447 -12 412 -16 375 -16 c 0
 341 -16 309 -12 281 -2 c 0
 252 8 227 22 207 41 c 0
 186 60 172 83 164 111 c 0
 156 138 155 169 162 203 c 0
 169 237 179 265 191 287 c 0
 204 309 220 328 239 346 c 0
 257 364 279 382 305 399 c 0
 331 417 361 438 395 463 c 1
 375 490 356 513 339 531 c 0
 322 550 308 568 297 587 c 0
 286 605 279 625 276 647 c 0
 274 669 276 696 283 729 c 0
 289 762 303 792 323 818 c 0
 342 845 366 867 394 886 c 0
 422 904 453 919 485 929 c 0
 518 939 551 944 584 944 c 0
 615 944 644 940 672 933 c 0
 699 925 722 913 741 897 c 0
 760 881 774 860 781 836 c 0
 789 811 789 782 782 748 c 0
 770 690 743 645 701 612 c 0
 660 580 609 548 549 518 c 1
 573 491 596 467 617 446 c 0
 639 426 656 405 671 383 c 0
 685 361 695 337 699 310 c 0
 704 284 702 250 694 209 c 0
686 754 m 0
 694 797 690 832 674 858 c 0
 652 891 616 907 567 907 c 0
 525 907 487 894 454 868 c 0
 420 842 399 808 389 764 c 0
 374 692 416 618 514 543 c 1
 571 582 l 1
 612 614 l 1
 649 651 674 698 686 754 c 0
584 176 m 0
 595 227 588 268 563 301 c 0
 543 330 496 374 424 434 c 1
 375 395 l 1
 338 360 l 1
 304 319 281 272 270 217 c 0
 258 160 263 113 285 76 c 0
 307 39 345 20 399 20 c 0
 443 20 482 35 517 65 c 0
 552 94 574 131 584 176 c 0
EndSplineSet
EndChar
StartChar: nine
Encoding: 26 57
OldEncoding: 57
Width: 776
VWidth: 1000
Flags: HW
Fore
805 553 m 0
 772 397 696 266 575 160 c 0
 435 35 284 -27 123 -27 c 1
 125 0 l 1
 181 7 234 22 286 45 c 0
 337 68 384 98 428 135 c 0
 472 172 511 214 547 260 c 0
 582 307 611 355 633 406 c 1
 597 380 561 361 524 349 c 0
 487 338 449 332 410 332 c 0
 332 332 276 359 242 414 c 0
 209 463 201 527 217 606 c 0
 238 702 279 780 340 842 c 0
 408 910 489 944 582 944 c 0
 681 944 750 902 788 817 c 0
 821 742 827 654 805 553 c 0
655 496 m 1
 668 551 l 2
 720 788 683 907 559 907 c 0
 459 907 392 825 356 662 c 0
 340 591 339 531 354 483 c 0
 373 422 415 391 479 391 c 0
 504 391 528 395 551 403 c 0
 574 412 598 423 623 438 c 0
 640 449 651 468 655 496 c 1
EndSplineSet
EndChar
StartChar: colon
Encoding: 27 58
OldEncoding: 58
Width: 440
VWidth: 1000
Flags: HW
Fore
422 575 m 0
 410 525 378 500 326 500 c 0
 305 500 288 507 275 522 c 0
 262 537 259 555 264 575 c 0
 275 623 307 651 358 657 c 0
 380 657 397 649 410 633 c 0
 422 616 426 597 422 575 c 0
311 61 m 0
 307 40 296 22 278 8 c 0
 259 -5 239 -12 217 -12 c 0
 197 -12 180 -5 167 9 c 0
 154 24 150 41 154 61 c 0
 159 83 171 102 189 119 c 0
 208 135 228 143 250 143 c 0
 272 143 289 135 301 119 c 0
 313 102 317 83 311 61 c 0
EndSplineSet
EndChar
StartChar: semicolon
Encoding: 28 59
OldEncoding: 59
Width: 440
VWidth: 1000
Flags: HW
Fore
422 575 m 0
 410 525 378 500 326 500 c 0
 305 500 288 507 275 522 c 0
 262 537 259 555 264 575 c 0
 275 623 307 651 358 657 c 0
 380 657 397 649 410 633 c 0
 422 616 426 597 422 575 c 0
340 8 m 0
 330 -38 300 -82 248 -123 c 2
 186 -172 l 2
 178 -177 170 -183 162 -187 c 0
 154 -192 145 -196 135 -199 c 1
 129 -170 l 1
 219 -119 269 -69 279 -18 c 0
 281 -6 276 0 262 0 c 2
 246 -2 l 1
 227 -4 l 2
 169 -4 144 18 154 63 c 0
 163 118 197 145 254 145 c 0
 329 145 358 100 340 8 c 0
EndSplineSet
EndChar
StartChar: less
Encoding: 29 60
OldEncoding: 60
Width: 892
VWidth: 1000
Flags: HW
Fore
811 -8 m 1
 154 317 l 1
 172 408 l 1
 971 737 l 1
 952 657 l 1
 242 365 l 1
 827 70 l 1
 811 -8 l 1
EndSplineSet
EndChar
StartChar: equal
Encoding: 30 61
OldEncoding: 61
Width: 892
VWidth: 1000
Flags: HW
Fore
911 471 m 1
 188 471 l 1
 203 543 l 1
 926 543 l 1
 911 471 l 1
850 184 m 1
 127 184 l 1
 143 256 l 1
 866 256 l 1
 850 184 l 1
EndSplineSet
EndChar
StartChar: greater
Encoding: 31 62
OldEncoding: 62
Width: 892
VWidth: 1000
Flags: HW
Fore
881 317 m 1
 84 -8 l 1
 100 70 l 1
 813 365 l 1
 225 657 l 1
 244 737 l 1
 899 408 l 1
 881 317 l 1
EndSplineSet
EndChar
StartChar: question
Encoding: 32 63
OldEncoding: 63
Width: 700
VWidth: 1000
Flags: HW
Fore
754 731 m 0
 741 671 689 597 598 508 c 2
 530 442 l 1
 481 383 l 2
 459 357 433 308 403 236 c 1
 379 236 l 1
 394 304 423 371 465 438 c 2
 524 530 l 2
 578 616 610 687 623 743 c 0
 634 795 629 839 609 873 c 0
 589 908 554 926 504 926 c 0
 474 926 442 918 410 901 c 0
 375 881 356 859 352 838 c 0
 350 827 355 811 369 791 c 0
 384 767 389 748 385 731 c 0
 378 692 356 672 317 672 c 0
 270 672 252 702 264 762 c 0
 271 793 283 822 301 847 c 0
 319 872 341 894 367 911 c 0
 393 929 421 943 451 953 c 0
 481 964 511 969 543 969 c 0
 581 969 619 961 657 944 c 1
 700 920 l 1
 735 887 l 1
 760 840 766 788 754 731 c 0
434 61 m 0
 430 41 419 25 400 12 c 0
 382 0 362 -7 342 -8 c 0
 290 -11 270 12 281 61 c 0
 290 106 321 132 373 139 c 0
 393 139 410 131 423 116 c 0
 436 100 440 82 434 61 c 0
EndSplineSet
EndChar
StartChar: at
Encoding: 33 64
OldEncoding: 64
Width: 1134
VWidth: 1000
Flags: HW
Fore
1169 532 m 0
 1153 449 1115 375 1057 311 c 1
 993 236 920 199 840 199 c 0
 799 199 769 214 752 244 c 0
 738 261 733 280 737 299 c 1
 702 270 l 1
 666 244 l 2
 648 231 629 222 610 215 c 0
 591 208 572 203 553 201 c 1
 464 201 432 259 457 375 c 0
 464 408 476 441 494 475 c 0
 511 509 535 544 565 580 c 0
 636 667 715 711 803 711 c 1
 838 705 l 1
 859 694 875 671 885 637 c 1
 911 690 l 1
 1010 690 l 1
 842 336 l 1
 831 301 l 1
 823 264 837 246 872 246 c 0
 902 246 931 256 957 275 c 0
 984 295 1008 320 1030 349 c 0
 1052 379 1070 410 1084 442 c 0
 1099 475 1109 504 1114 530 c 0
 1125 584 1124 633 1111 678 c 0
 1098 723 1076 762 1046 795 c 0
 1015 827 978 853 934 872 c 0
 890 892 843 901 793 901 c 0
 726 901 665 888 610 862 c 0
 556 836 507 802 465 759 c 0
 423 716 387 666 359 608 c 0
 331 551 311 490 297 426 c 0
 285 370 284 318 296 270 c 0
 308 223 328 181 357 145 c 0
 387 110 424 82 469 62 c 0
 514 43 564 33 618 33 c 0
 707 33 805 56 911 102 c 1
 918 59 l 1
 853 35 796 16 745 3 c 0
 695 -10 650 -16 610 -16 c 0
 444 -16 321 35 242 139 c 1
 177 229 157 329 180 438 c 0
 213 586 287 707 403 801 c 0
 521 896 653 944 801 944 c 0
 922 944 1021 907 1096 834 c 0
 1172 756 1197 655 1169 532 c 0
844 557 m 1
 856 618 842 649 803 649 c 0
 748 649 695 616 643 551 c 0
 595 492 565 435 553 379 c 0
 537 301 558 262 616 262 c 0
 660 262 709 302 762 381 c 0
 781 411 797 441 810 470 c 0
 823 499 834 528 844 557 c 1
EndSplineSet
EndChar
StartChar: A
Encoding: 34 65
OldEncoding: 65
Width: 1024
VWidth: 1000
Flags: HW
Fore
987 0 m 1
 637 0 l 1
 643 25 l 1
 688 25 l 1
 713 33 l 2
 733 38 745 53 750 78 c 1
 750 109 l 1
 741 166 l 1
 715 297 l 1
 354 297 l 1
 256 135 l 2
 244 116 236 99 233 84 c 0
 225 44 253 25 315 25 c 1
 309 0 l 1
 37 0 l 1
 43 25 l 1
 81 25 124 55 172 115 c 0
 176 122 186 136 201 158 c 0
 216 180 236 211 260 252 c 1
 690 926 l 1
 719 926 l 1
 895 145 l 2
 906 98 918 66 932 49 c 0
 945 33 966 25 993 25 c 1
 987 0 l 1
707 354 m 1
 629 731 l 1
 389 354 l 1
 707 354 l 1
EndSplineSet
EndChar
StartChar: B
Encoding: 35 66
OldEncoding: 66
Width: 892
VWidth: 1000
Flags: HW
Fore
909 246 m 0
 900 208 883 173 859 141 c 0
 835 110 806 84 772 62 c 0
 738 41 699 25 656 14 c 0
 613 3 567 -1 518 0 c 2
 49 0 l 1
 55 27 l 1
 83 27 105 28 123 32 c 0
 141 35 156 41 168 50 c 0
 180 59 190 72 198 88 c 0
 205 104 212 126 217 152 c 2
 348 774 l 1
 359 823 358 857 346 874 c 1
 309 893 l 1
 242 901 l 1
 246 926 l 1
 639 926 l 2
 883 926 989 847 956 690 c 0
 941 623 907 573 852 539 c 0
 830 524 788 507 727 487 c 1
 874 455 935 374 909 246 c 0
811 682 m 0
 837 810 769 874 606 874 c 2
 545 874 l 2
 523 874 509 860 502 831 c 1
 434 510 l 1
 569 512 l 2
 706 513 786 570 811 682 c 0
750 252 m 0
 771 354 731 418 629 442 c 0
 595 452 526 457 422 457 c 1
 348 111 l 1
 344 82 353 63 375 55 c 0
 380 54 388 53 399 52 c 0
 410 52 425 51 444 51 c 0
 619 51 721 118 750 252 c 0
EndSplineSet
EndChar
StartChar: C
Encoding: 36 67
OldEncoding: 67
Width: 972
VWidth: 1000
Flags: HW
Fore
934 154 m 1
 912 126 875 97 823 66 c 0
 730 11 630 -16 522 -16 c 0
 382 -16 279 25 213 109 c 1
 150 195 134 309 166 453 c 0
 181 520 205 582 238 639 c 0
 270 696 315 749 371 797 c 0
 484 894 605 937 733 928 c 2
 805 922 l 2
 816 920 828 919 843 916 c 0
 857 914 872 911 887 907 c 2
 969 883 l 1
 999 883 1023 898 1040 928 c 1
 1067 928 l 1
 1014 621 l 1
 985 621 l 1
 985 701 964 763 921 807 c 0
 878 851 816 872 735 872 c 0
 682 872 632 862 586 840 c 0
 539 818 498 784 461 739 c 0
 395 664 350 567 326 449 c 0
 313 391 309 339 311 292 c 0
 314 245 325 202 344 164 c 0
 386 81 463 39 573 39 c 0
 685 39 798 85 911 178 c 1
 934 154 l 1
EndSplineSet
EndChar
StartChar: D
Encoding: 37 68
OldEncoding: 68
Width: 1032
VWidth: 1000
Flags: HW
Fore
1083 461 m 0
 1057 342 1000 242 911 160 c 0
 795 53 640 0 446 0 c 2
 47 0 l 1
 53 27 l 1
 93 27 129 35 162 53 c 1
 181 74 195 106 205 152 c 2
 338 776 l 2
 349 825 348 858 336 874 c 0
 333 877 329 881 324 885 c 0
 318 889 311 892 301 895 c 2
 240 901 l 1
 244 928 l 1
 623 928 l 2
 791 928 915 892 995 821 c 0
 1087 743 1116 623 1083 461 c 0
932 461 m 0
 961 599 940 703 870 774 c 0
 806 842 705 877 565 877 c 0
 539 877 520 872 506 862 c 0
 500 857 494 843 487 821 c 1
 336 111 l 1
 332 85 337 67 350 57 c 0
 361 53 380 51 408 51 c 0
 700 51 874 188 932 461 c 0
EndSplineSet
EndChar
StartChar: E
Encoding: 38 69
OldEncoding: 69
Width: 884
VWidth: 1000
Flags: HW
Fore
930 236 m 1
 817 0 l 1
 59 0 l 1
 66 27 l 1
 113 27 147 35 167 53 c 0
 187 71 202 104 213 152 c 1
 346 776 l 1
 357 832 355 866 340 879 c 1
 307 893 l 1
 252 901 l 1
 256 928 l 1
 1001 928 l 1
 963 727 l 1
 928 727 l 1
 932 794 920 836 891 854 c 0
 865 869 816 877 745 877 c 2
 557 877 l 2
 542 877 530 874 522 870 c 0
 513 862 506 848 502 827 c 2
 436 516 l 1
 651 516 l 2
 707 516 745 524 766 541 c 0
 789 557 811 593 831 649 c 1
 866 649 l 1
 799 326 l 1
 764 326 l 1
 768 384 762 420 745 432 c 1
 733 449 697 457 637 457 c 2
 422 457 l 1
 350 113 l 1
 342 77 365 56 420 49 c 0
 406 51 410 52 430 52 c 0
 451 53 489 53 547 53 c 0
 634 53 699 64 741 86 c 0
 767 100 793 119 817 143 c 0
 842 168 866 199 889 236 c 1
 930 236 l 1
EndSplineSet
EndChar
StartChar: F
Encoding: 39 70
OldEncoding: 70
Width: 819
VWidth: 1000
Flags: HW
Fore
942 727 m 1
 907 727 l 1
 913 793 900 834 868 852 c 0
 845 867 798 874 727 874 c 2
 537 874 l 2
 508 874 490 858 483 825 c 2
 418 516 l 1
 618 516 l 2
 646 516 669 518 689 522 c 0
 709 526 726 534 739 544 c 0
 753 554 765 567 774 584 c 0
 784 600 792 621 799 647 c 1
 831 647 l 1
 764 324 l 1
 731 324 l 1
 738 375 733 411 715 429 c 0
 697 447 660 457 604 457 c 2
 406 461 l 1
 340 152 l 1
 329 104 331 71 345 53 c 0
 359 35 390 27 438 27 c 1
 432 0 l 1
 41 0 l 1
 47 27 l 1
 99 27 134 38 154 59 c 0
 171 77 186 113 197 168 c 1
 326 774 l 1
 338 826 337 860 322 877 c 1
 289 893 l 1
 233 901 l 1
 238 926 l 1
 981 926 l 1
 942 727 l 1
EndSplineSet
EndChar
StartChar: G
Encoding: 40 71
OldEncoding: 71
Width: 1040
VWidth: 1000
Flags: HW
Fore
1102 463 m 1
 1062 459 1038 453 1028 444 c 0
 1008 428 993 398 983 354 c 2
 924 80 l 2
 921 69 906 59 880 49 c 0
 853 40 813 27 760 12 c 1
 713 4 674 -3 642 -8 c 0
 610 -14 585 -16 567 -16 c 0
 401 -16 282 31 211 127 c 0
 188 158 172 193 163 230 c 0
 154 268 150 309 152 352 c 0
 152 367 153 385 157 404 c 0
 160 424 165 446 170 469 c 0
 197 603 266 713 377 799 c 0
 487 886 609 930 741 930 c 0
 791 930 842 924 895 911 c 1
 977 883 l 1
 1012 883 1038 898 1053 930 c 1
 1081 930 l 1
 1030 639 l 1
 999 639 l 1
 973 796 890 874 750 874 c 0
 634 874 537 829 459 737 c 0
 393 658 348 559 324 440 c 0
 311 383 307 330 310 282 c 0
 314 233 326 191 348 156 c 0
 399 75 480 35 592 35 c 0
 610 35 628 37 647 40 c 0
 666 43 685 47 705 51 c 0
 760 63 792 85 799 115 c 1
 846 340 l 2
 857 390 857 425 846 442 c 1
 809 457 l 2
 799 461 781 463 754 463 c 1
 760 487 l 1
 1108 487 l 1
 1102 463 l 1
EndSplineSet
EndChar
StartChar: H
Encoding: 41 72
OldEncoding: 72
Width: 1056
VWidth: 1000
Flags: HW
Fore
1010 0 m 1
 621 0 l 1
 627 27 l 1
 677 27 715 38 739 59 c 0
 753 73 766 109 778 168 c 2
 838 440 l 1
 412 440 l 1
 350 152 l 2
 341 108 341 76 352 55 c 0
 355 51 367 44 387 35 c 1
 449 27 l 1
 442 0 l 1
 51 0 l 1
 57 27 l 1
 108 27 145 38 170 59 c 0
 188 77 201 113 211 168 c 1
 342 776 l 2
 353 825 352 858 340 874 c 0
 337 877 333 881 328 885 c 0
 322 889 315 892 305 895 c 2
 244 903 l 1
 248 928 l 1
 639 928 l 1
 635 903 l 1
 609 903 587 901 570 898 c 0
 553 895 539 888 528 879 c 0
 517 869 509 856 502 840 c 0
 495 823 489 802 483 776 c 2
 424 504 l 1
 850 504 l 1
 909 776 l 1
 923 846 911 885 872 895 c 1
 813 903 l 1
 817 928 l 1
 1206 928 l 1
 1202 903 l 1
 1153 903 1119 894 1099 877 c 0
 1079 859 1064 825 1053 776 c 2
 920 152 l 1
 909 104 910 71 924 53 c 0
 937 35 968 27 1016 27 c 1
 1010 0 l 1
EndSplineSet
EndChar
StartChar: I
Encoding: 42 73
OldEncoding: 73
Width: 507
VWidth: 1000
Flags: HW
Fore
465 0 m 1
 51 0 l 1
 57 27 l 1
 85 27 107 28 125 32 c 0
 143 35 157 41 169 50 c 0
 181 59 190 72 198 88 c 0
 205 104 212 126 217 152 c 2
 348 774 l 2
 358 821 358 854 350 874 c 1
 332 892 297 901 244 901 c 1
 248 926 l 1
 662 926 l 1
 657 901 l 1
 610 901 572 894 545 879 c 1
 523 862 506 827 494 774 c 1
 362 152 l 2
 352 100 354 66 369 50 c 0
 384 34 418 27 471 27 c 1
 465 0 l 1
EndSplineSet
EndChar
StartChar: J
Encoding: 43 74
OldEncoding: 74
Width: 544
VWidth: 1000
Flags: HW
Fore
719 901 m 1
 646 901 601 881 582 840 c 0
 573 825 567 803 563 776 c 1
 453 256 l 1
 433 174 401 109 354 59 c 1
 301 9 236 -16 158 -16 c 0
 122 -16 93 -10 70 4 c 0
 41 22 31 48 39 82 c 0
 42 98 52 114 69 129 c 0
 86 144 102 152 119 152 c 0
 146 152 164 141 172 121 c 1
 182 63 l 1
 185 43 193 33 205 33 c 0
 243 33 268 64 281 127 c 1
 420 776 l 2
 431 828 429 862 415 878 c 0
 400 893 367 901 315 901 c 1
 319 928 l 1
 723 928 l 1
 719 901 l 1
EndSplineSet
EndChar
StartChar: K
Encoding: 44 75
OldEncoding: 75
Width: 1048
VWidth: 1000
Flags: HW
Fore
1038 0 m 1
 612 0 l 1
 618 27 l 1
 680 27 715 38 723 61 c 0
 731 97 687 175 592 297 c 1
 471 444 l 1
 430 414 l 1
 375 152 l 1
 364 104 365 71 377 53 c 1
 408 33 l 1
 424 29 446 27 473 27 c 1
 467 0 l 1
 74 0 l 1
 80 27 l 1
 129 27 167 38 195 61 c 0
 210 75 223 111 233 168 c 1
 362 774 l 2
 373 823 372 857 359 874 c 0
 346 892 315 901 266 901 c 1
 270 928 l 1
 668 928 l 1
 664 901 l 1
 621 901 584 892 553 874 c 1
 534 859 518 826 506 774 c 1
 446 489 l 1
 631 629 l 1
 801 760 l 2
 849 798 876 830 883 856 c 0
 888 886 859 901 797 901 c 1
 801 928 l 1
 1167 928 l 1
 1163 901 l 1
 1140 901 1120 898 1104 893 c 2
 1057 881 l 1
 1024 866 980 836 926 791 c 2
 604 528 l 1
 911 104 l 1
 948 63 l 2
 973 39 1005 27 1044 27 c 1
 1038 0 l 1
EndSplineSet
EndChar
StartChar: L
Encoding: 45 76
OldEncoding: 76
Width: 886
VWidth: 1000
Flags: HW
Fore
934 244 m 1
 815 0 l 1
 59 0 l 1
 66 27 l 1
 113 27 147 35 167 53 c 0
 187 71 202 104 213 152 c 1
 346 776 l 1
 357 832 355 866 340 879 c 1
 307 893 l 1
 252 901 l 1
 256 928 l 1
 653 928 l 1
 649 901 l 1
 582 895 l 1
 541 879 l 1
 519 862 502 828 492 776 c 2
 350 113 l 1
 343 89 347 74 360 66 c 0
 366 61 382 58 408 55 c 0
 412 54 421 53 434 53 c 2
 477 53 l 2
 600 53 681 62 721 80 c 0
 782 106 841 160 897 244 c 1
 934 244 l 1
EndSplineSet
EndChar
StartChar: M
Encoding: 46 77
OldEncoding: 77
Width: 1280
VWidth: 1000
Flags: HW
Fore
1231 0 m 1
 840 0 l 1
 846 27 l 1
 899 27 937 37 958 57 c 0
 978 78 992 115 1001 168 c 1
 1135 795 l 1
 610 0 l 1
 590 0 l 1
 401 764 l 1
 281 205 l 2
 267 141 264 97 272 74 c 0
 282 42 317 27 377 27 c 1
 371 0 l 1
 41 0 l 1
 47 27 l 1
 107 27 149 42 172 74 c 0
 188 94 204 138 219 205 c 1
 340 772 l 1
 352 824 350 858 334 874 c 0
 328 880 317 885 299 891 c 1
 236 899 l 1
 242 926 l 1
 516 926 l 1
 690 219 l 1
 1149 926 l 1
 1427 926 l 1
 1421 899 l 1
 1374 899 1340 890 1320 871 c 0
 1300 853 1285 820 1274 772 c 1
 1143 152 l 1
 1128 85 1139 45 1178 33 c 1
 1237 27 l 1
 1231 0 l 1
EndSplineSet
EndChar
StartChar: N
Encoding: 47 78
OldEncoding: 78
Width: 1044
VWidth: 1000
Flags: HW
Fore
1210 901 m 1
 1156 901 1114 884 1085 850 c 0
 1065 824 1049 781 1036 721 c 2
 881 -12 l 1
 858 -12 l 1
 401 754 l 1
 283 207 l 1
 269 141 266 97 274 74 c 0
 284 42 319 27 379 27 c 1
 373 0 l 1
 41 0 l 1
 47 27 l 1
 106 27 148 42 174 74 c 0
 190 94 206 139 221 207 c 2
 354 825 l 1
 326 876 285 901 233 901 c 1
 238 928 l 1
 479 928 l 1
 872 254 l 1
 977 721 l 1
 991 786 993 831 985 854 c 0
 971 885 936 901 879 901 c 1
 883 928 l 1
 1214 928 l 1
 1210 901 l 1
EndSplineSet
EndChar
StartChar: O
Encoding: 48 79
OldEncoding: 79
Width: 1077
VWidth: 1000
Flags: HW
Fore
1087 461 m 0
 1059 323 993 208 889 117 c 0
 788 28 668 -16 528 -16 c 0
 390 -16 289 28 225 117 c 0
 161 205 143 320 172 461 c 0
 201 599 268 714 373 807 c 0
 474 898 594 944 733 944 c 0
 872 944 973 898 1036 807 c 0
 1099 718 1116 603 1087 461 c 0
928 463 m 0
 952 576 952 672 928 750 c 1
 892 847 824 895 723 895 c 0
 618 895 529 847 457 752 c 0
 398 677 356 580 332 463 c 0
 307 348 308 253 334 176 c 0
 365 78 433 29 539 29 c 0
 642 29 731 78 805 176 c 0
 862 254 903 350 928 463 c 0
EndSplineSet
EndChar
StartChar: P
Encoding: 49 80
OldEncoding: 80
Width: 821
VWidth: 1000
Flags: HW
Fore
928 676 m 0
 907 580 850 509 756 461 c 0
 719 442 678 428 634 419 c 0
 589 410 541 406 487 406 c 2
 453 406 l 1
 395 410 l 1
 340 152 l 2
 329 102 332 69 348 52 c 0
 365 35 397 27 446 27 c 1
 440 0 l 1
 47 0 l 1
 53 27 l 1
 102 27 138 38 160 59 c 0
 177 79 191 115 201 168 c 1
 332 776 l 2
 343 825 342 858 330 876 c 0
 317 893 287 901 240 901 c 1
 244 928 l 1
 614 928 l 2
 664 928 707 923 745 914 c 0
 784 906 818 893 848 877 c 0
 922 834 948 767 928 676 c 0
776 674 m 0
 805 809 730 877 551 877 c 0
 528 877 512 874 503 868 c 0
 494 863 487 850 483 829 c 2
 406 465 l 1
 412 465 419 465 427 464 c 0
 435 463 442 462 449 461 c 2
 489 461 l 2
 651 461 746 532 776 674 c 0
EndSplineSet
EndChar
StartChar: Q
Encoding: 50 81
OldEncoding: 81
Width: 1075
VWidth: 1000
Flags: HW
Fore
891 -223 m 1
 831 -225 l 2
 635 -232 500 -179 428 -66 c 1
 395 0 l 1
 352 11 312 31 275 60 c 0
 239 90 212 127 193 172 c 0
 157 257 150 353 172 461 c 0
 201 601 267 716 371 805 c 1
 474 898 595 944 731 944 c 0
 869 944 970 898 1034 805 c 0
 1097 717 1114 603 1085 461 c 0
 1057 323 991 208 887 117 c 0
 846 81 798 53 742 33 c 0
 687 12 638 -1 594 -6 c 1
 618 -57 l 1
 666 -111 l 1
 724 -169 801 -199 895 -199 c 1
 891 -223 l 1
926 461 m 0
 950 574 950 670 926 748 c 0
 893 844 825 893 721 893 c 0
 614 893 526 844 455 748 c 0
 425 708 400 665 380 617 c 0
 360 570 344 518 332 461 c 0
 306 343 306 248 332 174 c 0
 362 79 430 31 537 31 c 0
 642 31 730 79 801 176 c 0
 861 257 902 352 926 461 c 0
EndSplineSet
EndChar
StartChar: R
Encoding: 51 82
OldEncoding: 82
Width: 970
VWidth: 1000
Flags: HW
Fore
952 0 m 1
 727 0 l 1
 485 432 l 1
 406 428 l 1
 348 152 l 1
 337 104 339 71 353 53 c 0
 368 35 399 27 446 27 c 1
 440 0 l 1
 53 0 l 1
 59 27 l 1
 109 27 144 38 166 59 c 0
 180 73 193 109 205 168 c 2
 336 776 l 1
 345 825 346 857 338 872 c 0
 323 892 292 901 246 901 c 1
 250 928 l 1
 635 928 l 2
 875 928 978 847 942 684 c 0
 916 560 814 481 635 446 c 1
 850 92 l 2
 876 48 912 27 958 27 c 1
 952 0 l 1
788 686 m 0
 816 813 749 877 588 877 c 0
 555 877 535 875 526 872 c 0
 507 866 496 850 492 825 c 1
 418 481 l 1
 463 481 503 484 539 488 c 0
 574 493 606 500 633 510 c 0
 717 539 769 597 788 686 c 0
EndSplineSet
EndChar
StartChar: S
Encoding: 52 83
OldEncoding: 83
Width: 821
VWidth: 1000
Flags: HW
Fore
766 233 m 0
 750 158 705 96 633 47 c 1
 565 5 493 -16 418 -16 c 0
 388 -16 350 -10 303 4 c 0
 280 12 261 18 246 22 c 0
 231 25 218 27 209 27 c 0
 180 27 164 13 160 -14 c 1
 127 -14 l 1
 147 276 l 1
 178 276 l 1
 211 111 289 29 414 29 c 0
 459 29 501 44 541 74 c 0
 580 104 605 141 614 186 c 0
 627 240 612 290 569 338 c 0
 560 347 544 360 523 376 c 0
 502 392 474 410 440 432 c 0
 408 454 381 473 360 490 c 0
 340 508 324 524 311 539 c 0
 277 585 266 641 279 707 c 0
 287 742 300 774 318 804 c 0
 337 833 360 858 387 879 c 0
 414 899 444 915 477 927 c 0
 510 938 545 944 582 944 c 0
 605 944 642 936 692 920 c 2
 768 897 l 1
 791 897 810 913 825 944 c 1
 856 944 l 1
 821 647 l 1
 788 647 l 1
 788 713 771 769 737 815 c 1
 696 863 644 887 580 887 c 0
 540 887 504 875 472 851 c 0
 440 827 419 795 410 756 c 0
 397 700 426 645 496 592 c 2
 692 449 l 2
 762 397 786 325 766 233 c 0
EndSplineSet
EndChar
StartChar: T
Encoding: 53 84
OldEncoding: 84
Width: 907
VWidth: 1000
Flags: HW
Fore
1004 690 m 1
 969 690 l 1
 970 763 958 810 934 834 c 0
 909 858 859 870 784 870 c 2
 709 870 l 1
 557 152 l 1
 546 102 548 69 563 52 c 0
 578 35 612 27 664 27 c 1
 657 0 l 1
 248 0 l 1
 254 27 l 1
 310 27 350 38 375 59 c 0
 390 72 403 108 416 168 c 1
 565 870 l 1
 489 870 l 2
 416 870 362 859 328 836 c 0
 292 812 259 764 229 690 c 1
 197 690 l 1
 254 928 l 1
 1044 928 l 1
 1004 690 l 1
EndSplineSet
EndChar
StartChar: U
Encoding: 54 85
OldEncoding: 85
Width: 1079
VWidth: 1000
Flags: HW
Fore
1221 901 m 1
 1155 894 1113 878 1094 852 c 0
 1087 842 1080 827 1072 806 c 0
 1065 785 1057 756 1051 721 c 1
 973 356 l 1
 952 255 921 179 879 127 c 0
 803 31 687 -16 528 -16 c 0
 299 -16 209 102 258 338 c 1
 352 776 l 2
 363 825 361 858 347 876 c 0
 333 893 301 901 252 901 c 1
 256 928 l 1
 653 928 l 1
 649 901 l 1
 623 901 602 899 585 896 c 0
 568 893 553 886 541 878 c 0
 528 869 519 856 512 840 c 0
 505 823 499 802 494 776 c 2
 397 326 l 2
 356 136 418 41 582 41 c 0
 689 41 774 78 836 152 c 0
 851 169 864 194 876 224 c 0
 887 255 898 294 907 342 c 1
 989 721 l 2
 996 752 1000 779 1001 801 c 0
 1003 823 1001 839 995 850 c 0
 986 884 952 901 895 901 c 1
 899 928 l 1
 1225 928 l 1
 1221 901 l 1
EndSplineSet
EndChar
StartChar: V
Encoding: 55 86
OldEncoding: 86
Width: 989
VWidth: 1000
Flags: HW
Fore
1167 903 m 1
 1148 903 1133 900 1122 895 c 2
 1087 877 l 1
 1077 867 1065 853 1053 836 c 2
 1008 772 l 1
 532 -12 l 1
 512 -12 l 1
 326 756 l 1
 319 787 312 813 304 833 c 0
 297 852 289 867 283 877 c 1
 262 891 l 2
 248 899 231 903 211 903 c 1
 215 928 l 1
 588 928 l 1
 584 903 l 1
 541 903 511 898 492 889 c 1
 482 887 474 874 467 850 c 0
 466 840 475 791 496 700 c 2
 604 227 l 1
 920 741 l 1
 941 773 957 805 967 838 c 0
 975 881 945 903 879 903 c 1
 883 928 l 1
 1171 928 l 1
 1167 903 l 1
EndSplineSet
EndChar
StartChar: W
Encoding: 56 87
OldEncoding: 87
Width: 1355
VWidth: 1000
Flags: HW
Fore
1524 901 m 1
 1488 894 1462 886 1446 876 c 0
 1430 865 1412 845 1395 815 c 2
 1155 406 l 1
 1032 186 l 1
 926 -12 l 1
 907 -12 l 1
 899 45 887 123 871 220 c 0
 856 318 834 437 807 578 c 1
 465 -12 l 1
 444 -12 l 1
 395 348 l 1
 334 737 l 1
 326 799 317 836 309 848 c 0
 293 879 264 897 223 901 c 1
 227 928 l 1
 571 928 l 1
 567 901 l 1
 554 901 540 900 526 897 c 2
 487 885 l 2
 477 881 469 870 465 854 c 0
 462 844 463 823 467 791 c 1
 557 264 l 1
 793 662 l 1
 772 776 l 1
 767 799 762 819 758 836 c 0
 754 852 748 864 741 870 c 0
 725 891 696 901 655 901 c 1
 659 928 l 1
 1034 928 l 1
 1030 901 l 1
 958 901 918 883 909 848 c 1
 911 815 l 1
 926 739 l 1
 1008 260 l 1
 1284 735 l 2
 1309 778 1324 812 1329 838 c 0
 1333 862 1326 879 1309 889 c 1
 1284 897 l 1
 1247 901 l 1
 1251 928 l 1
 1528 928 l 1
 1524 901 l 1
EndSplineSet
EndChar
StartChar: X
Encoding: 57 88
OldEncoding: 88
Width: 1050
VWidth: 1000
Flags: HW
Fore
1014 0 m 1
 596 0 l 1
 602 27 l 1
 686 37 l 1
 704 44 715 56 721 74 c 0
 725 93 711 138 678 209 c 2
 586 406 l 1
 373 197 l 2
 313 137 281 97 276 78 c 0
 270 44 302 27 373 27 c 1
 367 0 l 1
 39 0 l 1
 45 27 l 1
 85 31 117 41 141 57 c 1
 207 115 l 1
 281 186 l 1
 559 457 l 1
 455 682 l 2
 430 734 409 775 391 806 c 0
 373 837 358 857 344 868 c 0
 335 878 322 885 306 890 c 0
 290 895 271 898 248 901 c 1
 252 928 l 1
 678 928 l 1
 674 901 l 1
 631 901 608 900 604 899 c 0
 578 892 563 879 557 858 c 0
 552 829 576 760 631 649 c 2
 672 567 l 1
 872 760 l 1
 926 815 l 2
 933 822 938 829 941 836 c 0
 944 842 948 849 950 856 c 0
 956 886 926 901 862 901 c 1
 866 928 l 1
 1198 928 l 1
 1194 901 l 1
 1171 901 1148 898 1126 893 c 0
 1105 887 1084 878 1065 864 c 0
 1053 855 1038 842 1020 827 c 0
 1002 812 981 793 956 770 c 2
 700 516 l 1
 887 131 l 2
 917 68 961 33 1020 27 c 1
 1014 0 l 1
EndSplineSet
EndChar
StartChar: Y
Encoding: 58 89
OldEncoding: 89
Width: 1019
VWidth: 1000
Flags: HW
Fore
1184 903 m 1
 1150 899 1121 890 1098 877 c 0
 1080 866 1059 849 1036 827 c 0
 1013 806 986 777 954 741 c 2
 680 426 l 1
 623 152 l 1
 612 102 612 69 625 51 c 1
 645 35 684 27 741 27 c 1
 735 0 l 1
 305 0 l 1
 311 27 l 1
 371 27 414 37 440 57 c 0
 455 72 469 109 481 168 c 2
 535 414 l 1
 410 682 l 2
 365 776 329 838 303 868 c 0
 280 892 255 903 227 903 c 1
 231 928 l 1
 625 928 l 1
 621 903 l 1
 554 903 517 888 512 858 c 0
 508 842 512 822 524 799 c 1
 664 487 l 1
 932 805 l 1
 948 821 958 838 963 856 c 0
 971 887 942 903 877 903 c 1
 881 928 l 1
 1188 928 l 1
 1184 903 l 1
EndSplineSet
EndChar
StartChar: Z
Encoding: 59 90
OldEncoding: 90
Width: 907
VWidth: 1000
Flags: HW
Fore
915 246 m 1
 827 0 l 1
 37 0 l 1
 41 20 l 1
 836 877 l 1
 526 877 l 2
 438 877 371 857 328 817 c 0
 303 797 278 754 252 690 c 1
 215 690 l 1
 293 928 l 1
 1030 928 l 1
 1026 907 l 1
 240 53 l 1
 600 53 l 2
 683 53 747 73 791 113 c 0
 803 124 817 140 833 163 c 0
 848 185 865 213 883 246 c 1
 915 246 l 1
EndSplineSet
EndChar
StartChar: bracketleft
Encoding: 60 91
OldEncoding: 91
Width: 526
VWidth: 1000
Flags: HW
Fore
436 -178 m 1
 135 -178 l 1
 383 989 l 1
 684 989 l 1
 676 954 l 1
 547 954 l 2
 504 954 479 933 469 891 c 1
 266 -68 l 1
 257 -118 274 -143 319 -143 c 2
 442 -143 l 1
 436 -178 l 1
EndSplineSet
EndChar
StartChar: backslash
Encoding: 61 92
OldEncoding: 92
Width: 509
VWidth: 1000
Flags: HW
Fore
465 -248 m 1
 387 -248 l 1
 244 969 l 1
 319 969 l 1
 465 -248 l 1
EndSplineSet
EndChar
StartChar: bracketright
Encoding: 62 93
OldEncoding: 93
Width: 526
VWidth: 1000
Flags: HW
Fore
358 -178 m 1
 57 -178 l 1
 63 -143 l 1
 193 -143 l 2
 235 -143 261 -122 270 -80 c 1
 473 879 l 1
 485 929 468 954 420 954 c 2
 297 954 l 1
 305 989 l 1
 606 989 l 1
 358 -178 l 1
EndSplineSet
EndChar
StartChar: asciicircum
Encoding: 63 94
OldEncoding: 94
Width: 739
VWidth: 1000
Flags: HW
Fore
774 426 m 1
 692 426 l 1
 567 872 l 1
 545 840 l 1
 252 426 l 1
 170 426 l 1
 539 948 l 1
 625 948 l 1
 774 426 l 1
EndSplineSet
EndChar
StartChar: underscore
Encoding: 64 95
OldEncoding: 95
Width: 790
VWidth: 1000
Flags: HW
Fore
725 -174 m 1
 8 -174 l 1
 23 -102 l 1
 739 -102 l 1
 725 -174 l 1
EndSplineSet
EndChar
StartChar: grave
Encoding: 65 96
OldEncoding: 96
Width: 368
VWidth: 1000
Flags: HW
Fore
408 508 m 1
 369 508 l 1
 233 606 l 1
 217 616 210 630 213 649 c 0
 220 670 233 680 254 680 c 0
 268 680 280 672 291 657 c 2
 408 508 l 1
EndSplineSet
EndChar
StartChar: a
Encoding: 66 97
OldEncoding: 97
Width: 696
VWidth: 1000
Flags: HW
Fore
690 63 m 1
 637 14 586 -10 539 -10 c 0
 474 -10 449 26 463 98 c 1
 362 26 279 -10 215 -10 c 0
 167 -10 131 4 105 32 c 0
 80 60 73 98 84 145 c 0
 100 218 146 276 221 322 c 0
 240 332 276 349 328 371 c 0
 380 393 449 420 537 453 c 1
 557 547 l 2
 575 631 544 674 465 674 c 0
 395 674 352 649 336 598 c 1
 336 594 l 1
 333 586 332 575 334 563 c 0
 335 551 335 543 334 539 c 0
 331 524 322 508 305 492 c 1
 283 478 264 471 248 471 c 0
 229 471 214 477 204 488 c 0
 194 500 191 517 197 539 c 0
 206 591 245 634 313 670 c 0
 341 685 369 695 397 701 c 0
 426 708 455 711 485 711 c 0
 571 711 627 691 653 651 c 0
 679 612 683 549 664 463 c 1
 600 162 l 2
 588 106 597 77 627 76 c 0
 650 76 674 85 698 104 c 1
 690 63 l 1
481 190 m 1
 528 416 l 1
 350 361 251 289 231 201 c 0
 223 168 227 138 242 111 c 0
 253 89 275 78 309 78 c 0
 368 78 417 97 457 135 c 0
 461 141 465 148 468 158 c 0
 471 167 476 178 481 190 c 1
EndSplineSet
EndChar
StartChar: b
Encoding: 67 98
OldEncoding: 98
Width: 802
VWidth: 1000
Flags: HW
Fore
825 369 m 0
 816 325 800 283 777 242 c 0
 755 201 726 162 690 125 c 0
 604 35 498 -10 371 -10 c 0
 323 -10 275 -2 227 14 c 0
 170 35 144 59 150 86 c 2
 319 887 l 2
 326 921 328 941 326 946 c 0
 320 960 304 967 276 967 c 2
 268 967 l 1
 233 965 l 1
 240 989 l 1
 266 996 298 1005 337 1016 c 0
 376 1027 424 1040 481 1057 c 1
 485 1055 l 1
 387 586 l 1
 395 605 408 622 426 637 c 0
 444 652 464 665 486 676 c 0
 509 687 532 695 556 701 c 0
 580 708 602 711 623 711 c 0
 713 711 775 674 809 602 c 0
 840 537 846 459 825 369 c 0
676 313 m 0
 684 353 689 389 690 422 c 0
 692 455 688 485 680 512 c 0
 658 582 613 616 545 616 c 0
 508 616 473 606 440 586 c 0
 398 561 373 531 367 496 c 1
 285 111 l 2
 282 98 285 87 294 78 c 0
 303 68 314 60 328 54 c 0
 341 48 356 43 373 40 c 0
 389 37 403 35 416 35 c 0
 548 35 635 128 676 313 c 0
EndSplineSet
EndChar
StartChar: c
Encoding: 68 99
OldEncoding: 99
Width: 690
VWidth: 1000
Flags: HW
Fore
702 229 m 1
 592 70 472 -10 344 -10 c 0
 255 -10 191 25 152 94 c 0
 116 156 108 235 127 332 c 0
 149 437 199 526 279 598 c 0
 360 673 453 711 555 711 c 0
 611 711 658 698 696 674 c 0
 744 645 762 605 750 553 c 0
 741 509 713 487 666 487 c 0
 629 487 608 511 604 559 c 1
 602 592 l 1
 599 623 593 644 582 653 c 0
 571 663 550 668 518 668 c 0
 453 668 395 637 346 575 c 0
 302 520 274 459 260 393 c 0
 244 311 249 244 276 190 c 0
 307 128 358 96 432 96 c 0
 459 96 485 100 508 108 c 0
 531 115 554 126 575 141 c 0
 591 152 607 166 626 181 c 0
 644 197 664 217 684 242 c 1
 702 229 l 1
EndSplineSet
EndChar
StartChar: d
Encoding: 69 100
OldEncoding: 100
Width: 778
VWidth: 1000
Flags: HW
Fore
793 66 m 1
 551 -10 l 1
 543 -6 l 1
 563 84 l 1
 502 21 427 -10 340 -10 c 0
 279 -10 227 7 184 41 c 0
 120 97 102 194 131 332 c 0
 142 384 159 431 182 473 c 0
 205 515 235 555 270 592 c 0
 350 671 437 711 532 711 c 0
 591 711 641 689 682 647 c 1
 733 887 l 2
 740 918 742 937 739 944 c 0
 737 951 731 956 722 959 c 0
 713 963 703 965 692 965 c 2
 684 965 l 1
 647 963 l 1
 653 989 l 1
 750 1012 l 1
 891 1057 l 1
 899 1055 l 1
 713 176 l 1
 706 141 706 117 712 105 c 0
 718 94 737 88 770 88 c 2
 797 90 l 1
 793 66 l 1
578 158 m 1
 655 516 l 1
 659 567 650 606 627 633 c 0
 603 657 570 670 526 670 c 0
 457 670 399 638 354 573 c 0
 317 524 290 462 272 387 c 0
 253 300 253 229 272 174 c 0
 297 102 347 66 422 66 c 0
 497 66 549 96 578 158 c 1
EndSplineSet
EndChar
StartChar: e
Encoding: 70 101
OldEncoding: 101
Width: 692
VWidth: 1000
Flags: HW
Fore
725 244 m 1
 713 219 697 194 679 169 c 0
 660 144 638 119 610 96 c 0
 527 25 438 -10 344 -10 c 0
 264 -10 204 13 165 60 c 0
 126 108 109 172 115 254 c 0
 117 276 122 302 127 332 c 0
 149 437 193 524 260 592 c 0
 338 671 426 711 524 711 c 0
 610 711 671 685 708 635 c 0
 744 584 752 515 733 428 c 1
 254 428 l 1
 208 204 267 92 432 92 c 0
 518 92 610 147 707 256 c 1
 725 244 l 1
590 479 m 1
 602 598 565 657 479 657 c 0
 389 657 319 598 270 479 c 1
 590 479 l 1
EndSplineSet
EndChar
StartChar: f
Encoding: 71 102
OldEncoding: 102
Width: 512
VWidth: 1000
Flags: HW
Fore
819 963 m 0
 811 920 783 899 735 899 c 0
 719 899 699 918 676 956 c 1
 658 995 638 1014 616 1014 c 0
 555 1014 514 967 494 874 c 2
 455 696 l 1
 645 696 l 1
 635 649 l 1
 446 649 l 1
 344 160 l 1
 339 137 335 116 334 99 c 0
 332 82 335 68 340 57 c 0
 352 34 391 23 457 23 c 1
 453 0 l 1
 51 0 l 1
 55 23 l 1
 68 24 80 25 92 25 c 0
 106 25 116 26 123 29 c 0
 130 31 138 34 148 38 c 0
 159 41 165 44 168 47 c 0
 187 66 203 104 215 160 c 1
 317 649 l 1
 190 649 l 1
 201 696 l 1
 328 696 l 1
 380 938 498 1059 682 1059 c 0
 717 1059 749 1052 776 1038 c 0
 812 1019 826 994 819 963 c 0
EndSplineSet
EndChar
StartChar: g
Encoding: 72 103
OldEncoding: 103
Width: 735
VWidth: 1000
Flags: HW
Fore
823 606 m 1
 700 606 l 1
 705 583 707 560 708 538 c 0
 708 515 706 492 700 469 c 0
 685 403 652 351 600 311 c 0
 548 272 488 252 420 252 c 0
 406 252 393 252 380 253 c 0
 367 254 354 255 342 258 c 2
 336 258 l 2
 325 258 305 247 276 225 c 1
 249 198 233 179 229 168 c 0
 225 145 262 131 340 127 c 2
 526 117 l 2
 577 114 617 99 646 72 c 0
 675 44 685 8 674 -37 c 0
 666 -78 645 -114 611 -144 c 0
 578 -175 539 -201 496 -222 c 0
 452 -243 407 -259 361 -270 c 0
 316 -281 275 -287 240 -287 c 0
 215 -287 188 -284 160 -280 c 0
 131 -275 105 -267 81 -256 c 0
 57 -245 38 -230 25 -212 c 0
 11 -194 7 -171 12 -143 c 0
 23 -96 83 -37 193 33 c 1
 146 61 125 87 129 111 c 0
 137 143 193 197 295 272 c 1
 214 313 183 378 201 465 c 0
 209 502 223 535 242 565 c 0
 261 595 284 621 311 642 c 0
 339 663 369 680 402 692 c 0
 436 705 471 711 508 711 c 0
 527 711 547 708 569 702 c 0
 591 697 616 689 643 678 c 0
 655 672 669 669 684 667 c 0
 699 665 712 664 723 664 c 2
 836 664 l 1
 823 606 l 1
578 432 m 0
 582 454 584 476 585 498 c 0
 585 520 584 542 580 565 c 0
 567 635 534 670 479 670 c 0
 406 670 359 625 340 537 c 0
 303 371 336 289 438 289 c 0
 511 289 557 337 578 432 c 0
629 -59 m 0
 631 -42 628 -27 617 -15 c 0
 607 -4 592 4 571 8 c 0
 566 10 554 11 536 11 c 0
 517 12 493 14 463 16 c 0
 418 19 382 21 354 23 c 0
 327 24 305 25 288 26 c 0
 271 26 258 27 249 28 c 0
 240 28 231 29 223 31 c 1
 165 -24 132 -67 125 -98 c 0
 111 -168 178 -203 326 -203 c 0
 353 -203 381 -200 409 -195 c 0
 437 -189 466 -181 498 -170 c 0
 575 -143 619 -106 629 -59 c 0
EndSplineSet
EndChar
StartChar: h
Encoding: 73 104
OldEncoding: 104
Width: 780
VWidth: 1000
Flags: HW
Fore
774 0 m 1
 449 0 l 1
 453 20 l 1
 491 25 520 33 539 47 c 0
 551 55 560 69 567 88 c 0
 574 107 580 130 586 158 c 2
 651 465 l 1
 676 574 648 629 567 629 c 0
 517 629 453 596 377 530 c 1
 297 158 l 2
 291 130 289 107 289 88 c 0
 289 70 292 57 299 47 c 0
 304 39 329 30 373 20 c 1
 369 0 l 1
 37 0 l 1
 41 20 l 1
 64 23 84 28 99 36 c 0
 115 43 126 52 133 61 c 0
 145 76 157 109 168 158 c 2
 336 942 l 1
 324 956 306 963 283 963 c 2
 244 961 l 1
 248 987 l 1
 483 1057 l 1
 487 1053 l 1
 389 586 l 1
 466 669 550 711 643 711 c 0
 770 711 816 629 782 467 c 2
 717 158 l 1
 707 109 705 77 709 63 c 0
 713 55 721 48 733 41 c 0
 745 34 760 27 778 20 c 1
 774 0 l 1
EndSplineSet
EndChar
StartChar: i
Encoding: 74 105
OldEncoding: 105
Width: 403
VWidth: 1000
Flags: HW
Fore
401 0 m 1
 406 20 l 1
 352 29 322 39 315 51 c 0
 306 74 307 109 317 156 c 1
 436 711 l 1
 430 713 l 1
 172 627 l 1
 168 604 l 1
 231 612 l 1
 266 612 276 581 264 518 c 1
 186 156 l 2
 181 130 175 108 168 90 c 0
 161 72 152 58 141 48 c 0
 130 38 117 31 100 27 c 0
 84 23 63 20 37 20 c 1
 33 0 l 1
 401 0 l 1
340 981 m 0
 335 958 338 939 350 924 c 0
 362 909 380 901 403 901 c 0
 427 901 447 909 465 924 c 0
 483 939 494 958 500 981 c 0
 504 1004 500 1023 488 1038 c 0
 477 1053 459 1061 436 1061 c 0
 413 1061 392 1053 374 1038 c 0
 355 1023 344 1004 340 981 c 0
EndSplineSet
EndChar
StartChar: j
Encoding: 75 106
OldEncoding: 106
Width: 387
VWidth: 1000
Flags: HW
Fore
453 711 m 1
 446 713 l 1
 188 627 l 1
 184 604 l 1
 248 612 l 1
 282 612 293 581 281 518 c 1
 170 0 l 1
 168 0 l 1
 154 -66 l 2
 144 -108 136 -142 130 -168 c 0
 124 -194 118 -212 113 -221 c 0
 89 -262 62 -283 31 -283 c 0
 21 -281 3 -265 -25 -233 c 1
 -46 -203 -68 -188 -90 -188 c 0
 -94 -188 -108 -193 -131 -203 c 1
 -146 -216 -156 -231 -160 -246 c 0
 -172 -304 -132 -334 -39 -334 c 0
 48 -334 121 -307 178 -254 c 0
 236 -201 276 -121 299 -14 c 1
 453 711 l 1
356 981 m 0
 351 958 354 939 367 924 c 0
 379 909 397 901 420 901 c 0
 443 901 464 909 481 924 c 0
 499 939 511 958 516 981 c 0
 520 1004 516 1023 505 1038 c 0
 493 1053 476 1061 453 1061 c 0
 429 1061 409 1053 390 1038 c 0
 372 1023 360 1004 356 981 c 0
EndSplineSet
EndChar
StartChar: k
Encoding: 76 107
OldEncoding: 107
Width: 790
VWidth: 1000
Flags: HW
Fore
803 0 m 1
 469 0 l 1
 475 25 l 1
 500 25 l 2
 523 25 537 32 543 47 c 1
 362 383 l 1
 303 102 l 2
 292 52 315 27 371 27 c 2
 401 25 l 1
 395 0 l 1
 35 0 l 1
 41 25 l 1
 93 31 122 38 127 43 c 0
 138 53 147 63 156 76 c 0
 164 88 170 105 174 127 c 1
 334 872 l 1
 341 909 343 932 340 940 c 0
 337 947 332 953 325 957 c 0
 317 962 306 965 291 965 c 2
 283 965 l 1
 240 961 l 1
 244 983 l 1
 496 1053 l 1
 504 1051 l 1
 367 406 l 1
 614 592 l 1
 644 611 662 629 666 645 c 0
 670 663 645 672 592 672 c 1
 596 696 l 1
 909 696 l 1
 905 670 l 1
 881 670 858 667 839 663 c 0
 819 658 801 652 784 645 c 0
 772 638 753 628 728 613 c 0
 703 599 675 581 645 559 c 2
 475 434 l 1
 651 135 l 2
 672 101 695 74 721 55 c 0
 747 36 776 26 809 25 c 1
 803 0 l 1
EndSplineSet
EndChar
StartChar: l
Encoding: 77 108
OldEncoding: 108
Width: 405
VWidth: 1000
Flags: HW
Fore
397 0 m 1
 33 0 l 1
 37 20 l 1
 82 26 115 36 136 51 c 0
 157 66 172 94 180 135 c 1
 338 872 l 1
 341 892 343 906 345 916 c 0
 347 927 347 935 344 942 c 0
 335 958 318 967 295 967 c 2
 233 963 l 1
 240 989 l 1
 259 993 280 998 303 1004 c 0
 326 1009 342 1013 350 1016 c 2
 506 1059 l 1
 309 131 l 1
 293 57 324 20 401 20 c 1
 397 0 l 1
EndSplineSet
EndChar
StartChar: m
Encoding: 78 109
OldEncoding: 109
Width: 1224
VWidth: 1000
Flags: HW
Fore
1219 0 m 1
 881 0 l 1
 885 20 l 1
 901 23 914 26 925 28 c 0
 935 30 943 31 950 33 c 0
 972 40 987 55 995 80 c 1
 1012 135 l 1
 1081 461 l 2
 1094 518 1096 557 1090 578 c 0
 1081 614 1053 633 1006 633 c 0
 930 633 867 601 815 537 c 1
 731 143 l 1
 715 61 742 20 813 20 c 1
 809 0 l 1
 463 0 l 1
 467 20 l 1
 489 23 507 27 522 31 c 0
 537 35 550 41 559 49 c 0
 569 57 577 68 583 81 c 0
 589 94 594 111 598 133 c 1
 670 469 l 2
 693 578 668 633 596 633 c 0
 548 633 502 618 459 588 c 0
 442 577 429 568 419 560 c 0
 409 553 402 545 399 539 c 1
 307 104 l 2
 295 48 324 20 393 20 c 1
 389 0 l 1
 45 0 l 1
 49 20 l 1
 122 20 166 57 182 131 c 1
 270 549 l 1
 277 573 275 594 264 610 c 0
 261 617 251 621 231 621 c 0
 221 621 211 620 203 620 c 0
 195 619 187 618 180 616 c 1
 186 641 l 1
 200 644 215 648 232 653 c 0
 250 659 264 663 274 666 c 2
 418 711 l 1
 428 711 l 1
 401 592 l 1
 466 630 512 656 542 671 c 0
 571 685 589 694 596 696 c 0
 623 706 647 711 668 711 c 0
 750 711 796 668 807 584 c 1
 900 668 992 711 1083 711 c 0
 1204 711 1244 618 1204 434 c 2
 1137 117 l 1
 1126 61 1142 31 1186 27 c 2
 1223 20 l 1
 1219 0 l 1
EndSplineSet
EndChar
StartChar: n
Encoding: 79 110
OldEncoding: 110
Width: 776
VWidth: 1000
Flags: HW
Fore
766 0 m 1
 449 0 l 1
 453 20 l 1
 492 25 517 33 526 47 c 1
 548 62 565 97 578 152 c 1
 645 475 l 1
 668 573 640 623 561 623 c 0
 522 623 464 595 389 539 c 1
 297 104 l 2
 287 58 315 30 379 20 c 1
 375 0 l 1
 49 0 l 1
 53 20 l 1
 100 29 l 1
 119 35 135 48 147 68 c 0
 160 87 169 111 174 139 c 1
 256 522 l 1
 264 565 265 593 258 608 c 0
 257 611 252 613 244 614 c 0
 236 616 228 616 221 616 c 0
 199 616 184 615 176 612 c 1
 180 639 l 1
 198 642 215 646 232 651 c 0
 250 657 262 661 270 664 c 0
 291 670 313 678 337 685 c 0
 361 693 384 700 408 709 c 1
 422 709 l 1
 393 582 l 1
 421 605 444 624 465 640 c 0
 485 656 503 668 518 676 c 0
 565 698 608 709 647 709 c 0
 765 709 808 631 776 477 c 1
 700 125 l 1
 692 92 693 66 702 47 c 1
 709 40 718 35 728 32 c 0
 738 28 752 25 770 20 c 1
 766 0 l 1
EndSplineSet
EndChar
StartChar: o
Encoding: 80 111
OldEncoding: 111
Width: 784
VWidth: 1000
Flags: HW
Fore
137 350 m 0
 128 301 126 255 133 211 c 0
 140 167 155 129 177 96 c 0
 200 63 230 38 267 18 c 0
 305 -1 349 -10 399 -10 c 0
 450 -10 498 -1 544 18 c 0
 589 38 631 63 668 96 c 0
 705 129 736 167 763 211 c 0
 790 255 808 301 817 350 c 0
 828 399 830 446 822 489 c 0
 815 533 799 571 776 604 c 0
 753 637 723 663 685 682 c 0
 648 701 603 711 553 711 c 0
 502 711 455 701 410 682 c 0
 365 663 324 637 287 604 c 0
 250 571 218 533 193 489 c 0
 167 446 148 399 137 350 c 0
274 348 m 0
 284 392 297 433 313 472 c 0
 330 511 349 545 372 573 c 0
 394 602 420 625 449 642 c 0
 477 659 509 668 543 668 c 0
 578 668 607 659 629 642 c 0
 651 625 667 602 677 573 c 0
 687 545 692 511 691 472 c 0
 691 433 685 392 676 348 c 0
 666 304 654 263 638 224 c 0
 622 185 603 151 582 122 c 0
 560 93 534 69 505 52 c 0
 475 35 443 27 408 27 c 0
 373 27 346 35 325 52 c 0
 303 69 287 93 276 122 c 0
 266 151 260 185 260 223 c 0
 260 263 265 304 274 348 c 0
EndSplineSet
EndChar
StartChar: p
Encoding: 81 112
OldEncoding: 112
Width: 774
VWidth: 1000
Flags: HW
Fore
229 -176 m 1
 279 53 l 1
 317 11 365 -10 422 -10 c 0
 474 -10 522 1 567 23 c 0
 612 44 652 73 687 110 c 0
 722 146 752 187 776 234 c 0
 801 282 818 330 827 379 c 0
 836 418 839 458 838 498 c 0
 836 537 828 573 814 604 c 0
 800 636 779 661 752 681 c 0
 724 701 689 711 645 711 c 0
 555 711 471 672 393 594 c 1
 412 711 l 1
 172 633 l 1
 166 608 l 1
 215 610 l 2
 241 610 255 602 256 586 c 0
 259 575 256 553 248 520 c 1
 96 -188 l 1
 89 -224 77 -249 59 -263 c 0
 42 -278 12 -285 -29 -285 c 1
 -33 -309 l 1
 334 -309 l 1
 340 -281 l 1
 285 -281 252 -274 240 -262 c 0
 222 -248 218 -220 229 -176 c 1
686 330 m 0
 670 251 643 186 606 135 c 0
 560 68 502 35 434 35 c 0
 401 35 371 44 342 63 c 1
 304 84 288 109 295 137 c 1
 377 518 l 1
 384 532 393 545 406 557 c 0
 418 569 432 580 449 589 c 0
 465 598 482 605 500 610 c 0
 517 616 535 618 551 618 c 0
 586 618 615 610 636 592 c 0
 657 574 673 551 683 523 c 0
 693 495 698 464 697 430 c 0
 697 396 693 362 686 330 c 0
EndSplineSet
EndChar
StartChar: q
Encoding: 82 113
OldEncoding: 113
Width: 692
VWidth: 1000
Flags: HW
Fore
702 -328 m 1
 709 -303 l 1
 646 -291 619 -261 629 -215 c 2
 823 707 l 1
 821 711 l 1
 813 709 l 1
 715 655 l 1
 657 692 603 711 553 711 c 0
 500 711 450 700 403 680 c 0
 357 659 315 631 278 596 c 0
 240 560 208 520 182 474 c 0
 156 428 138 380 127 328 c 0
 117 285 113 244 114 203 c 0
 114 162 121 126 134 94 c 0
 147 63 168 38 197 18 c 0
 225 -1 263 -10 309 -10 c 0
 328 -10 351 -8 378 -2 c 0
 404 3 429 12 453 23 c 2
 518 59 l 1
 567 96 l 1
 508 -182 l 1
 500 -223 482 -253 455 -271 c 0
 427 -290 390 -299 342 -299 c 1
 336 -328 l 1
 702 -328 l 1
590 199 m 1
 565 139 l 1
 530 100 476 80 403 80 c 0
 368 80 340 89 318 106 c 0
 297 124 282 147 272 176 c 0
 263 205 258 236 258 270 c 0
 258 304 261 338 268 371 c 0
 276 406 288 441 302 476 c 0
 316 511 335 543 356 571 c 0
 378 600 404 623 434 641 c 0
 464 659 498 668 537 668 c 0
 638 668 678 617 657 516 c 1
 590 199 l 1
EndSplineSet
EndChar
StartChar: r
Encoding: 83 114
OldEncoding: 114
Width: 522
VWidth: 1000
Flags: HW
Fore
676 629 m 0
 670 606 661 588 647 577 c 0
 634 565 618 559 602 559 c 0
 591 559 582 562 573 568 c 0
 565 574 558 581 551 588 c 0
 544 595 538 601 531 607 c 0
 525 613 518 616 510 616 c 0
 487 616 459 601 428 569 c 0
 413 553 401 538 392 525 c 0
 383 512 378 500 375 487 c 2
 301 141 l 1
 282 61 317 20 406 20 c 1
 401 0 l 1
 31 0 l 1
 35 20 l 1
 58 26 78 31 94 35 c 0
 111 39 122 43 129 47 c 0
 136 51 143 61 151 78 c 0
 158 94 164 112 168 131 c 2
 250 518 l 2
 257 550 257 573 252 590 c 0
 246 606 235 613 217 610 c 2
 164 604 l 1
 168 629 l 1
 273 663 355 690 414 711 c 1
 422 711 l 1
 391 571 l 1
 473 664 546 711 610 711 c 0
 666 711 688 683 676 629 c 0
EndSplineSet
EndChar
StartChar: s
Encoding: 84 115
OldEncoding: 115
Width: 591
VWidth: 1000
Flags: HW
Fore
571 184 m 0
 558 123 526 75 475 41 c 0
 425 7 368 -10 305 -10 c 0
 285 -10 253 -6 209 2 c 2
 133 16 l 2
 121 16 108 11 94 0 c 1
 74 0 l 1
 125 238 l 1
 154 238 l 1
 150 203 150 177 156 158 c 1
 170 94 l 1
 180 68 196 49 218 37 c 0
 241 25 268 18 301 18 c 0
 386 18 436 56 453 131 c 0
 461 175 442 213 397 246 c 2
 250 346 l 1
 209 389 l 2
 180 418 172 462 184 522 c 0
 191 551 203 577 220 600 c 0
 237 623 257 643 281 659 c 0
 304 676 329 688 357 697 c 0
 385 706 414 711 442 711 c 0
 470 711 488 709 499 706 c 0
 509 702 517 699 524 696 c 2
 575 678 l 1
 586 678 597 685 606 698 c 1
 625 698 l 1
 590 487 l 1
 563 487 l 1
 560 613 516 676 430 676 c 0
 359 676 313 642 291 573 c 1
 281 527 296 491 334 465 c 2
 481 367 l 2
 521 339 547 315 559 295 c 0
 577 265 581 228 571 184 c 0
EndSplineSet
EndChar
StartChar: t
Encoding: 85 116
OldEncoding: 116
Width: 425
VWidth: 1000
Flags: HW
Fore
463 102 m 1
 440 71 408 44 369 23 c 0
 329 1 292 -10 258 -10 c 0
 167 -10 134 54 160 182 c 1
 258 645 l 1
 174 645 l 1
 170 657 l 1
 199 677 227 697 256 719 c 0
 287 745 316 771 342 799 c 0
 368 826 397 858 430 895 c 1
 434 872 l 1
 395 696 l 1
 553 696 l 1
 543 645 l 1
 385 645 l 1
 291 205 l 1
 272 112 288 66 340 66 c 0
 373 66 408 83 446 119 c 1
 463 102 l 1
EndSplineSet
EndChar
StartChar: u
Encoding: 86 117
OldEncoding: 117
Width: 790
VWidth: 1000
Flags: HW
Fore
774 55 m 1
 766 54 754 52 737 48 c 0
 721 45 700 39 676 31 c 2
 545 -8 l 1
 569 119 l 1
 487 51 l 2
 434 10 377 -10 315 -10 c 0
 273 -10 236 1 203 23 c 1
 167 65 156 119 170 186 c 1
 254 575 l 1
 262 618 257 645 240 657 c 1
 231 670 212 676 180 676 c 1
 184 696 l 1
 408 696 l 1
 301 195 l 1
 296 160 300 132 315 111 c 0
 318 104 322 99 328 95 c 0
 333 92 339 88 346 84 c 1
 395 78 l 1
 442 78 490 96 541 131 c 1
 558 141 571 166 580 207 c 1
 659 573 l 1
 668 614 665 641 651 652 c 0
 638 664 609 670 565 670 c 1
 569 696 l 1
 815 696 l 1
 702 168 l 1
 696 130 697 105 706 95 c 0
 714 85 739 80 778 80 c 1
 774 55 l 1
EndSplineSet
EndChar
StartChar: v
Encoding: 87 118
OldEncoding: 118
Width: 741
VWidth: 1000
Flags: HW
Fore
864 672 m 1
 837 672 812 657 788 629 c 0
 778 615 769 602 763 591 c 0
 757 579 748 566 737 551 c 1
 436 57 l 1
 389 -4 l 1
 379 -14 l 1
 367 2 l 1
 350 51 l 1
 231 614 l 1
 213 647 l 2
 202 664 184 672 158 672 c 1
 162 696 l 1
 463 696 l 1
 459 672 l 1
 412 668 386 652 379 625 c 0
 378 618 377 610 378 602 c 0
 379 594 380 584 381 571 c 1
 453 178 l 1
 608 434 l 2
 638 483 661 522 676 550 c 0
 691 578 702 601 709 621 c 2
 711 629 l 2
 713 642 709 653 698 660 c 0
 687 668 671 672 649 672 c 1
 653 696 l 1
 868 696 l 1
 864 672 l 1
EndSplineSet
EndChar
StartChar: w
Encoding: 88 119
OldEncoding: 119
Width: 1073
VWidth: 1000
Flags: HW
Fore
1194 672 m 1
 1171 668 1143 640 1112 590 c 2
 786 55 l 1
 745 2 l 1
 729 -14 l 1
 721 -14 713 6 705 47 c 1
 643 410 l 1
 389 41 l 1
 378 20 367 7 354 0 c 1
 342 -14 l 1
 326 8 316 29 313 49 c 1
 201 639 l 1
 198 659 184 670 158 672 c 1
 162 696 l 1
 438 696 l 1
 434 672 l 1
 385 668 356 651 348 621 c 0
 347 608 354 552 371 453 c 1
 418 174 l 1
 625 481 l 1
 608 582 l 1
 592 639 l 1
 581 654 559 665 526 672 c 1
 530 696 l 1
 844 696 l 1
 840 672 l 1
 774 657 l 1
 755 649 743 635 739 614 c 0
 738 609 741 575 750 512 c 1
 803 180 l 1
 1016 522 l 2
 1024 535 1033 551 1041 570 c 0
 1050 590 1056 607 1059 621 c 0
 1064 642 1047 659 1006 672 c 1
 1010 696 l 1
 1198 696 l 1
 1194 672 l 1
EndSplineSet
EndChar
StartChar: x
Encoding: 89 120
OldEncoding: 120
Width: 770
VWidth: 1000
Flags: HW
Fore
743 0 m 1
 432 0 l 1
 436 20 l 1
 479 29 l 2
 493 33 502 44 506 63 c 0
 507 69 507 76 504 84 c 0
 501 92 498 102 494 113 c 2
 408 303 l 1
 246 115 l 2
 221 86 206 64 201 49 c 0
 198 30 216 20 256 20 c 1
 252 0 l 1
 29 0 l 1
 33 20 l 1
 63 26 82 32 90 39 c 0
 101 44 113 53 125 63 c 0
 137 74 151 87 166 102 c 2
 395 358 l 1
 297 580 l 2
 290 596 282 611 273 625 c 0
 265 638 255 651 244 664 c 1
 184 672 l 1
 188 696 l 1
 508 696 l 1
 504 672 l 1
 460 672 436 660 430 637 c 0
 426 622 445 567 487 471 c 1
 573 568 619 623 625 637 c 0
 630 660 612 672 571 672 c 1
 575 696 l 1
 819 696 l 1
 815 672 l 1
 762 672 715 650 676 606 c 2
 508 420 l 1
 643 115 l 2
 669 57 704 26 748 20 c 1
 743 0 l 1
EndSplineSet
EndChar
StartChar: y
Encoding: 90 121
OldEncoding: 121
Width: 757
VWidth: 1000
Flags: HW
Fore
416 -27 m 2
 791 604 l 1
 816 651 846 674 879 674 c 1
 883 696 l 1
 674 696 l 1
 670 674 l 1
 720 674 742 659 735 631 c 1
 485 180 l 1
 391 573 l 1
 383 593 380 611 383 629 c 0
 388 659 423 674 485 674 c 1
 489 696 l 1
 170 696 l 1
 166 676 l 1
 210 668 232 651 233 625 c 1
 381 31 l 1
 382 28 383 26 382 25 c 0
 381 23 381 21 381 18 c 1
 307 -98 l 1
 257 -175 214 -213 178 -213 c 0
 165 -213 149 -208 132 -198 c 0
 115 -187 95 -182 72 -182 c 0
 20 -182 -10 -206 -18 -254 c 0
 -33 -315 -2 -346 76 -346 c 0
 177 -346 290 -240 416 -27 c 2
EndSplineSet
EndChar
StartChar: z
Encoding: 91 122
OldEncoding: 122
Width: 679
VWidth: 1000
Flags: HW
Fore
670 205 m 1
 608 0 l 1
 25 0 l 1
 29 20 l 1
 573 647 l 1
 356 647 l 2
 306 647 270 634 249 608 c 0
 228 582 212 550 201 512 c 1
 168 512 l 1
 213 696 l 1
 754 696 l 1
 750 672 l 1
 199 47 l 1
 412 47 l 2
 446 47 475 50 499 55 c 0
 523 61 543 70 561 83 c 0
 579 96 594 113 607 134 c 0
 620 155 633 182 645 213 c 1
 670 205 l 1
EndSplineSet
EndChar
StartChar: braceleft
Encoding: 92 123
OldEncoding: 123
Width: 491
VWidth: 1000
Flags: HW
Fore
389 -256 m 1
 310 -256 255 -244 223 -219 c 0
 188 -189 178 -134 195 -55 c 2
 248 195 l 2
 259 244 258 280 246 304 c 0
 233 328 205 346 162 358 c 1
 210 371 245 389 267 413 c 0
 290 437 307 472 317 520 c 1
 373 776 l 2
 389 854 421 908 469 938 c 0
 510 963 571 975 651 975 c 1
 647 958 l 1
 595 948 557 929 532 902 c 0
 508 876 490 836 479 782 c 2
 428 543 l 1
 418 489 401 447 377 416 c 1
 355 393 316 373 260 358 c 1
 285 350 304 341 319 332 c 0
 335 322 345 311 352 297 c 0
 359 283 362 267 361 247 c 0
 361 227 357 203 350 174 c 1
 299 -63 l 2
 288 -115 289 -154 303 -180 c 0
 317 -206 347 -226 393 -240 c 1
 389 -256 l 1
EndSplineSet
EndChar
StartChar: bar
Encoding: 93 124
OldEncoding: 124
Width: 317
VWidth: 1000
Flags: HW
Fore
145 -248 m 1
 74 -248 l 1
 334 969 l 1
 406 969 l 1
 145 -248 l 1
EndSplineSet
EndChar
StartChar: braceright
Encoding: 94 125
OldEncoding: 125
Width: 491
VWidth: 1000
Flags: HW
Fore
487 358 m 1
 440 346 404 328 381 303 c 0
 358 279 341 242 330 195 c 1
 276 -55 l 2
 260 -133 228 -188 180 -219 c 0
 142 -244 81 -256 -2 -256 c 1
 2 -240 l 1
 94 -218 150 -159 170 -63 c 2
 221 174 l 2
 233 229 249 268 268 293 c 0
 290 322 330 343 389 356 c 1
 340 371 310 392 298 418 c 0
 286 444 287 485 299 543 c 2
 350 782 l 2
 361 834 360 873 347 900 c 0
 334 927 304 946 256 958 c 1
 260 975 l 1
 343 975 399 963 428 938 c 0
 462 908 470 853 453 774 c 1
 399 520 l 1
 380 436 410 382 487 358 c 1
EndSplineSet
EndChar
StartChar: asciitilde
Encoding: 95 126
OldEncoding: 126
Width: 856
VWidth: 1000
Flags: HW
Fore
848 391 m 1
 795 338 l 1
 758 307 l 2
 726 281 688 268 643 268 c 0
 613 268 565 284 500 315 c 0
 438 348 389 365 352 365 c 0
 306 365 258 330 209 262 c 1
 174 334 l 1
 234 416 302 457 377 457 c 0
 410 457 459 441 524 410 c 0
 586 380 632 363 664 360 c 0
 705 360 754 395 811 463 c 1
 848 391 l 1
EndSplineSet
EndChar
StartChar: uni0E01
Encoding: 97 3585
OldEncoding: 3585
Width: 827
VWidth: 1000
Flags: HW
Fore
688 0 m 1
 582 0 l 1
 694 530 l 2
 707 589 696 636 663 670 c 0
 629 704 583 721 524 721 c 0
 427 721 346 692 281 635 c 1
 350 635 401 605 432 545 c 1
 405 537 380 522 358 502 c 0
 337 481 322 455 315 424 c 2
 225 0 l 1
 119 0 l 1
 203 395 l 2
 221 481 271 536 354 559 c 1
 319 586 264 600 188 600 c 1
 203 627 225 652 252 675 c 0
 279 697 312 718 350 737 c 0
 414 771 478 788 541 788 c 0
 632 788 700 768 745 727 c 1
 800 682 819 616 801 530 c 1
 688 0 l 1
EndSplineSet
EndChar
StartChar: uni0E02
Encoding: 98 3586
OldEncoding: 3586
Width: 720
VWidth: 1000
Flags: HW
Fore
606 113 m 2
 590 38 552 -0 492 0 c 2
 98 0 l 1
 106 39 l 1
 186 39 l 1
 254 358 l 1
 261 386 273 414 292 442 c 0
 310 471 335 502 367 535 c 0
 398 567 420 595 433 618 c 0
 446 642 454 658 457 668 c 0
 462 691 456 710 438 724 c 0
 421 738 398 745 371 745 c 0
 356 745 342 744 331 741 c 0
 319 739 307 734 295 727 c 1
 318 727 336 715 348 690 c 0
 356 668 357 640 350 606 c 0
 343 578 329 550 308 524 c 0
 287 498 263 485 236 485 c 0
 210 485 191 499 179 525 c 0
 168 552 165 579 170 606 c 0
 181 658 206 701 245 736 c 0
 284 771 329 788 381 788 c 0
 436 788 477 774 505 745 c 0
 533 717 541 677 530 627 c 0
 528 612 520 594 508 574 c 0
 496 555 477 530 453 500 c 0
 427 468 406 442 389 420 c 0
 373 398 362 378 358 360 c 2
 291 39 l 1
 412 39 l 2
 433 39 452 45 468 57 c 0
 484 70 494 88 500 113 c 2
 639 770 l 1
 745 770 l 1
 606 113 l 2
315 606 m 0
 319 628 318 647 311 663 c 0
 304 678 294 686 279 686 c 2
 276 686 l 2
 261 686 248 679 236 665 c 0
 223 650 214 631 209 606 c 0
 205 587 206 568 212 550 c 0
 218 531 229 522 244 522 c 0
 257 522 272 531 287 550 c 0
 302 568 311 587 315 606 c 0
EndSplineSet
EndChar
StartChar: uni0E03
Encoding: 99 3587
OldEncoding: 3587
Width: 802
VWidth: 1000
Flags: HW
Fore
688 113 m 1
 683 84 670 59 649 37 c 0
 627 12 603 0 575 0 c 2
 180 0 l 1
 188 39 l 1
 262 39 l 1
 330 356 l 2
 341 408 378 471 442 545 c 0
 474 578 498 603 516 622 c 0
 534 640 544 657 547 674 c 0
 551 696 550 713 543 726 c 0
 536 739 522 745 502 745 c 0
 459 745 432 715 420 653 c 1
 389 653 l 1
 392 670 392 684 388 695 c 0
 385 707 380 716 374 724 c 0
 368 731 361 737 353 740 c 0
 346 744 340 745 336 745 c 0
 325 745 314 744 303 741 c 0
 292 739 285 734 281 727 c 1
 312 727 334 714 346 688 c 0
 352 676 354 662 354 645 c 0
 354 629 353 613 350 598 c 0
 343 571 329 544 308 517 c 0
 287 490 262 477 233 477 c 0
 210 477 191 489 176 512 c 0
 161 535 157 564 164 598 c 0
 168 621 175 644 186 667 c 0
 197 689 211 709 227 727 c 0
 244 745 262 759 282 771 c 0
 301 783 323 788 346 788 c 0
 362 788 378 784 391 775 c 0
 405 766 415 754 422 737 c 1
 448 771 478 788 512 788 c 0
 549 788 577 776 595 751 c 0
 613 725 618 691 608 647 c 0
 606 636 596 617 580 590 c 0
 563 563 543 535 520 506 c 0
 497 476 478 448 464 423 c 0
 450 398 440 376 436 358 c 2
 369 39 l 1
 489 39 l 2
 506 39 524 47 545 62 c 0
 565 78 578 95 582 113 c 2
 721 772 l 1
 827 772 l 1
 688 113 l 1
313 598 m 0
 317 618 317 638 311 657 c 0
 306 677 293 686 272 686 c 0
 257 686 243 677 230 659 c 0
 217 642 208 621 203 598 c 0
 197 575 199 556 209 542 c 0
 218 527 231 520 246 520 c 0
 259 520 273 527 286 542 c 0
 299 556 308 575 313 598 c 0
EndSplineSet
EndChar
StartChar: uni0E04
Encoding: 100 3588
OldEncoding: 3588
Width: 794
VWidth: 1000
Flags: HW
Fore
406 315 m 0
 437 315 465 329 488 355 c 0
 512 382 527 410 532 438 c 0
 541 474 538 504 523 528 c 0
 509 553 485 565 451 565 c 0
 411 565 374 550 339 518 c 0
 304 487 278 429 260 344 c 1
 248 375 237 404 228 430 c 0
 219 456 218 485 225 518 c 0
 254 653 350 721 514 721 c 0
 567 721 609 707 639 679 c 0
 669 651 679 613 670 565 c 1
 549 0 l 1
 655 0 l 1
 776 565 l 2
 793 643 774 701 721 739 c 0
 676 772 612 788 530 788 c 0
 435 788 355 767 291 725 c 0
 217 679 170 608 150 514 c 0
 147 496 147 473 150 443 c 0
 152 414 160 375 172 328 c 0
 184 283 191 239 194 198 c 0
 196 156 193 118 186 84 c 1
 180 61 l 1
 164 0 l 1
 270 0 l 1
 283 31 293 68 301 109 c 0
 308 136 313 162 317 188 c 0
 322 214 326 238 330 260 c 0
 332 275 336 290 341 306 c 0
 346 322 350 334 354 342 c 1
 360 337 367 331 376 325 c 0
 385 318 395 315 406 315 c 0
383 438 m 0
 390 464 400 484 414 497 c 0
 427 510 442 516 457 516 c 0
 469 516 479 510 487 497 c 0
 496 484 496 464 489 438 c 0
 485 416 477 397 463 381 c 0
 449 365 434 356 418 356 c 0
 407 356 397 362 387 374 c 0
 378 385 376 407 383 438 c 0
EndSplineSet
EndChar
StartChar: uni0E05
Encoding: 101 3589
OldEncoding: 3589
Width: 811
VWidth: 1000
Flags: HW
Fore
174 328 m 1
 188 283 196 239 198 198 c 0
 200 156 197 118 190 84 c 1
 184 61 l 1
 168 0 l 1
 274 0 l 1
 287 31 297 68 305 109 c 0
 312 136 317 162 322 188 c 0
 326 214 330 238 334 260 c 0
 337 275 340 290 345 306 c 0
 350 322 354 334 358 342 c 1
 364 337 371 331 380 325 c 0
 389 318 399 315 410 315 c 0
 441 315 469 329 493 355 c 0
 516 382 531 410 537 438 c 0
 545 474 542 504 527 528 c 0
 513 553 489 565 455 565 c 0
 415 565 378 550 343 518 c 0
 308 487 282 429 264 344 c 1
 249 384 238 420 229 453 c 0
 221 485 221 520 229 557 c 0
 253 666 309 721 397 721 c 0
 422 721 440 714 453 700 c 0
 465 687 471 664 471 633 c 1
 500 633 l 1
 512 664 528 687 548 700 c 0
 568 714 591 721 618 721 c 0
 650 721 672 709 685 686 c 0
 698 663 701 637 694 608 c 1
 565 0 l 1
 672 0 l 1
 801 604 l 1
 812 662 802 707 771 739 c 0
 740 772 696 788 639 788 c 0
 580 788 535 766 504 721 c 1
 494 766 459 788 397 788 c 0
 367 788 339 782 313 770 c 0
 287 758 264 741 244 720 c 0
 223 699 206 674 191 645 c 0
 177 616 167 586 160 555 c 0
 158 536 157 519 156 505 c 0
 154 490 154 475 155 460 c 0
 155 444 157 426 161 406 c 0
 164 385 169 359 174 328 c 1
387 438 m 0
 394 464 404 484 418 497 c 0
 431 510 446 516 461 516 c 0
 473 516 483 510 492 497 c 0
 500 484 500 464 494 438 c 0
 489 416 481 397 467 381 c 0
 453 365 438 356 422 356 c 0
 411 356 401 362 391 374 c 0
 382 385 380 407 387 438 c 0
EndSplineSet
EndChar
StartChar: uni0E06
Encoding: 102 3590
OldEncoding: 3590
Width: 901
VWidth: 1000
Flags: HW
Fore
762 0 m 1
 647 0 l 1
 640 76 619 137 583 182 c 0
 546 227 502 257 449 270 c 1
 416 113 l 1
 398 33 354 -6 285 -6 c 0
 240 -6 206 9 184 39 c 0
 162 69 157 107 168 154 c 0
 177 197 200 235 234 267 c 0
 269 299 309 319 354 326 c 1
 360 356 l 1
 367 384 379 413 394 443 c 0
 410 474 434 507 467 543 c 0
 500 578 523 606 538 627 c 0
 552 647 560 661 561 668 c 0
 573 720 560 745 520 745 c 0
 501 745 484 736 468 716 c 0
 452 696 442 675 438 653 c 1
 410 653 l 1
 422 713 407 745 365 748 c 2
 356 748 l 2
 337 748 320 741 305 729 c 1
 332 729 351 719 361 697 c 0
 372 676 373 647 365 610 c 0
 362 597 357 582 349 567 c 0
 342 552 332 539 322 526 c 0
 311 514 299 504 286 496 c 0
 273 487 259 483 246 483 c 0
 221 483 202 495 188 518 c 0
 175 541 172 572 180 610 c 0
 186 634 195 656 207 677 c 0
 219 698 234 717 251 733 c 0
 268 750 287 763 308 773 c 0
 329 783 351 788 373 788 c 0
 414 788 437 770 442 733 c 1
 457 765 489 783 537 788 c 1
 584 788 615 776 629 751 c 0
 642 725 644 691 635 647 c 0
 632 631 624 612 609 591 c 0
 595 570 575 543 549 512 c 0
 524 483 506 455 493 428 c 0
 480 401 471 378 467 358 c 2
 461 328 l 1
 513 328 560 312 604 281 c 0
 648 249 677 210 690 162 c 1
 819 772 l 1
 926 772 l 1
 762 0 l 1
322 610 m 0
 327 634 327 653 322 668 c 0
 316 683 306 690 291 690 c 0
 276 690 262 683 250 669 c 0
 238 654 229 635 223 610 c 0
 218 586 217 565 222 549 c 0
 227 532 238 524 254 524 c 0
 269 524 283 532 295 549 c 0
 307 565 316 586 322 610 c 0
311 127 m 1
 342 266 l 1
 309 261 283 248 263 227 c 0
 243 207 230 182 223 152 c 0
 214 108 225 86 256 86 c 0
 287 86 306 100 311 127 c 1
EndSplineSet
EndChar
StartChar: uni0E07
Encoding: 103 3591
OldEncoding: 3591
Width: 624
VWidth: 1000
Flags: HW
Fore
485 0 m 1
 379 0 l 1
 111 516 l 1
 139 541 l 1
 408 137 l 1
 502 582 l 1
 495 567 484 555 470 548 c 0
 456 540 444 537 434 537 c 0
 410 537 390 549 376 574 c 0
 361 600 358 627 365 657 c 0
 374 697 392 729 419 753 c 0
 445 777 478 788 516 788 c 0
 560 788 591 776 609 750 c 0
 628 724 632 689 623 645 c 2
 485 0 l 1
514 657 m 1
 520 682 519 703 512 720 c 0
 505 737 494 745 477 745 c 0
 462 745 447 736 433 718 c 0
 419 699 409 679 403 657 c 0
 399 636 401 616 410 600 c 0
 418 584 429 575 442 575 c 0
 456 575 470 583 485 598 c 0
 500 613 511 637 518 670 c 1
 514 657 l 1
EndSplineSet
EndChar
StartChar: uni0E08
Encoding: 104 3592
OldEncoding: 3592
Width: 653
VWidth: 1000
Flags: HW
Fore
514 0 m 1
 412 0 l 1
 429 81 437 153 434 216 c 0
 431 280 427 335 420 383 c 0
 417 395 413 410 407 426 c 0
 400 442 392 456 381 467 c 1
 382 459 382 449 381 437 c 0
 380 426 378 416 377 410 c 0
 369 375 354 347 334 324 c 0
 313 300 289 289 262 289 c 0
 238 289 219 300 207 324 c 0
 195 347 193 375 201 410 c 0
 208 445 224 476 249 503 c 0
 274 529 304 543 340 543 c 0
 418 543 468 484 492 367 c 1
 530 551 l 2
 541 603 532 644 504 675 c 0
 475 706 435 721 383 721 c 0
 302 721 223 679 145 596 c 1
 123 610 l 1
 213 729 317 788 434 788 c 0
 498 788 552 769 594 731 c 0
 617 711 632 687 638 660 c 0
 644 634 644 605 637 573 c 2
 514 0 l 1
340 410 m 0
 345 436 345 456 340 472 c 0
 335 488 323 496 305 496 c 0
 291 496 279 488 266 472 c 0
 254 456 245 436 240 410 c 0
 233 384 233 363 242 348 c 0
 250 333 259 326 270 326 c 0
 284 326 297 333 310 348 c 0
 323 363 333 384 340 410 c 0
EndSplineSet
EndChar
StartChar: uni0E09
Encoding: 105 3593
OldEncoding: 3593
Width: 937
VWidth: 1000
Flags: HW
Fore
831 156 m 0
 810 48 755 -6 668 -6 c 0
 598 -6 572 33 590 113 c 1
 623 272 l 1
 565 263 509 235 455 188 c 0
 400 142 353 79 313 0 c 1
 203 0 l 1
 270 319 l 1
 262 309 252 300 240 295 c 0
 227 289 216 287 205 287 c 0
 173 287 153 299 142 325 c 0
 132 350 130 376 137 403 c 0
 145 443 162 476 186 502 c 0
 211 528 243 541 283 541 c 0
 326 541 358 527 378 501 c 0
 398 474 403 439 393 395 c 2
 344 164 l 1
 377 210 418 247 468 274 c 0
 518 302 573 320 635 330 c 1
 678 526 l 2
 692 591 683 639 651 672 c 0
 620 705 572 721 508 721 c 0
 400 721 303 677 217 590 c 1
 195 602 l 1
 230 658 279 703 340 737 c 0
 401 771 464 788 528 788 c 0
 614 788 683 771 733 735 c 0
 765 715 784 689 791 657 c 0
 797 626 797 589 788 547 c 1
 741 326 l 1
 781 319 809 301 824 273 c 0
 840 245 842 206 831 156 c 0
285 406 m 2
 291 431 292 452 287 468 c 0
 281 484 268 492 248 492 c 0
 236 492 223 484 209 470 c 0
 195 456 185 433 178 403 c 0
 173 379 173 358 178 342 c 0
 184 326 196 317 215 317 c 0
 233 317 248 327 261 346 c 0
 274 365 283 390 289 422 c 1
 285 406 l 2
778 154 m 0
 791 216 774 255 729 270 c 1
 698 127 l 2
 693 100 700 86 721 86 c 0
 750 86 769 109 778 154 c 0
EndSplineSet
EndChar
StartChar: uni0E0A
Encoding: 106 3594
OldEncoding: 3594
Width: 727
VWidth: 1000
Flags: HW
Fore
610 111 m 2
 608 98 603 86 597 74 c 0
 591 61 583 50 573 39 c 0
 549 13 524 -0 498 0 c 2
 104 0 l 1
 113 41 l 1
 190 41 l 1
 258 354 l 1
 272 423 315 492 389 563 c 0
 408 582 424 599 436 614 c 0
 449 629 456 644 459 659 c 0
 466 689 462 711 449 725 c 0
 435 739 412 745 381 745 c 0
 354 745 328 739 303 727 c 1
 325 727 341 713 350 684 c 0
 353 672 354 657 354 641 c 0
 354 626 353 613 350 602 c 0
 343 572 329 544 308 517 c 0
 287 490 263 477 236 477 c 0
 211 477 191 488 177 509 c 0
 163 530 160 561 168 602 c 0
 180 655 207 700 249 735 c 0
 290 771 338 788 391 788 c 0
 495 788 545 742 543 649 c 1
 592 672 626 726 645 811 c 2
 651 836 l 1
 766 836 l 1
 760 811 l 1
 749 755 730 712 703 682 c 0
 677 652 636 631 582 621 c 1
 621 621 650 597 668 551 c 1
 685 517 689 477 680 430 c 1
 610 111 l 2
309 602 m 0
 315 623 315 641 310 658 c 0
 305 675 295 684 279 684 c 0
 266 684 253 676 238 660 c 0
 223 645 212 625 207 602 c 0
 201 573 202 551 208 535 c 0
 214 518 225 510 242 510 c 0
 259 510 274 518 285 536 c 0
 296 553 304 575 309 602 c 0
504 109 m 1
 573 430 l 2
 583 474 582 508 571 532 c 0
 560 557 543 575 520 586 c 1
 519 579 510 566 493 548 c 0
 475 529 451 504 420 471 c 0
 394 441 375 403 365 358 c 1
 297 41 l 1
 416 41 l 2
 433 41 452 48 471 61 c 0
 490 75 501 91 504 109 c 1
EndSplineSet
EndChar
StartChar: uni0E0B
Encoding: 107 3595
OldEncoding: 3595
Width: 802
VWidth: 1000
Flags: HW
Fore
512 788 m 0
 478 788 448 771 422 737 c 1
 415 754 405 766 391 775 c 0
 378 784 362 788 346 788 c 0
 323 788 301 783 282 771 c 0
 262 759 244 745 227 727 c 0
 211 709 197 689 186 667 c 0
 175 644 168 621 164 598 c 0
 157 564 161 535 176 512 c 0
 191 489 210 477 233 477 c 0
 262 477 287 490 308 517 c 0
 329 544 343 571 350 598 c 0
 353 613 354 629 354 645 c 0
 354 662 352 676 346 688 c 0
 334 714 312 727 281 727 c 1
 285 734 292 739 303 741 c 0
 314 744 325 745 336 745 c 0
 340 745 346 744 353 740 c 0
 361 737 368 731 374 724 c 0
 380 716 385 707 388 695 c 0
 392 684 392 670 389 653 c 1
 420 653 l 1
 432 715 459 745 502 745 c 0
 522 745 536 739 543 726 c 0
 550 713 551 696 547 674 c 0
 544 657 534 640 517 623 c 0
 500 605 476 579 444 545 c 0
 410 509 384 476 367 444 c 0
 349 413 337 384 330 356 c 1
 262 39 l 1
 188 39 l 1
 180 0 l 1
 573 0 l 2
 601 0 627 13 651 39 c 0
 659 50 667 61 674 73 c 0
 681 84 685 98 688 113 c 2
 756 434 l 2
 769 497 768 545 752 579 c 0
 735 612 705 629 659 629 c 1
 754 641 813 703 838 815 c 1
 842 838 l 1
 725 838 l 1
 721 815 l 1
 710 770 695 731 675 698 c 0
 655 666 634 649 610 649 c 2
 608 649 l 1
 616 693 611 727 593 752 c 0
 574 776 547 788 512 788 c 0
582 113 m 2
 578 94 565 76 545 61 c 0
 524 46 507 39 492 39 c 2
 369 39 l 1
 436 358 l 2
 440 376 450 398 464 423 c 0
 478 448 497 476 520 506 c 0
 534 522 546 538 558 554 c 0
 570 570 580 585 588 600 c 1
 619 596 639 579 648 548 c 0
 657 517 657 479 649 434 c 1
 582 113 l 2
313 598 m 0
 308 575 299 556 286 542 c 0
 273 527 259 520 246 520 c 0
 231 520 218 527 209 542 c 0
 199 556 197 575 203 598 c 0
 208 621 217 642 230 659 c 0
 243 677 257 686 272 686 c 0
 293 686 306 677 311 657 c 0
 317 638 317 618 313 598 c 0
EndSplineSet
EndChar
StartChar: uni0E0C
Encoding: 108 3596
OldEncoding: 3596
Width: 1110
VWidth: 1000
Flags: HW
Fore
971 0 m 1
 858 0 l 1
 865 34 867 65 864 92 c 0
 862 119 855 145 844 168 c 0
 834 193 821 214 803 231 c 0
 785 249 762 261 733 266 c 1
 698 109 l 1
 682 29 638 -10 567 -10 c 0
 520 -10 486 4 466 33 c 0
 446 61 441 100 451 147 c 0
 461 193 483 229 515 258 c 0
 547 287 588 308 637 322 c 1
 682 526 l 1
 694 586 684 634 651 669 c 0
 618 703 572 721 512 721 c 0
 416 721 335 692 268 633 c 1
 341 633 392 603 422 545 c 1
 393 537 368 523 347 503 c 0
 326 483 312 457 305 424 c 2
 258 205 l 1
 265 213 274 221 287 227 c 0
 299 234 313 238 330 238 c 0
 362 238 382 224 389 197 c 0
 396 169 396 140 389 109 c 0
 373 28 325 -12 246 -12 c 0
 202 -12 170 0 151 25 c 0
 131 49 126 83 135 127 c 2
 193 395 l 1
 210 481 262 536 348 559 c 1
 318 586 265 600 188 600 c 1
 216 653 266 699 340 737 c 0
 406 771 468 788 528 788 c 0
 624 788 693 768 735 727 c 1
 788 683 806 616 788 526 c 1
 745 326 l 1
 781 320 813 310 843 294 c 0
 872 278 896 256 913 227 c 1
 1028 774 l 1
 1135 774 l 1
 971 0 l 1
600 143 m 2
 627 266 l 1
 558 255 516 215 500 145 c 0
 490 98 502 72 535 70 c 0
 567 67 589 91 600 143 c 2
354 109 m 0
 358 125 359 144 355 165 c 0
 352 186 339 197 317 197 c 0
 302 197 289 189 276 174 c 0
 264 159 255 136 248 104 c 0
 242 83 243 65 250 51 c 0
 257 38 268 31 285 31 c 0
 304 31 319 39 331 55 c 0
 342 72 350 89 354 109 c 0
EndSplineSet
EndChar
StartChar: uni0E0D
Encoding: 109 3597
OldEncoding: 3597
Width: 1112
VWidth: 1000
Flags: HW
Fore
997 113 m 1
 981 38 943 -0 885 0 c 2
 567 0 l 1
 680 526 l 1
 687 555 687 581 680 605 c 0
 673 629 662 650 647 667 c 0
 632 684 613 697 590 707 c 0
 567 716 541 721 512 721 c 0
 415 721 334 692 268 635 c 1
 338 635 389 605 422 545 c 1
 392 537 367 523 346 503 c 0
 326 483 312 457 305 424 c 2
 256 193 l 1
 278 214 304 225 334 225 c 0
 357 225 375 215 388 195 c 0
 401 174 403 144 395 104 c 0
 379 27 328 -12 244 -12 c 0
 201 -12 170 0 151 25 c 0
 131 49 126 83 135 127 c 2
 193 397 l 1
 212 482 264 536 348 559 c 1
 318 586 265 600 188 600 c 1
 216 655 266 700 340 737 c 0
 403 771 466 788 528 788 c 0
 737 788 823 701 786 526 c 2
 682 39 l 1
 801 39 l 2
 821 39 840 45 857 57 c 0
 874 70 885 88 891 113 c 2
 1030 774 l 1
 1137 774 l 1
 997 113 l 1
952 -92 m 1
 910 -297 812 -399 659 -399 c 0
 608 -399 567 -382 538 -348 c 0
 508 -314 499 -271 510 -219 c 0
 518 -182 536 -152 563 -128 c 0
 591 -104 622 -92 657 -92 c 0
 685 -92 704 -104 716 -127 c 0
 727 -150 730 -176 723 -205 c 0
 716 -233 702 -259 682 -283 c 0
 662 -306 638 -317 610 -317 c 2
 594 -315 l 1
 613 -345 644 -360 686 -360 c 0
 705 -360 725 -352 744 -336 c 0
 764 -319 782 -302 797 -283 c 0
 809 -266 819 -245 826 -218 c 0
 834 -191 840 -167 844 -143 c 2
 852 -92 l 1
 952 -92 l 1
362 104 m 0
 368 128 367 147 358 162 c 0
 350 177 339 184 326 184 c 0
 312 184 297 177 282 162 c 0
 266 147 255 127 250 102 c 0
 246 83 247 66 253 50 c 0
 259 34 272 27 293 27 c 0
 307 27 320 33 334 47 c 0
 347 61 357 80 362 104 c 0
690 -205 m 0
 694 -186 693 -168 686 -151 c 0
 679 -133 668 -125 651 -125 c 0
 636 -125 621 -134 604 -154 c 0
 597 -162 592 -171 589 -180 c 0
 585 -190 583 -198 582 -205 c 0
 578 -228 578 -245 582 -256 c 0
 586 -267 591 -274 597 -279 c 0
 603 -283 610 -285 616 -287 c 0
 636 -287 651 -279 664 -263 c 0
 676 -247 685 -228 690 -205 c 0
EndSplineSet
EndChar
StartChar: uni0E0E
Encoding: 110 3598
OldEncoding: 3598
Width: 876
VWidth: 1000
Flags: HW
Fore
668 -330 m 1
 850 526 l 2
 859 570 860 610 852 645 c 0
 844 681 826 710 799 733 c 0
 776 754 752 768 727 776 c 0
 702 784 667 788 621 788 c 0
 558 788 494 771 430 737 c 0
 392 718 359 697 332 675 c 0
 304 652 283 627 268 600 c 1
 343 600 399 586 434 559 c 1
 351 536 300 481 283 395 c 2
 244 213 l 1
 225 229 208 238 193 238 c 0
 161 238 133 225 110 199 c 0
 86 173 70 143 63 111 c 0
 57 72 62 42 80 20 c 0
 98 -1 126 -12 164 -12 c 0
 216 -12 254 0 280 25 c 0
 305 49 323 87 334 139 c 2
 395 424 l 2
 402 455 416 481 438 502 c 0
 460 522 485 537 512 545 c 1
 481 605 430 635 360 635 c 1
 426 692 507 721 604 721 c 0
 663 721 704 703 727 668 c 0
 750 632 756 585 743 526 c 2
 592 -184 l 1
 539 -139 l 2
 530 -132 523 -127 516 -122 c 0
 509 -117 504 -113 500 -109 c 1
 502 -102 507 -89 513 -70 c 0
 519 -51 526 -27 535 0 c 1
 473 0 l 1
 466 -25 461 -43 458 -55 c 0
 454 -68 451 -77 446 -84 c 1
 427 -76 407 -69 384 -63 c 0
 361 -58 339 -55 315 -55 c 0
 270 -55 227 -68 186 -92 c 0
 145 -117 120 -151 111 -195 c 0
 106 -215 108 -233 114 -248 c 0
 120 -263 129 -275 142 -285 c 0
 155 -294 171 -301 189 -305 c 0
 208 -309 227 -311 246 -311 c 0
 257 -311 267 -311 278 -309 c 0
 288 -308 298 -306 309 -303 c 0
 356 -292 390 -274 414 -248 c 0
 437 -222 453 -201 461 -186 c 1
 480 -207 498 -228 514 -251 c 0
 530 -273 544 -300 555 -330 c 1
 668 -330 l 1
418 -152 m 1
 411 -173 398 -195 378 -215 c 0
 358 -236 337 -249 313 -256 c 0
 293 -263 272 -266 250 -266 c 0
 236 -266 223 -265 211 -262 c 0
 199 -259 188 -255 179 -249 c 0
 170 -243 164 -235 160 -226 c 0
 156 -217 155 -206 158 -193 c 0
 163 -168 180 -148 207 -134 c 0
 234 -120 264 -113 295 -113 c 0
 317 -113 339 -115 361 -121 c 0
 384 -126 403 -137 418 -152 c 1
221 111 m 0
 216 83 205 63 190 49 c 0
 175 35 160 29 145 29 c 0
 132 29 120 35 111 49 c 0
 101 63 99 83 104 111 c 0
 109 128 117 146 131 164 c 0
 145 182 161 190 180 190 c 0
 198 190 211 183 219 169 c 0
 227 155 228 135 221 111 c 0
EndSplineSet
EndChar
StartChar: uni0E0F
Encoding: 111 3599
OldEncoding: 3599
Width: 876
VWidth: 1000
Flags: HW
Fore
850 526 m 2
 859 570 860 610 852 645 c 0
 844 681 826 710 799 733 c 0
 776 754 752 768 727 776 c 0
 702 784 667 788 621 788 c 0
 558 788 494 771 430 737 c 0
 392 718 359 697 332 675 c 0
 304 652 283 627 268 600 c 1
 343 600 399 586 434 559 c 1
 351 536 300 481 283 395 c 2
 244 211 l 1
 241 219 234 226 223 230 c 0
 212 235 202 238 193 238 c 0
 161 238 133 225 110 199 c 0
 86 173 70 143 63 111 c 0
 57 72 62 42 80 20 c 0
 98 -1 126 -12 164 -12 c 0
 218 -12 258 1 283 29 c 0
 307 56 324 92 334 137 c 2
 395 422 l 2
 402 453 416 480 438 501 c 0
 460 522 485 537 512 545 c 1
 481 605 430 635 360 635 c 1
 426 692 507 721 604 721 c 0
 663 721 704 703 727 668 c 0
 750 632 756 585 743 526 c 2
 590 -190 l 1
 547 -59 l 1
 457 -197 l 1
 446 -180 436 -166 427 -153 c 0
 418 -140 409 -128 399 -119 c 1
 405 -100 410 -83 415 -69 c 0
 419 -54 423 -40 426 -25 c 1
 432 0 l 1
 391 0 l 1
 388 -15 385 -30 381 -46 c 0
 377 -62 371 -77 362 -92 c 1
 345 -77 328 -68 313 -65 c 0
 298 -61 279 -59 256 -59 c 0
 218 -59 182 -70 148 -92 c 0
 115 -114 94 -143 86 -180 c 0
 79 -214 88 -242 112 -263 c 0
 136 -284 166 -295 203 -295 c 0
 275 -295 327 -259 358 -188 c 1
 372 -212 380 -235 383 -259 c 0
 386 -283 386 -307 383 -332 c 1
 430 -332 l 1
 520 -188 l 1
 569 -332 l 1
 668 -332 l 1
 850 526 l 2
334 -156 m 1
 302 -221 262 -254 213 -254 c 0
 190 -254 170 -247 154 -232 c 0
 137 -218 131 -201 135 -182 c 0
 145 -136 178 -113 236 -113 c 0
 255 -113 273 -116 292 -123 c 0
 310 -130 324 -141 334 -156 c 1
221 111 m 0
 216 83 205 63 190 49 c 0
 175 35 160 29 145 29 c 0
 132 29 120 35 111 49 c 0
 101 63 99 83 104 111 c 0
 109 128 117 146 131 164 c 0
 145 182 161 190 180 190 c 0
 198 190 211 183 219 169 c 0
 227 155 228 135 221 111 c 0
EndSplineSet
EndChar
StartChar: uni0E10
Encoding: 112 3600
OldEncoding: 3600
Width: 729
VWidth: 1000
Flags: HW
Fore
418 -406 m 1
 469 -168 l 2
 488 -76 455 -31 371 -31 c 0
 339 -31 313 -42 291 -63 c 0
 269 -85 255 -112 248 -143 c 0
 242 -171 244 -196 254 -219 c 0
 264 -242 283 -254 311 -254 c 0
 332 -254 352 -246 371 -229 c 1
 346 -344 l 1
 289 -274 l 1
 207 -354 l 1
 200 -327 193 -309 186 -301 c 1
 231 -240 l 1
 205 -221 l 1
 168 -272 l 1
 146 -252 117 -242 80 -242 c 0
 57 -242 34 -250 12 -265 c 0
 -10 -281 -23 -300 -29 -324 c 0
 -33 -347 -29 -366 -16 -382 c 0
 -4 -398 14 -406 37 -406 c 0
 75 -406 115 -383 158 -338 c 1
 170 -369 l 2
 173 -374 174 -380 173 -386 c 0
 172 -392 171 -399 170 -406 c 1
 213 -406 l 1
 274 -348 l 1
 326 -406 l 1
 418 -406 l 1
383 -143 m 0
 378 -168 369 -187 356 -200 c 0
 344 -213 331 -219 317 -219 c 0
 302 -219 293 -212 288 -197 c 0
 283 -182 283 -164 287 -143 c 0
 292 -119 301 -100 313 -88 c 0
 326 -76 338 -70 350 -70 c 0
 383 -70 394 -94 383 -143 c 0
137 -307 m 1
 118 -330 101 -346 86 -355 c 0
 71 -364 58 -369 47 -369 c 0
 32 -369 22 -364 16 -354 c 0
 11 -345 10 -335 12 -324 c 0
 15 -311 22 -300 33 -291 c 0
 44 -281 57 -276 72 -276 c 0
 95 -276 117 -287 137 -307 c 1
590 403 m 1
 602 474 578 530 518 569 c 0
 468 599 402 614 322 614 c 0
 297 614 279 614 268 613 c 0
 257 613 248 612 240 610 c 1
 272 669 328 698 406 698 c 0
 418 698 433 695 451 689 c 0
 468 683 489 677 512 670 c 0
 535 662 555 656 571 652 c 0
 588 649 601 647 612 647 c 0
 689 647 749 691 793 778 c 1
 750 778 l 1
 736 758 722 741 707 727 c 0
 692 713 672 707 649 707 c 0
 636 707 617 714 595 729 c 0
 572 744 554 756 539 764 c 0
 522 773 505 780 486 783 c 0
 468 787 449 788 430 788 c 0
 401 788 373 783 346 771 c 0
 319 759 294 744 270 724 c 0
 247 704 226 681 208 655 c 0
 189 629 175 601 164 571 c 1
 257 571 329 564 381 549 c 0
 461 526 496 477 483 401 c 1
 467 330 l 1
 460 369 444 399 420 420 c 0
 395 440 365 451 330 451 c 0
 291 451 260 439 237 417 c 0
 213 394 197 366 190 332 c 0
 185 304 188 279 201 254 c 0
 213 229 231 217 256 217 c 0
 283 217 307 228 328 251 c 0
 348 273 362 299 369 328 c 0
 373 348 373 366 371 381 c 1
 398 352 414 306 420 243 c 0
 425 179 418 98 397 0 c 1
 504 0 l 1
 590 403 l 1
330 332 m 0
 324 307 315 288 303 275 c 0
 291 262 278 256 264 256 c 0
 249 256 238 262 231 275 c 0
 225 288 224 307 229 332 c 0
 235 352 243 369 255 383 c 0
 267 397 280 403 295 403 c 0
 311 403 322 396 328 380 c 0
 333 364 334 348 330 332 c 0
EndSplineSet
EndChar
StartChar: uni0E11
Encoding: 113 3601
OldEncoding: 3601
Width: 937
VWidth: 1000
Flags: HW
Fore
799 0 m 1
 692 0 l 1
 829 641 l 1
 832 660 830 674 822 683 c 0
 815 692 805 696 793 696 c 0
 779 696 766 694 754 689 c 0
 741 684 730 672 719 653 c 2
 352 0 l 1
 242 0 l 1
 317 356 l 1
 324 384 336 412 351 441 c 0
 367 471 390 503 422 539 c 0
 485 606 517 649 520 668 c 0
 532 720 519 745 479 745 c 0
 460 745 443 735 427 715 c 0
 411 694 401 674 397 655 c 1
 369 655 l 1
 381 717 367 748 326 748 c 0
 304 748 285 741 270 729 c 1
 296 729 314 719 324 697 c 0
 333 676 334 647 326 610 c 0
 317 571 302 540 280 517 c 0
 257 495 232 483 205 483 c 0
 180 483 161 495 147 517 c 0
 134 540 131 571 139 610 c 0
 145 634 154 656 166 677 c 0
 178 698 193 717 211 733 c 0
 229 750 248 763 268 773 c 0
 289 783 310 788 332 788 c 0
 366 788 389 770 401 733 c 1
 418 763 449 782 496 788 c 1
 579 788 611 748 592 666 c 0
 588 646 580 628 568 609 c 0
 557 591 545 571 532 551 c 0
 501 507 476 469 458 436 c 0
 439 403 428 378 424 358 c 2
 377 131 l 1
 682 668 l 2
 728 748 784 788 848 788 c 0
 881 788 906 776 924 752 c 0
 941 727 947 698 940 666 c 2
 799 0 l 1
283 610 m 0
 289 639 289 659 283 672 c 0
 276 684 265 690 250 690 c 0
 239 690 226 683 211 668 c 0
 196 653 186 634 180 610 c 0
 173 579 173 557 180 544 c 0
 187 531 198 524 213 524 c 0
 227 524 240 532 254 549 c 0
 268 565 277 586 283 610 c 0
EndSplineSet
EndChar
StartChar: uni0E12
Encoding: 114 3602
OldEncoding: 3602
Width: 1091
VWidth: 1000
Flags: HW
Fore
952 0 m 1
 840 0 l 1
 856 79 853 142 831 188 c 0
 810 235 771 266 717 281 c 1
 680 109 l 2
 664 29 621 -10 553 -10 c 0
 456 -10 420 48 444 164 c 0
 454 209 474 246 505 274 c 0
 536 303 575 324 625 336 c 1
 682 608 l 2
 690 648 687 677 674 696 c 0
 660 715 640 725 612 725 c 0
 556 725 517 694 496 631 c 1
 465 631 l 1
 470 694 445 725 389 725 c 0
 350 725 314 700 283 649 c 0
 261 611 244 569 233 522 c 0
 228 495 227 467 230 437 c 0
 234 408 240 377 248 344 c 2
 287 195 l 1
 393 307 l 1
 362 307 339 321 325 347 c 0
 310 374 307 402 313 432 c 0
 320 466 336 496 360 520 c 0
 385 545 413 557 444 557 c 0
 484 557 509 544 520 517 c 0
 531 490 533 460 526 426 c 0
 522 404 508 376 484 341 c 0
 460 306 421 255 367 186 c 0
 342 154 322 122 306 91 c 0
 290 60 279 30 272 0 c 1
 145 0 l 1
 152 31 155 74 155 127 c 0
 154 180 150 246 143 324 c 0
 139 362 138 397 139 428 c 0
 141 459 144 487 150 512 c 0
 165 579 190 639 227 692 c 0
 274 756 328 788 389 788 c 0
 438 788 475 763 500 713 c 1
 537 763 587 788 651 788 c 0
 707 788 747 772 770 739 c 0
 793 707 799 662 788 606 c 1
 731 340 l 1
 768 333 801 322 830 307 c 0
 860 292 883 274 899 254 c 1
 1010 774 l 1
 1116 774 l 1
 952 0 l 1
465 432 m 0
 469 451 468 469 462 486 c 0
 456 503 444 512 426 512 c 0
 411 512 397 506 384 493 c 0
 371 480 362 459 356 432 c 0
 351 406 352 386 358 372 c 0
 365 357 376 350 391 350 c 0
 406 350 421 357 435 372 c 0
 450 386 459 406 465 432 c 0
578 113 m 1
 612 281 l 1
 581 272 554 258 532 238 c 0
 511 217 496 190 489 156 c 0
 483 128 482 106 488 89 c 0
 495 72 507 63 526 63 c 0
 552 63 569 80 578 113 c 1
EndSplineSet
EndChar
StartChar: uni0E13
Encoding: 115 3603
OldEncoding: 3603
Width: 1191
VWidth: 1000
Flags: HW
Fore
1135 164 m 0
 1122 105 1099 61 1066 33 c 0
 1033 4 995 -10 952 -10 c 0
 915 -10 891 -0 879 19 c 0
 866 39 864 69 872 109 c 2
 909 281 l 1
 878 274 849 261 821 243 c 0
 794 224 769 201 748 172 c 0
 713 123 689 66 674 0 c 1
 563 0 l 1
 676 526 l 1
 687 584 677 630 646 667 c 0
 615 703 571 721 514 721 c 0
 416 721 335 692 270 633 c 1
 341 633 392 603 422 545 c 1
 393 535 368 521 347 501 c 0
 326 481 312 455 305 424 c 2
 260 211 l 1
 267 221 277 227 290 231 c 0
 303 236 317 238 332 238 c 0
 362 238 383 224 395 198 c 0
 408 171 410 143 403 113 c 0
 386 29 334 -12 248 -12 c 0
 200 -12 167 0 148 25 c 0
 130 49 126 83 135 127 c 2
 193 395 l 2
 210 480 263 535 350 559 c 1
 320 586 266 600 188 600 c 1
 203 627 223 652 247 675 c 0
 271 697 302 718 340 737 c 0
 406 771 469 788 530 788 c 0
 735 788 819 701 782 526 c 1
 719 233 l 1
 746 261 778 283 813 301 c 0
 849 319 885 332 922 340 c 1
 1014 774 l 1
 1120 774 l 1
 1028 336 l 1
 1064 324 1093 303 1115 274 c 0
 1138 246 1144 209 1135 164 c 0
1085 156 m 0
 1092 191 1088 219 1072 240 c 0
 1056 260 1038 274 1016 281 c 1
 979 106 l 2
 976 91 978 81 983 74 c 0
 989 67 996 63 1006 63 c 0
 1019 63 1034 71 1051 86 c 0
 1067 101 1079 124 1085 156 c 0
367 113 m 0
 369 130 367 148 360 166 c 0
 354 184 341 193 322 193 c 0
 307 193 291 186 275 173 c 0
 260 160 249 140 244 113 c 0
 238 89 240 70 249 54 c 0
 258 39 270 31 287 31 c 0
 302 31 317 38 333 51 c 0
 349 65 360 85 367 113 c 0
EndSplineSet
EndChar
StartChar: uni0E14
Encoding: 116 3604
OldEncoding: 3604
Width: 792
VWidth: 1000
Flags: HW
Fore
653 0 m 1
 547 0 l 1
 662 541 l 2
 674 601 665 650 636 689 c 0
 607 728 562 748 502 748 c 0
 432 748 374 727 328 687 c 0
 281 647 251 592 236 522 c 0
 231 499 229 472 229 442 c 0
 229 412 234 379 244 342 c 2
 283 193 l 1
 391 336 l 1
 360 336 338 349 325 376 c 0
 312 402 309 430 315 459 c 0
 322 494 338 524 364 549 c 0
 389 573 418 586 453 586 c 0
 474 586 492 581 504 570 c 0
 516 560 525 547 530 532 c 0
 536 517 538 501 537 483 c 0
 535 466 531 449 524 434 c 0
 520 422 507 397 483 359 c 0
 460 322 421 266 367 190 c 0
 339 154 318 119 303 88 c 0
 288 57 277 27 270 0 c 1
 164 0 l 1
 171 30 173 66 171 109 c 0
 169 151 165 200 158 256 c 0
 141 369 137 449 145 494 c 0
 155 539 171 580 194 616 c 0
 216 653 243 684 275 710 c 0
 308 735 344 754 384 768 c 0
 424 782 468 788 514 788 c 0
 595 788 660 769 711 729 c 0
 767 683 786 620 768 541 c 1
 653 0 l 1
465 459 m 0
 470 485 469 504 461 517 c 0
 453 530 441 537 426 537 c 0
 414 537 401 530 387 517 c 0
 373 504 364 485 358 459 c 0
 353 437 354 418 360 401 c 0
 367 385 379 377 395 377 c 0
 406 377 419 383 433 394 c 0
 447 406 458 427 465 459 c 0
EndSplineSet
EndChar
StartChar: uni0E15
Encoding: 117 3605
OldEncoding: 3605
Width: 808
VWidth: 1000
Flags: HW
Fore
670 0 m 1
 795 586 l 1
 807 646 803 695 782 732 c 0
 762 770 723 788 666 788 c 0
 634 788 606 782 581 770 c 0
 555 758 534 739 516 713 c 1
 492 763 452 788 397 788 c 0
 366 788 336 781 308 766 c 0
 280 751 255 728 231 696 c 0
 212 669 196 641 182 612 c 0
 169 584 158 552 152 518 c 0
 145 491 143 461 146 428 c 0
 150 395 153 360 156 322 c 0
 162 244 168 179 173 126 c 0
 178 73 177 31 170 0 c 1
 276 0 l 1
 289 57 320 121 371 190 c 0
 425 266 465 323 489 364 c 0
 514 404 528 430 530 442 c 0
 533 459 535 475 536 493 c 0
 536 510 535 525 530 539 c 0
 526 552 518 564 507 572 c 0
 495 581 479 586 457 586 c 0
 423 586 393 573 368 549 c 0
 342 524 326 494 319 459 c 0
 313 430 316 402 329 376 c 0
 342 349 364 336 395 336 c 1
 287 193 l 1
 285 212 281 234 272 260 c 0
 264 286 256 319 248 358 c 0
 241 390 236 419 233 446 c 0
 231 474 231 499 236 522 c 0
 246 573 264 616 287 651 c 0
 318 700 354 725 395 725 c 0
 458 725 487 694 483 633 c 1
 512 633 l 1
 537 694 574 725 625 725 c 0
 652 725 672 714 685 691 c 0
 698 669 699 634 688 588 c 1
 563 0 l 1
 670 0 l 1
469 459 m 0
 462 427 452 406 437 394 c 0
 423 383 410 377 399 377 c 0
 383 377 371 385 365 401 c 0
 358 418 357 437 362 459 c 0
 368 485 378 504 391 517 c 0
 405 530 418 537 430 537 c 0
 445 537 457 530 465 517 c 0
 473 504 474 485 469 459 c 0
EndSplineSet
EndChar
StartChar: uni0E16
Encoding: 118 3606
OldEncoding: 3606
Width: 817
VWidth: 1000
Flags: HW
Fore
678 0 m 1
 791 526 l 2
 810 615 791 682 735 727 c 1
 690 768 622 788 530 788 c 0
 468 788 404 771 340 737 c 0
 302 718 269 697 242 675 c 0
 214 652 193 627 178 600 c 1
 253 600 309 586 344 559 c 1
 262 537 212 483 195 395 c 1
 137 127 l 2
 128 83 132 49 151 25 c 0
 169 0 202 -12 250 -12 c 0
 336 -12 388 29 406 113 c 0
 412 145 410 174 397 200 c 0
 385 225 365 238 336 238 c 0
 321 238 307 235 293 230 c 0
 279 226 269 219 262 211 c 1
 307 424 l 2
 314 455 328 481 349 502 c 0
 370 522 395 537 422 545 c 1
 390 605 340 635 270 635 c 1
 336 692 417 721 514 721 c 0
 573 721 618 703 651 668 c 0
 684 632 694 585 682 526 c 2
 569 0 l 1
 678 0 l 1
369 113 m 0
 362 85 350 65 334 51 c 0
 317 38 302 31 287 31 c 0
 270 31 258 39 250 54 c 0
 242 70 240 89 246 113 c 0
 251 140 262 160 279 173 c 0
 295 186 311 193 326 193 c 0
 343 193 356 184 362 166 c 0
 369 148 371 130 369 113 c 0
EndSplineSet
EndChar
StartChar: uni0E17
Encoding: 119 3607
OldEncoding: 3607
Width: 876
VWidth: 1000
Flags: HW
Fore
737 0 m 1
 631 0 l 1
 766 639 l 1
 771 659 770 675 761 686 c 0
 752 697 739 702 723 702 c 0
 704 702 686 695 671 680 c 0
 655 665 635 634 610 586 c 2
 305 0 l 1
 190 0 l 1
 309 559 l 1
 291 543 269 535 242 535 c 0
 214 535 194 546 180 568 c 0
 167 591 163 619 170 653 c 0
 178 692 196 724 223 750 c 0
 251 776 287 788 332 788 c 0
 380 788 411 776 426 750 c 0
 441 724 444 689 434 645 c 2
 334 172 l 1
 334 172 339 181 348 199 c 0
 358 216 370 240 386 268 c 0
 402 297 419 329 438 365 c 0
 495 470 l 0
 513 505 531 538 548 569 c 0
 565 601 580 627 592 647 c 0
 619 695 650 730 683 754 c 0
 716 777 749 788 780 788 c 0
 820 788 848 777 864 753 c 0
 881 729 885 697 877 657 c 2
 737 0 l 1
328 659 m 0
 333 683 332 702 325 717 c 0
 317 732 305 739 289 739 c 0
 278 739 264 733 247 719 c 0
 230 705 218 685 211 657 c 0
 208 641 209 623 213 603 c 0
 217 583 230 573 252 573 c 0
 268 573 283 581 297 595 c 0
 311 609 321 631 328 659 c 0
EndSplineSet
EndChar
StartChar: uni0E18
Encoding: 120 3608
OldEncoding: 3608
Width: 737
VWidth: 1000
Flags: HW
Fore
627 401 m 1
 634 438 630 471 615 499 c 0
 601 527 578 550 547 569 c 0
 521 584 490 596 454 603 c 0
 417 611 380 614 340 614 c 2
 305 614 l 1
 258 610 l 1
 291 669 346 698 424 698 c 0
 449 698 483 691 528 676 c 0
 573 659 608 651 631 651 c 0
 709 651 769 694 811 778 c 1
 768 778 l 1
 742 737 707 717 662 717 c 1
 557 764 l 2
 524 780 488 788 449 788 c 0
 420 788 392 783 365 771 c 0
 337 759 312 744 289 724 c 0
 266 704 245 681 226 655 c 0
 208 629 193 601 182 571 c 1
 195 571 206 571 217 571 c 0
 229 571 241 571 252 569 c 1
 139 39 l 1
 86 39 l 1
 78 0 l 1
 451 0 l 2
 511 0 549 38 565 113 c 2
 627 401 l 1
459 113 m 2
 453 88 442 70 425 57 c 0
 408 45 388 39 367 39 c 2
 246 39 l 1
 356 557 l 1
 391 549 l 2
 431 535 464 516 490 492 c 0
 517 467 526 436 518 399 c 1
 459 113 l 2
EndSplineSet
EndChar
StartChar: uni0E19
Encoding: 121 3609
OldEncoding: 3609
Width: 935
VWidth: 1000
Flags: HW
Fore
879 164 m 0
 888 208 881 245 857 275 c 0
 833 306 801 326 762 334 c 1
 854 772 l 1
 748 772 l 1
 655 338 l 1
 598 330 540 312 482 285 c 0
 424 257 378 218 342 168 c 1
 444 645 l 2
 454 689 451 724 436 750 c 0
 421 776 390 788 342 788 c 0
 297 788 261 776 233 750 c 0
 206 724 188 692 180 653 c 0
 173 619 177 591 190 568 c 0
 204 546 225 535 252 535 c 0
 279 535 302 543 319 559 c 1
 201 0 l 1
 307 0 l 1
 351 82 403 146 465 193 c 0
 526 239 586 268 643 279 c 1
 606 109 l 2
 603 96 603 83 604 70 c 0
 606 56 609 43 615 32 c 0
 622 20 630 10 642 2 c 0
 654 -6 668 -10 686 -10 c 0
 735 -10 777 4 810 33 c 0
 843 61 866 105 879 164 c 0
829 154 m 0
 823 122 812 99 797 85 c 0
 782 71 765 63 748 63 c 0
 735 63 726 68 719 76 c 0
 712 84 711 96 715 113 c 1
 750 279 l 1
 777 270 799 256 815 234 c 0
 831 213 836 186 829 154 c 0
338 659 m 0
 331 631 321 609 307 595 c 0
 294 581 279 573 262 573 c 0
 240 573 227 583 223 603 c 0
 219 623 218 641 221 657 c 0
 228 685 240 705 257 719 c 0
 274 733 288 739 299 739 c 0
 315 739 327 732 335 717 c 0
 342 702 343 683 338 659 c 0
EndSplineSet
EndChar
StartChar: uni0E1A
Encoding: 122 3610
OldEncoding: 3610
Width: 845
VWidth: 1000
Flags: HW
Fore
731 113 m 1
 870 772 l 1
 764 772 l 1
 625 113 l 2
 619 88 608 70 591 57 c 0
 574 45 555 39 535 39 c 2
 305 39 l 1
 434 645 l 2
 444 689 441 724 426 750 c 0
 411 776 380 788 332 788 c 0
 287 788 251 776 223 750 c 0
 196 724 178 692 170 653 c 0
 163 619 167 591 180 568 c 0
 194 546 214 535 242 535 c 0
 269 535 291 543 309 559 c 1
 199 39 l 1
 125 39 l 1
 117 0 l 1
 616 0 l 2
 677 0 715 38 731 113 c 1
328 659 m 0
 321 631 311 609 297 595 c 0
 283 581 268 573 252 573 c 0
 230 573 217 583 213 603 c 0
 209 623 208 641 211 657 c 0
 218 685 230 705 247 719 c 0
 264 733 278 739 289 739 c 0
 305 739 317 732 325 717 c 0
 332 702 333 683 328 659 c 0
EndSplineSet
EndChar
StartChar: uni0E1B
Encoding: 123 3611
OldEncoding: 3611
Width: 845
VWidth: 1000
Flags: HW
Fore
731 113 m 1
 942 1110 l 1
 836 1110 l 1
 625 113 l 2
 619 88 608 70 591 57 c 0
 574 45 555 39 535 39 c 2
 305 39 l 1
 434 645 l 2
 444 689 441 724 426 750 c 0
 411 776 380 788 332 788 c 0
 287 788 251 776 223 750 c 0
 196 724 178 692 170 653 c 0
 163 619 167 591 180 568 c 0
 194 546 214 535 242 535 c 0
 269 535 291 543 309 559 c 1
 199 39 l 1
 125 39 l 1
 117 0 l 1
 616 0 l 2
 677 0 715 38 731 113 c 1
328 659 m 0
 321 631 311 609 297 595 c 0
 283 581 268 573 252 573 c 0
 230 573 217 583 213 603 c 0
 209 623 208 641 211 657 c 0
 218 685 230 705 247 719 c 0
 264 733 278 739 289 739 c 0
 305 739 317 732 325 717 c 0
 332 702 333 683 328 659 c 0
EndSplineSet
EndChar
StartChar: uni0E1C
Encoding: 124 3612
OldEncoding: 3612
Width: 831
VWidth: 1000
Flags: HW
Fore
692 0 m 1
 856 772 l 1
 750 772 l 1
 608 109 l 1
 469 457 l 1
 188 98 l 1
 287 559 l 1
 294 550 302 543 312 540 c 0
 323 536 334 535 346 535 c 0
 373 535 400 546 425 568 c 0
 450 591 466 619 473 653 c 0
 481 692 477 724 461 750 c 0
 444 776 414 788 369 788 c 0
 321 788 283 776 255 750 c 0
 227 724 208 689 199 645 c 2
 61 0 l 1
 178 0 l 1
 446 350 l 1
 590 0 l 1
 692 0 l 1
309 659 m 0
 315 683 325 702 341 717 c 0
 357 732 373 739 389 739 c 0
 400 739 412 733 424 719 c 0
 436 705 439 685 432 657 c 0
 429 641 422 623 409 603 c 0
 396 583 378 573 356 573 c 0
 340 573 326 581 315 595 c 0
 304 609 302 631 309 659 c 0
EndSplineSet
EndChar
StartChar: uni0E1D
Encoding: 125 3613
OldEncoding: 3613
Width: 831
VWidth: 1000
Flags: HW
Fore
692 0 m 1
 928 1110 l 1
 821 1110 l 1
 608 109 l 1
 469 457 l 1
 188 98 l 1
 287 559 l 1
 294 550 302 543 312 540 c 0
 323 536 334 535 346 535 c 0
 373 535 400 546 425 568 c 0
 450 591 466 619 473 653 c 0
 481 692 477 724 461 750 c 0
 444 776 414 788 369 788 c 0
 321 788 283 776 255 750 c 0
 227 724 208 689 199 645 c 2
 61 0 l 1
 178 0 l 1
 446 350 l 1
 590 0 l 1
 692 0 l 1
309 659 m 0
 315 683 325 702 341 717 c 0
 357 732 373 739 389 739 c 0
 400 739 412 733 424 719 c 0
 436 705 439 685 432 657 c 0
 429 641 422 623 409 603 c 0
 396 583 378 573 356 573 c 0
 340 573 326 581 315 595 c 0
 304 609 302 631 309 659 c 0
EndSplineSet
EndChar
StartChar: uni0E1E
Encoding: 126 3614
OldEncoding: 3614
Width: 913
VWidth: 1000
Flags: HW
Fore
434 645 m 2
 444 689 441 724 426 750 c 0
 411 776 380 788 332 788 c 0
 287 788 251 776 223 750 c 0
 196 724 178 692 170 653 c 0
 163 619 167 591 180 568 c 0
 194 546 214 535 242 535 c 0
 269 535 291 543 309 559 c 1
 190 0 l 1
 311 0 l 1
 608 584 l 1
 651 0 l 1
 774 0 l 1
 938 772 l 1
 831 772 l 1
 696 137 l 1
 647 772 l 1
 326 137 l 1
 434 645 l 2
328 659 m 0
 321 631 311 609 297 595 c 0
 283 581 268 573 252 573 c 0
 230 573 217 583 213 603 c 0
 209 623 208 641 211 657 c 0
 218 685 230 705 247 719 c 0
 264 733 278 739 289 739 c 0
 305 739 317 732 325 717 c 0
 332 702 333 683 328 659 c 0
EndSplineSet
EndChar
StartChar: uni0E1F
Encoding: 127 3615
OldEncoding: 3615
Width: 913
VWidth: 1000
Flags: HW
Fore
434 645 m 2
 444 689 441 724 426 750 c 0
 411 776 380 788 332 788 c 0
 287 788 251 776 223 750 c 0
 196 724 178 692 170 653 c 0
 163 619 167 591 180 568 c 0
 194 546 214 535 242 535 c 0
 269 535 291 543 309 559 c 1
 190 0 l 1
 311 0 l 1
 608 584 l 1
 651 0 l 1
 774 0 l 1
 1010 1110 l 1
 903 1110 l 1
 696 137 l 1
 647 772 l 1
 326 137 l 1
 434 645 l 2
328 659 m 0
 321 631 311 609 297 595 c 0
 283 581 268 573 252 573 c 0
 230 573 217 583 213 603 c 0
 209 623 208 641 211 657 c 0
 218 685 230 705 247 719 c 0
 264 733 278 739 289 739 c 0
 305 739 317 732 325 717 c 0
 332 702 333 683 328 659 c 0
EndSplineSet
EndChar
StartChar: uni0E20
Encoding: 128 3616
OldEncoding: 3616
Width: 872
VWidth: 1000
Flags: HW
Fore
733 0 m 1
 846 526 l 2
 865 618 848 686 795 731 c 0
 771 752 748 766 723 775 c 0
 698 784 663 788 616 788 c 0
 554 788 490 771 426 737 c 0
 388 718 358 698 336 678 c 0
 314 657 290 631 264 600 c 1
 339 600 395 586 430 559 c 1
 347 536 296 481 279 395 c 2
 240 211 l 1
 237 221 230 227 219 231 c 0
 208 236 195 238 180 238 c 0
 152 238 126 225 104 200 c 0
 83 174 68 145 61 113 c 0
 44 29 78 -12 164 -12 c 0
 212 -12 248 0 274 25 c 0
 300 49 318 83 328 127 c 2
 391 424 l 2
 398 455 412 481 434 502 c 0
 456 522 481 537 508 545 c 1
 477 605 426 635 356 635 c 1
 422 692 503 721 600 721 c 0
 659 721 700 703 723 668 c 0
 746 632 752 585 739 526 c 2
 627 0 l 1
 733 0 l 1
98 113 m 0
 101 130 109 148 123 166 c 0
 137 184 152 193 170 193 c 0
 185 193 198 186 208 173 c 0
 218 160 221 140 215 113 c 0
 210 89 200 70 185 54 c 0
 171 39 156 31 139 31 c 0
 124 31 112 38 102 51 c 0
 93 65 91 85 98 113 c 0
EndSplineSet
EndChar
StartChar: uni0E21
Encoding: 129 3617
OldEncoding: 3617
Width: 839
VWidth: 1000
Flags: HW
Fore
700 0 m 1
 864 772 l 1
 758 772 l 1
 629 164 l 1
 610 216 580 256 539 285 c 0
 498 313 451 330 399 336 c 1
 465 645 l 2
 474 689 471 724 454 750 c 0
 437 776 406 788 362 788 c 0
 317 788 281 776 254 750 c 0
 227 724 209 692 201 653 c 0
 194 619 197 591 211 568 c 0
 225 546 245 535 272 535 c 0
 300 535 322 543 340 559 c 1
 293 334 l 1
 190 309 129 248 109 150 c 0
 98 103 103 65 124 35 c 0
 145 5 178 -10 223 -10 c 0
 291 -10 334 29 350 109 c 1
 387 279 l 1
 440 268 485 239 522 193 c 0
 559 146 581 82 588 0 c 1
 700 0 l 1
250 133 m 1
 240 92 220 72 188 72 c 0
 158 72 148 96 158 145 c 0
 174 221 215 265 281 279 c 1
 250 133 l 1
358 659 m 0
 352 631 341 609 328 595 c 0
 314 581 299 573 283 573 c 0
 261 573 248 583 244 603 c 0
 240 623 239 641 242 657 c 0
 248 685 260 705 278 719 c 0
 295 733 309 739 319 739 c 0
 336 739 348 732 355 717 c 0
 363 702 364 683 358 659 c 0
EndSplineSet
EndChar
StartChar: uni0E22
Encoding: 130 3618
OldEncoding: 3618
Width: 759
VWidth: 1000
Flags: HW
Fore
653 158 m 2
 784 772 l 1
 678 772 l 1
 547 158 l 2
 543 139 534 121 521 105 c 0
 508 90 493 76 475 66 c 0
 457 55 438 46 417 40 c 0
 396 34 375 31 354 31 c 0
 315 31 281 42 254 65 c 0
 227 87 217 118 225 158 c 2
 246 254 l 2
 265 341 315 391 397 403 c 0
 411 408 419 413 422 420 c 0
 422 429 415 434 401 434 c 0
 370 434 344 446 325 470 c 0
 305 494 298 522 305 553 c 1
 307 559 l 1
 318 543 337 535 362 535 c 0
 390 535 416 546 440 568 c 0
 465 591 481 619 487 653 c 0
 496 692 493 724 478 750 c 0
 464 776 434 788 389 788 c 0
 341 788 303 776 275 750 c 0
 247 724 229 689 219 645 c 2
 203 567 l 2
 195 529 198 497 213 472 c 0
 228 447 259 427 305 414 c 1
 256 399 218 378 191 351 c 0
 165 325 147 291 139 250 c 1
 119 158 l 2
 112 129 113 104 123 82 c 0
 132 60 152 41 182 25 c 0
 204 14 229 5 257 -2 c 0
 285 -9 315 -12 348 -12 c 0
 380 -12 410 -9 439 -2 c 0
 469 5 498 14 528 25 c 1
 599 57 641 102 653 158 c 2
330 659 m 0
 335 683 345 702 359 717 c 0
 374 732 389 739 406 739 c 0
 416 739 428 733 439 719 c 0
 451 705 453 685 446 657 c 0
 444 641 436 623 424 603 c 0
 412 583 395 573 373 573 c 0
 356 573 343 581 334 595 c 0
 324 609 323 631 330 659 c 0
EndSplineSet
EndChar
StartChar: uni0E23
Encoding: 131 3619
OldEncoding: 3619
Width: 645
VWidth: 1000
Flags: HW
Fore
399 203 m 1
 397 212 390 219 379 223 c 0
 368 227 355 229 340 229 c 0
 311 229 286 217 264 191 c 0
 242 166 228 137 221 104 c 0
 203 21 238 -20 324 -20 c 0
 371 -20 408 -8 434 16 c 0
 460 41 478 75 487 119 c 2
 549 401 l 1
 556 438 555 471 548 499 c 0
 540 527 521 550 489 569 c 0
 464 584 436 596 408 603 c 0
 379 611 345 614 305 614 c 2
 270 614 l 1
 223 610 l 1
 238 634 258 654 283 672 c 0
 307 689 339 698 379 698 c 0
 391 698 405 696 421 692 c 0
 437 688 455 683 477 676 c 0
 522 659 554 651 573 651 c 0
 649 651 707 694 750 778 c 1
 707 778 l 1
 681 737 646 717 604 717 c 1
 506 764 l 2
 473 780 438 788 401 788 c 0
 373 788 345 782 318 770 c 0
 292 758 267 741 244 719 c 0
 221 697 200 672 181 644 c 0
 163 616 148 586 137 553 c 1
 185 553 225 552 257 551 c 0
 289 550 317 545 342 539 c 0
 382 525 410 508 427 486 c 0
 444 465 449 436 440 399 c 1
 399 203 l 1
258 104 m 0
 261 122 269 140 283 158 c 0
 296 175 312 184 330 184 c 0
 345 184 357 178 368 165 c 0
 378 152 380 132 375 104 c 0
 369 81 359 62 345 46 c 0
 331 30 315 23 299 23 c 0
 284 23 272 29 262 43 c 0
 253 57 251 77 258 104 c 0
EndSplineSet
EndChar
StartChar: uni0E24
Encoding: 132 3620
OldEncoding: 3620
Width: 827
VWidth: 1000
Flags: HW
Fore
618 -328 m 1
 801 526 l 2
 820 615 801 682 745 727 c 1
 700 768 632 788 541 788 c 0
 478 788 414 771 350 737 c 0
 312 718 279 697 252 675 c 0
 225 652 203 627 188 600 c 1
 264 600 319 586 354 559 c 1
 271 536 221 481 203 395 c 1
 145 127 l 2
 136 83 139 49 156 25 c 0
 172 0 204 -12 252 -12 c 0
 338 -12 390 29 408 113 c 0
 414 145 412 174 401 200 c 0
 390 225 371 238 342 238 c 0
 327 238 313 236 300 231 c 0
 287 227 277 221 270 211 c 1
 315 424 l 2
 322 455 337 481 358 502 c 0
 380 522 405 537 432 545 c 1
 401 605 350 635 281 635 c 1
 346 692 427 721 524 721 c 0
 583 721 629 703 663 668 c 0
 696 632 707 585 694 526 c 2
 512 -328 l 1
 618 -328 l 1
371 113 m 0
 364 85 353 65 338 51 c 0
 323 38 308 31 293 31 c 0
 276 31 265 39 257 54 c 0
 250 70 248 89 254 113 c 0
 259 140 270 160 286 173 c 0
 301 186 317 193 332 193 c 0
 350 193 361 184 367 166 c 0
 372 148 373 130 371 113 c 0
EndSplineSet
EndChar
StartChar: uni0E25
Encoding: 133 3621
OldEncoding: 3621
Width: 778
VWidth: 1000
Flags: HW
Fore
639 0 m 1
 756 547 l 2
 773 631 756 694 705 735 c 0
 664 771 599 788 510 788 c 0
 379 788 272 726 188 602 c 1
 213 592 l 1
 294 678 386 721 489 721 c 0
 552 721 598 706 626 677 c 0
 654 648 661 603 647 543 c 2
 625 438 l 1
 607 474 582 500 549 518 c 0
 516 536 478 545 434 545 c 0
 370 545 316 527 272 492 c 0
 229 456 199 406 184 342 c 1
 141 131 l 1
 130 87 133 53 150 29 c 0
 166 4 198 -8 246 -8 c 0
 332 -8 384 33 401 117 c 0
 408 147 406 175 394 202 c 0
 383 228 362 242 332 242 c 0
 300 242 278 233 264 215 c 1
 295 352 l 2
 304 396 322 429 347 451 c 0
 372 472 405 483 444 483 c 0
 491 483 528 469 555 441 c 0
 582 413 597 371 600 313 c 1
 532 0 l 1
 639 0 l 1
365 117 m 0
 359 89 349 69 334 55 c 0
 319 42 304 35 289 35 c 0
 272 35 260 43 252 58 c 0
 244 74 242 94 248 117 c 0
 255 144 265 164 279 177 c 0
 292 190 307 197 322 197 c 0
 341 197 354 188 360 170 c 0
 367 152 369 134 365 117 c 0
EndSplineSet
EndChar
StartChar: uni0E26
Encoding: 134 3622
OldEncoding: 3622
Width: 876
VWidth: 1000
Flags: HW
Fore
668 -328 m 1
 850 526 l 2
 869 618 852 686 799 731 c 0
 776 752 752 766 727 775 c 0
 702 784 667 788 621 788 c 0
 558 788 494 771 430 737 c 0
 392 718 359 697 332 675 c 0
 304 652 283 627 268 600 c 1
 343 600 399 586 434 559 c 1
 351 536 300 481 283 395 c 2
 244 211 l 1
 241 221 234 227 223 231 c 0
 212 236 199 238 184 238 c 0
 156 238 130 225 109 200 c 0
 87 174 72 145 66 113 c 0
 48 29 82 -12 168 -12 c 0
 216 -12 253 0 279 25 c 0
 304 49 322 83 332 127 c 2
 395 424 l 2
 402 455 416 481 438 502 c 0
 460 522 485 537 512 545 c 1
 481 605 430 635 360 635 c 1
 426 692 507 721 604 721 c 0
 663 721 704 703 727 668 c 0
 750 632 756 585 743 526 c 2
 561 -328 l 1
 668 -328 l 1
102 113 m 0
 105 130 113 148 127 166 c 0
 141 184 156 193 174 193 c 0
 189 193 202 186 212 173 c 0
 222 160 225 140 219 113 c 0
 214 89 204 70 189 54 c 0
 175 39 160 31 143 31 c 0
 128 31 116 38 106 51 c 0
 97 65 96 85 102 113 c 0
EndSplineSet
EndChar
StartChar: uni0E27
Encoding: 135 3623
OldEncoding: 3623
Width: 671
VWidth: 1000
Flags: HW
Fore
471 211 m 1
 468 221 461 227 451 231 c 0
 440 236 427 238 412 238 c 0
 386 238 361 226 338 202 c 0
 315 178 300 148 293 113 c 0
 275 29 309 -12 395 -12 c 0
 443 -12 480 0 506 25 c 0
 532 49 550 83 559 127 c 2
 655 573 l 2
 662 605 662 634 653 660 c 0
 645 687 628 711 602 731 c 0
 556 769 501 788 438 788 c 0
 311 788 205 729 119 610 c 1
 137 596 l 1
 212 679 294 721 383 721 c 0
 409 721 433 717 455 709 c 0
 477 700 495 689 510 674 c 0
 525 659 536 641 542 621 c 0
 548 600 548 577 543 551 c 2
 471 211 l 1
330 113 m 0
 332 130 341 148 354 166 c 0
 368 184 384 193 401 193 c 0
 416 193 429 186 439 173 c 0
 450 160 452 140 446 113 c 0
 441 89 431 70 417 54 c 0
 402 39 387 31 371 31 c 0
 356 31 343 38 334 51 c 0
 324 65 323 85 330 113 c 0
EndSplineSet
EndChar
StartChar: uni0E28
Encoding: 136 3624
OldEncoding: 3624
Width: 841
VWidth: 1000
Flags: HW
Fore
774 666 m 1
 793 687 811 712 828 738 c 0
 845 765 862 796 879 831 c 1
 752 831 l 1
 750 825 749 817 748 810 c 0
 746 802 744 795 741 788 c 0
 739 779 736 770 732 762 c 0
 729 754 726 745 723 737 c 0
 722 737 721 737 721 737 c 2
 721 739 721 739 721 739 c 1
 676 772 612 788 530 788 c 0
 435 788 355 767 291 725 c 0
 217 679 170 608 150 514 c 0
 147 496 147 473 151 443 c 0
 154 414 162 375 174 328 c 0
 186 283 194 239 197 198 c 0
 199 156 197 118 190 84 c 1
 184 61 l 1
 168 0 l 1
 274 0 l 1
 287 31 297 68 305 109 c 0
 312 136 317 162 322 188 c 0
 326 214 330 238 334 260 c 0
 337 275 340 289 345 301 c 0
 350 313 354 324 358 332 c 1
 369 321 385 315 406 315 c 0
 437 315 465 329 488 355 c 0
 512 382 527 410 532 438 c 0
 541 474 539 504 526 528 c 0
 514 553 491 565 457 565 c 0
 417 565 379 550 342 518 c 0
 305 487 278 429 260 344 c 1
 249 377 239 406 229 432 c 0
 220 458 218 487 225 518 c 0
 240 593 272 646 319 676 c 0
 367 706 432 721 514 721 c 0
 536 721 557 716 578 708 c 0
 598 699 616 687 631 673 c 0
 646 658 657 642 665 624 c 0
 672 605 674 586 670 565 c 2
 549 0 l 1
 655 0 l 1
 776 565 l 1
 784 601 784 634 774 666 c 1
383 438 m 0
 390 464 400 484 414 497 c 0
 427 510 442 516 457 516 c 0
 469 516 479 510 487 497 c 0
 496 484 496 464 489 438 c 0
 485 416 477 397 463 381 c 0
 449 365 434 356 418 356 c 0
 407 356 397 362 387 374 c 0
 378 385 376 407 383 438 c 0
EndSplineSet
EndChar
StartChar: uni0E29
Encoding: 137 3625
OldEncoding: 3625
Width: 1003
VWidth: 1000
Flags: HW
Fore
434 645 m 2
 444 689 440 724 423 750 c 0
 406 776 375 788 332 788 c 0
 287 788 251 776 223 750 c 0
 196 724 178 692 170 653 c 0
 163 619 167 591 180 568 c 0
 194 546 214 535 242 535 c 0
 269 535 291 543 309 559 c 1
 199 39 l 1
 123 39 l 1
 115 0 l 1
 668 0 l 2
 689 0 713 12 737 37 c 0
 747 48 754 60 759 73 c 0
 764 86 767 99 770 113 c 2
 819 348 l 1
 913 414 971 498 991 602 c 1
 915 602 l 1
 903 539 877 483 838 432 c 1
 909 774 l 1
 803 774 l 1
 713 350 l 1
 705 347 694 345 680 343 c 0
 666 341 654 340 643 340 c 0
 624 340 606 343 590 349 c 0
 573 355 560 367 551 383 c 1
 569 381 l 2
 597 381 620 392 640 415 c 0
 660 437 673 463 680 492 c 0
 687 520 684 546 673 568 c 0
 661 591 642 602 614 602 c 0
 534 602 485 562 469 481 c 0
 464 457 464 433 469 411 c 0
 474 388 484 369 497 352 c 0
 510 336 526 323 546 312 c 0
 566 302 587 297 610 297 c 0
 627 297 642 297 656 298 c 0
 671 299 687 301 705 305 c 1
 664 113 l 2
 658 88 648 70 632 57 c 0
 616 45 598 39 578 39 c 2
 305 39 l 1
 434 645 l 2
328 659 m 0
 321 631 311 609 297 595 c 0
 283 581 268 573 252 573 c 0
 230 573 217 583 213 603 c 0
 209 623 208 641 211 657 c 0
 218 685 230 705 247 719 c 0
 264 733 278 739 289 739 c 0
 305 739 317 732 325 717 c 0
 332 702 333 683 328 659 c 0
641 492 m 0
 626 441 604 416 575 416 c 0
 544 420 534 445 545 492 c 0
 550 516 559 534 570 546 c 0
 582 557 594 563 606 563 c 0
 624 563 635 556 640 541 c 0
 645 526 645 509 641 492 c 0
EndSplineSet
EndChar
StartChar: uni0E2A
Encoding: 138 3626
OldEncoding: 3626
Width: 831
VWidth: 1000
Flags: HW
Fore
639 0 m 1
 756 547 l 1
 765 589 766 624 758 651 c 1
 777 674 795 701 813 730 c 0
 831 759 849 793 868 829 c 1
 741 829 l 1
 735 810 729 793 724 777 c 0
 719 762 713 746 707 731 c 1
 702 735 l 2
 662 771 597 788 510 788 c 0
 379 788 272 726 188 602 c 1
 213 592 l 1
 294 678 386 721 489 721 c 0
 552 721 598 706 626 677 c 0
 654 648 661 603 647 543 c 2
 625 438 l 1
 607 474 582 500 549 518 c 0
 516 536 478 545 434 545 c 0
 370 545 316 527 272 492 c 0
 229 456 199 406 184 342 c 1
 141 131 l 1
 130 87 133 53 150 29 c 0
 166 4 198 -8 246 -8 c 0
 332 -8 384 33 401 117 c 0
 408 147 406 175 394 202 c 0
 383 228 362 242 332 242 c 0
 300 242 278 233 264 215 c 1
 295 352 l 2
 304 396 322 429 347 451 c 0
 372 472 405 483 444 483 c 0
 491 483 528 469 555 441 c 0
 582 413 597 371 600 313 c 1
 532 0 l 1
 639 0 l 1
365 117 m 0
 359 89 349 69 334 55 c 0
 319 42 304 35 289 35 c 0
 272 35 260 43 252 58 c 0
 244 74 242 94 248 117 c 0
 255 144 265 164 279 177 c 0
 292 190 307 197 322 197 c 0
 341 197 354 188 360 170 c 0
 367 152 369 134 365 117 c 0
EndSplineSet
EndChar
StartChar: uni0E2B
Encoding: 139 3627
OldEncoding: 3627
Width: 888
VWidth: 1000
Flags: HW
Fore
434 645 m 2
 444 689 441 724 426 750 c 0
 411 776 380 788 332 788 c 0
 287 788 251 776 223 750 c 0
 196 724 178 692 170 653 c 0
 163 619 167 591 180 568 c 0
 194 546 214 535 242 535 c 0
 269 535 291 543 309 559 c 1
 190 0 l 1
 307 0 l 1
 514 367 l 2
 529 394 545 416 563 434 c 0
 581 452 599 466 616 476 c 0
 634 486 652 494 669 500 c 0
 686 505 701 509 715 512 c 1
 720 505 725 496 729 485 c 0
 733 474 734 462 731 449 c 2
 635 0 l 1
 741 0 l 1
 836 440 l 1
 842 474 841 499 830 515 c 0
 820 531 812 541 805 547 c 1
 827 554 845 568 859 590 c 0
 873 612 884 636 891 662 c 0
 900 705 897 737 881 758 c 0
 864 778 838 788 803 788 c 0
 769 788 740 777 716 755 c 0
 692 732 676 701 668 662 c 0
 662 638 661 619 665 604 c 0
 668 589 677 573 690 555 c 1
 646 543 607 524 570 500 c 0
 534 475 500 434 467 377 c 2
 324 121 l 1
 434 645 l 2
328 659 m 0
 321 631 311 609 297 595 c 0
 283 581 268 573 252 573 c 0
 230 573 217 583 213 603 c 0
 209 623 208 641 211 657 c 0
 218 685 230 705 247 719 c 0
 264 733 278 739 289 739 c 0
 305 739 317 732 325 717 c 0
 332 702 333 683 328 659 c 0
827 662 m 0
 821 641 813 624 805 610 c 0
 797 597 782 586 760 580 c 1
 745 586 733 596 724 608 c 0
 715 621 713 638 719 662 c 0
 728 713 753 739 793 739 c 0
 810 739 822 732 827 718 c 0
 833 703 833 685 827 662 c 0
EndSplineSet
EndChar
StartChar: uni0E2C
Encoding: 140 3628
OldEncoding: 3628
Width: 958
VWidth: 1000
Flags: HW
Fore
1124 973 m 1
 1034 973 l 1
 1030 958 l 1
 1023 926 1012 896 995 869 c 0
 979 843 963 827 948 823 c 1
 954 850 l 2
 963 888 957 918 939 940 c 0
 921 962 892 973 854 973 c 0
 776 973 729 933 713 854 c 0
 705 814 711 784 732 763 c 0
 753 742 784 731 823 731 c 1
 696 137 l 1
 635 709 l 1
 326 137 l 1
 434 645 l 2
 444 689 441 724 426 750 c 0
 411 776 380 788 332 788 c 0
 287 788 251 776 223 750 c 0
 196 724 178 692 170 653 c 0
 163 619 167 591 180 568 c 0
 194 546 214 535 242 535 c 0
 269 535 291 543 309 559 c 1
 190 0 l 1
 311 0 l 1
 594 520 l 1
 651 0 l 1
 774 0 l 1
 936 758 l 1
 1044 811 1107 883 1124 973 c 1
328 659 m 0
 321 631 311 609 297 595 c 0
 283 581 268 573 252 573 c 0
 230 573 217 583 213 603 c 0
 209 623 208 641 211 657 c 0
 218 685 230 705 247 719 c 0
 264 733 278 739 289 739 c 0
 305 739 317 732 325 717 c 0
 332 702 333 683 328 659 c 0
834 776 m 1
 769 776 743 802 756 854 c 0
 763 877 771 894 780 903 c 0
 793 917 806 924 821 924 c 0
 850 924 861 908 854 877 c 2
 834 776 l 1
EndSplineSet
EndChar
StartChar: uni0E2D
Encoding: 141 3629
OldEncoding: 3629
Width: 788
VWidth: 1000
Flags: HW
Fore
190 391 m 2
 139 158 l 1
 128 99 152 55 211 25 c 0
 253 1 309 -10 377 -10 c 0
 406 -10 435 -7 465 -1 c 0
 495 5 525 15 555 29 c 0
 629 63 671 106 682 158 c 2
 770 567 l 2
 786 644 765 702 705 741 c 0
 658 773 593 788 508 788 c 0
 373 788 266 726 188 602 c 1
 213 590 l 1
 253 634 296 666 343 688 c 0
 390 710 438 721 487 721 c 0
 549 721 596 706 629 677 c 0
 662 648 672 604 659 547 c 2
 578 160 l 2
 573 141 565 123 552 108 c 0
 539 92 523 79 505 68 c 0
 486 57 466 48 444 42 c 0
 423 36 401 33 381 33 c 0
 341 33 307 44 279 67 c 0
 250 89 240 120 248 160 c 2
 279 311 l 1
 289 295 309 287 336 287 c 0
 363 287 389 298 413 321 c 0
 437 343 452 371 459 406 c 0
 467 444 463 476 446 502 c 0
 430 528 399 541 354 541 c 0
 316 541 282 527 251 499 c 0
 220 471 200 435 190 391 c 2
303 412 m 0
 309 435 318 454 332 469 c 0
 345 484 360 492 377 492 c 0
 388 492 399 485 411 471 c 0
 422 457 425 437 420 410 c 0
 416 393 408 375 395 355 c 0
 383 336 366 326 344 326 c 0
 328 326 315 333 306 347 c 0
 297 361 296 383 303 412 c 0
EndSplineSet
EndChar
StartChar: uni0E2E
Encoding: 142 3630
OldEncoding: 3630
Width: 798
VWidth: 1000
Flags: HW
Fore
180 360 m 2
 137 158 l 1
 126 99 150 55 209 25 c 0
 251 1 307 -10 375 -10 c 0
 403 -10 433 -7 463 -1 c 0
 493 5 523 15 553 29 c 0
 627 63 669 106 680 158 c 2
 768 567 l 2
 780 625 771 670 741 705 c 1
 760 720 779 740 797 766 c 0
 814 792 829 820 840 850 c 1
 745 850 l 1
 736 816 717 782 688 750 c 1
 665 762 639 771 610 778 c 0
 582 785 548 788 510 788 c 0
 470 788 430 783 389 772 c 0
 348 761 314 748 287 733 c 0
 266 721 247 707 229 690 c 0
 212 674 201 656 197 637 c 0
 195 634 195 631 196 627 c 0
 196 623 197 619 197 616 c 0
 202 592 217 576 242 568 c 0
 266 561 293 557 322 557 c 0
 338 557 354 558 369 559 c 0
 384 560 397 562 410 563 c 0
 478 571 556 597 643 639 c 1
 653 628 658 614 659 598 c 0
 661 582 660 565 657 547 c 1
 575 160 l 2
 571 141 563 123 550 108 c 0
 537 92 521 79 503 68 c 0
 484 57 464 48 442 42 c 0
 421 36 399 33 379 33 c 0
 339 33 305 44 276 67 c 0
 248 89 238 120 246 160 c 2
 270 281 l 1
 281 264 300 256 328 256 c 0
 355 256 381 267 404 290 c 0
 428 312 444 341 451 375 c 0
 459 413 455 445 438 471 c 0
 422 497 391 510 346 510 c 0
 307 510 271 496 241 468 c 0
 210 440 190 404 180 360 c 2
612 682 m 1
 584 662 554 645 522 633 c 0
 491 621 458 610 424 602 c 0
 414 599 402 597 386 596 c 0
 370 595 354 594 338 594 c 0
 316 594 297 596 280 599 c 0
 262 602 253 610 250 621 c 0
 250 627 251 632 252 635 c 0
 256 654 273 671 303 686 c 0
 335 701 367 711 400 715 c 0
 434 719 464 721 492 721 c 0
 542 721 582 708 612 682 c 1
295 381 m 0
 299 404 308 423 323 438 c 0
 337 453 352 461 369 461 c 0
 380 461 391 454 402 440 c 0
 414 427 416 406 410 379 c 0
 407 362 399 344 387 325 c 0
 375 305 358 295 336 295 c 0
 319 295 307 302 298 316 c 0
 289 331 288 352 295 381 c 0
EndSplineSet
EndChar
StartChar: uni0E2F
Encoding: 143 3631
OldEncoding: 3631
Width: 751
VWidth: 1000
Flags: HW
Fore
752 666 m 1
 761 707 758 737 741 758 c 0
 725 778 707 788 688 788 c 0
 665 788 645 785 630 777 c 0
 614 770 599 759 586 745 c 0
 580 740 572 731 562 718 c 0
 552 705 541 691 530 675 c 0
 520 659 509 644 499 629 c 0
 488 614 480 602 473 594 c 0
 466 584 455 572 440 558 c 0
 425 544 409 537 391 537 c 0
 379 537 367 538 356 542 c 0
 345 545 337 550 330 557 c 1
 346 555 l 2
 372 555 397 568 422 594 c 0
 431 605 439 616 445 629 c 0
 452 641 456 654 459 668 c 0
 466 696 464 724 455 750 c 0
 445 776 425 788 393 788 c 0
 358 788 326 776 299 752 c 0
 272 727 253 693 242 649 c 0
 232 606 239 567 262 532 c 0
 285 498 322 481 373 481 c 0
 395 481 413 484 428 490 c 0
 443 497 458 505 473 516 c 0
 480 522 490 531 504 545 c 0
 517 558 532 577 547 600 c 0
 563 623 578 642 592 655 c 0
 606 669 616 676 623 676 c 0
 639 676 646 668 643 651 c 1
 504 0 l 1
 610 0 l 1
 752 666 l 1
418 668 m 0
 410 620 388 596 354 596 c 0
 339 596 328 602 322 614 c 0
 315 627 313 644 317 668 c 0
 323 688 331 705 342 718 c 0
 353 731 367 737 385 737 c 0
 399 737 409 731 416 720 c 0
 423 708 423 691 418 668 c 0
EndSplineSet
EndChar
StartChar: uni0E30
Encoding: 144 3632
OldEncoding: 3632
Width: 641
VWidth: 1000
Flags: HW
Fore
668 778 m 1
 650 694 607 621 539 559 c 0
 472 498 395 467 309 467 c 0
 257 467 216 484 186 519 c 0
 156 554 147 597 158 649 c 0
 177 735 229 778 313 778 c 0
 341 778 360 767 372 743 c 0
 383 720 386 694 379 666 c 0
 372 636 358 609 337 586 c 0
 316 563 291 551 264 551 c 1
 248 555 l 1
 255 550 260 544 265 539 c 0
 270 533 276 528 285 522 c 0
 294 518 311 515 334 512 c 0
 390 512 441 543 487 606 c 0
 524 661 550 718 563 778 c 1
 668 778 l 1
336 666 m 0
 347 711 336 733 303 733 c 0
 288 733 275 728 264 717 c 0
 253 706 245 689 240 666 c 0
 231 622 242 597 272 592 c 0
 285 592 298 599 313 614 c 1
 316 621 320 629 325 638 c 0
 329 647 333 656 336 666 c 0
571 324 m 1
 551 238 508 164 442 102 c 0
 373 41 296 10 213 10 c 0
 161 10 120 28 90 63 c 0
 60 99 51 143 61 195 c 0
 81 281 132 324 217 324 c 0
 244 324 264 312 275 288 c 0
 287 264 289 238 283 211 c 0
 276 181 262 154 241 130 c 0
 219 106 195 94 168 94 c 1
 150 98 l 1
 156 93 162 87 168 82 c 0
 173 76 180 71 188 66 c 0
 194 63 201 61 209 59 c 0
 217 58 227 57 238 55 c 0
 292 55 343 87 391 152 c 0
 409 179 424 207 437 234 c 0
 450 262 460 292 467 324 c 1
 571 324 l 1
240 211 m 0
 248 255 237 276 207 276 c 0
 192 276 179 271 168 261 c 0
 157 251 149 234 143 211 c 0
 134 170 145 146 176 139 c 1
 190 139 203 146 217 160 c 1
 220 167 224 174 228 183 c 0
 233 192 237 201 240 211 c 0
EndSplineSet
EndChar
StartChar: uni0E31
Encoding: 145 3633
OldEncoding: 3633
Width: 0
VWidth: 1000
Flags: HW
Fore
295 1188 m 1
 276 1094 233 1017 166 958 c 0
 132 927 90 904 41 889 c 0
 -8 874 -55 866 -100 866 c 0
 -130 866 -161 870 -194 879 c 0
 -226 887 -251 898 -270 913 c 0
 -311 949 -326 996 -313 1055 c 0
 -293 1143 -241 1188 -158 1188 c 0
 -95 1188 -72 1149 -88 1071 c 0
 -95 1041 -109 1014 -130 989 c 0
 -151 965 -176 952 -205 952 c 1
 -223 956 l 1
 -212 941 -193 930 -166 924 c 0
 -139 917 -111 913 -84 913 c 0
 -53 913 -18 922 18 938 c 0
 55 954 86 978 111 1010 c 0
 150 1060 177 1120 193 1188 c 1
 295 1188 l 1
-131 1071 m 0
 -127 1092 -128 1108 -133 1121 c 0
 -139 1134 -150 1141 -166 1141 c 0
 -199 1141 -220 1118 -229 1071 c 0
 -240 1022 -229 997 -195 997 c 0
 -184 997 -171 1005 -156 1020 c 0
 -150 1027 -145 1035 -141 1043 c 0
 -137 1052 -134 1062 -131 1071 c 0
EndSplineSet
EndChar
StartChar: uni0E32
Encoding: 146 3634
OldEncoding: 3634
Width: 557
VWidth: 1000
Flags: HW
Fore
418 0 m 1
 311 0 l 1
 440 608 l 2
 447 641 439 668 417 689 c 0
 394 710 367 721 334 721 c 0
 267 721 205 685 150 612 c 1
 123 629 l 1
 187 735 278 788 395 788 c 0
 451 788 494 773 522 741 c 0
 551 710 559 666 547 610 c 2
 418 0 l 1
EndSplineSet
EndChar
StartChar: uni0E33
Encoding: 147 3635
OldEncoding: 3635
Width: 571
VWidth: 1000
Flags: HW
Fore
121 1069 m 0
 114 1038 98 1010 72 987 c 0
 46 964 17 952 -14 952 c 0
 -46 952 -70 964 -86 987 c 0
 -102 1010 -107 1038 -100 1069 c 0
 -94 1102 -77 1129 -52 1152 c 0
 -27 1175 2 1186 35 1186 c 0
 66 1186 90 1174 106 1151 c 0
 123 1128 128 1100 121 1069 c 0
430 0 m 1
 324 0 l 1
 453 608 l 2
 459 641 452 668 429 689 c 0
 407 710 379 721 346 721 c 0
 279 721 218 685 162 612 c 1
 135 629 l 1
 199 735 290 788 408 788 c 0
 464 788 506 773 535 741 c 0
 563 710 571 666 559 610 c 2
 430 0 l 1
63 1069 m 0
 72 1107 58 1126 23 1126 c 0
 -13 1126 -35 1107 -43 1069 c 0
 -51 1031 -38 1012 -2 1012 c 0
 33 1012 55 1031 63 1069 c 0
EndSplineSet
EndChar
StartChar: uni0E34
Encoding: 148 3636
OldEncoding: 3636
Width: 0
VWidth: 1000
Flags: HW
Fore
-6 934 m 1
 -8 950 -15 969 -29 990 c 0
 -42 1011 -60 1031 -82 1050 c 0
 -104 1068 -128 1084 -156 1097 c 0
 -183 1110 -212 1116 -242 1116 c 0
 -254 1116 -268 1115 -285 1113 c 0
 -301 1111 -316 1108 -331 1104 c 0
 -345 1100 -358 1094 -369 1085 c 0
 -380 1077 -386 1067 -389 1055 c 0
 -392 1040 -385 1031 -368 1028 c 0
 -351 1025 -333 1024 -315 1024 c 0
 -288 1024 -262 1022 -239 1019 c 0
 -215 1015 -191 1011 -168 1006 c 0
 -137 999 -108 990 -81 979 c 0
 -54 968 -29 953 -6 934 c 1
31 864 m 1
 8 882 -19 898 -50 911 c 0
 -81 925 -113 937 -145 946 c 0
 -166 953 -192 958 -223 963 c 0
 -255 967 -284 969 -311 969 c 0
 -322 969 -337 969 -354 969 c 0
 -373 969 -388 968 -399 967 c 0
 -444 967 -476 973 -494 987 c 0
 -499 993 -503 1000 -506 1010 c 0
 -509 1019 -509 1027 -508 1034 c 0
 -505 1045 -500 1057 -492 1069 c 0
 -483 1081 -474 1093 -463 1103 c 0
 -452 1113 -440 1123 -428 1132 c 0
 -416 1140 -405 1148 -395 1153 c 0
 -375 1164 -351 1172 -323 1179 c 0
 -295 1185 -267 1188 -240 1188 c 0
 -204 1188 -168 1180 -132 1163 c 0
 -96 1147 -64 1124 -37 1096 c 0
 -10 1067 11 1033 25 993 c 0
 38 954 40 911 31 864 c 1
EndSplineSet
EndChar
StartChar: uni0E35
Encoding: 149 3637
OldEncoding: 3637
Width: 0
VWidth: 1000
Flags: HW
Fore
84 1260 m 1
 4 1260 l 1
 -31 1098 l 1
 -58 1125 -89 1147 -124 1162 c 0
 -159 1178 -194 1186 -229 1186 c 0
 -257 1186 -284 1183 -312 1177 c 0
 -340 1170 -365 1162 -387 1151 c 0
 -397 1146 -407 1138 -419 1129 c 0
 -430 1121 -442 1111 -453 1101 c 0
 -464 1091 -473 1079 -481 1067 c 0
 -489 1055 -495 1043 -498 1032 c 0
 -499 1025 -499 1017 -497 1008 c 0
 -495 998 -490 991 -483 985 c 0
 -466 971 -434 965 -389 965 c 0
 -378 966 -364 967 -346 967 c 0
 -328 967 -314 967 -303 967 c 0
 -276 967 -246 965 -214 961 c 0
 -182 956 -156 951 -135 944 c 0
 -102 935 -71 923 -40 909 c 0
 -9 896 17 880 39 862 c 1
 51 913 48 961 29 1006 c 1
 84 1260 l 1
4 932 m 1
 -19 951 -44 966 -71 977 c 0
 -97 988 -126 997 -158 1004 c 0
 -181 1009 -204 1013 -228 1017 c 0
 -252 1020 -278 1022 -305 1022 c 0
 -323 1022 -340 1023 -357 1026 c 0
 -374 1029 -382 1038 -379 1053 c 0
 -376 1065 -369 1075 -358 1083 c 0
 -347 1092 -335 1098 -321 1102 c 0
 -306 1106 -291 1109 -274 1111 c 0
 -258 1113 -244 1114 -231 1114 c 0
 -201 1114 -173 1108 -145 1095 c 0
 -118 1082 -94 1066 -72 1048 c 0
 -50 1029 -32 1009 -18 988 c 0
 -5 967 3 948 4 932 c 1
EndSplineSet
EndChar
StartChar: uni0E36
Encoding: 150 3638
OldEncoding: 3638
Width: 0
VWidth: 1000
Flags: HW
Fore
31 864 m 1
 38 900 38 933 32 965 c 0
 26 996 14 1025 -2 1051 c 1
 21 1059 41 1073 58 1093 c 0
 75 1112 87 1134 92 1157 c 0
 99 1189 94 1215 77 1237 c 0
 60 1259 35 1270 4 1270 c 0
 -26 1270 -54 1259 -80 1238 c 0
 -106 1217 -123 1192 -131 1163 c 1
 -149 1170 -167 1176 -185 1181 c 0
 -204 1185 -222 1188 -240 1188 c 0
 -267 1188 -295 1185 -323 1179 c 0
 -351 1172 -375 1164 -395 1153 c 0
 -405 1148 -416 1140 -428 1132 c 0
 -440 1123 -452 1113 -463 1103 c 0
 -474 1093 -483 1081 -492 1069 c 0
 -500 1057 -505 1045 -508 1034 c 0
 -509 1027 -509 1019 -506 1010 c 0
 -503 1000 -499 993 -494 987 c 0
 -476 973 -444 967 -399 967 c 0
 -388 968 -373 969 -354 969 c 0
 -337 969 -322 969 -311 969 c 0
 -284 969 -255 967 -223 963 c 0
 -192 958 -166 953 -145 946 c 0
 -113 937 -81 925 -50 911 c 0
 -19 898 8 882 31 864 c 1
-6 934 m 1
 -29 953 -54 968 -81 979 c 0
 -108 990 -137 999 -168 1006 c 0
 -191 1011 -215 1015 -239 1019 c 0
 -262 1022 -288 1024 -315 1024 c 0
 -333 1024 -351 1025 -368 1028 c 0
 -385 1031 -392 1040 -389 1055 c 0
 -386 1067 -380 1077 -369 1085 c 0
 -358 1094 -345 1100 -331 1104 c 0
 -316 1108 -301 1111 -285 1113 c 0
 -268 1115 -254 1116 -242 1116 c 0
 -212 1116 -183 1110 -156 1097 c 0
 -128 1084 -104 1068 -82 1050 c 0
 -60 1031 -42 1011 -29 990 c 0
 -15 969 -8 950 -6 934 c 1
-82 1157 m 0
 -78 1175 -69 1190 -55 1201 c 0
 -42 1213 -26 1219 -8 1219 c 0
 10 1219 23 1213 33 1201 c 0
 42 1190 45 1175 41 1157 c 0
 37 1139 28 1125 14 1113 c 0
 1 1101 -15 1096 -33 1096 c 0
 -51 1096 -64 1101 -74 1113 c 0
 -83 1125 -86 1139 -82 1157 c 0
EndSplineSet
EndChar
StartChar: uni0E37
Encoding: 151 3639
OldEncoding: 3639
Width: 0
VWidth: 1000
Flags: HW
Fore
74 1260 m 1
 -6 1260 l 1
 -41 1100 l 1
 -46 1107 -52 1112 -58 1117 c 0
 -65 1122 -71 1126 -78 1130 c 1
 -49 1260 l 1
 -129 1260 l 1
 -150 1169 l 1
 -178 1182 -208 1188 -240 1188 c 0
 -267 1188 -295 1185 -323 1179 c 0
 -351 1172 -375 1164 -395 1153 c 0
 -405 1148 -416 1140 -428 1132 c 0
 -440 1123 -452 1113 -463 1103 c 0
 -474 1093 -483 1081 -492 1069 c 0
 -500 1057 -505 1045 -508 1034 c 0
 -509 1027 -509 1019 -506 1010 c 0
 -503 1000 -499 993 -494 987 c 0
 -476 973 -444 967 -399 967 c 0
 -388 968 -373 969 -354 969 c 0
 -337 969 -322 969 -311 969 c 0
 -284 969 -255 967 -223 963 c 0
 -192 958 -166 953 -145 946 c 0
 -113 937 -81 925 -50 911 c 0
 -19 898 8 882 31 864 c 1
 40 915 37 963 20 1008 c 1
 74 1260 l 1
-6 934 m 1
 -29 953 -54 968 -81 979 c 0
 -108 990 -137 999 -168 1006 c 0
 -191 1011 -215 1015 -239 1019 c 0
 -262 1022 -288 1024 -315 1024 c 0
 -333 1024 -351 1025 -368 1028 c 0
 -385 1031 -392 1040 -389 1055 c 0
 -386 1067 -380 1077 -369 1085 c 0
 -358 1094 -345 1100 -331 1104 c 0
 -316 1108 -301 1111 -285 1113 c 0
 -268 1115 -254 1116 -242 1116 c 0
 -212 1116 -183 1110 -156 1097 c 0
 -128 1084 -104 1068 -82 1050 c 0
 -60 1031 -42 1011 -29 990 c 0
 -15 969 -8 950 -6 934 c 1
EndSplineSet
EndChar
StartChar: uni0E38
Encoding: 152 3640
OldEncoding: 3640
Width: 0
VWidth: 1000
Flags: HW
Fore
-229 -410 m 1
 -334 -410 l 1
 -309 -299 l 1
 -324 -309 -341 -313 -358 -313 c 0
 -386 -313 -406 -300 -418 -272 c 0
 -427 -252 -429 -226 -422 -195 c 0
 -406 -113 -357 -72 -276 -72 c 0
 -244 -72 -218 -83 -200 -106 c 0
 -181 -130 -175 -158 -182 -190 c 2
 -229 -410 l 1
-283 -195 m 0
 -279 -173 -279 -155 -285 -141 c 0
 -290 -128 -301 -121 -317 -121 c 0
 -335 -121 -350 -129 -360 -146 c 0
 -371 -163 -378 -180 -381 -195 c 0
 -392 -242 -381 -266 -348 -266 c 0
 -315 -266 -294 -242 -283 -195 c 0
EndSplineSet
EndChar
StartChar: uni0E39
Encoding: 153 3641
OldEncoding: 3641
Width: 0
VWidth: 1000
Flags: HW
Fore
-377 -190 m 2
 -370 -158 -376 -130 -394 -106 c 0
 -413 -83 -438 -72 -471 -72 c 0
 -552 -72 -600 -113 -616 -195 c 0
 -623 -226 -622 -252 -612 -272 c 0
 -600 -300 -580 -313 -553 -313 c 0
 -545 -313 -535 -311 -524 -307 c 0
 -513 -303 -504 -298 -498 -293 c 2
 -500 -295 l 1
 -515 -371 -483 -410 -406 -410 c 2
 -352 -410 l 2
 -269 -410 -219 -370 -203 -291 c 2
 -160 -82 l 1
 -264 -82 l 1
 -311 -311 l 2
 -318 -343 -337 -358 -367 -358 c 0
 -397 -358 -408 -343 -401 -311 c 2
 -377 -190 l 2
-477 -195 m 0
 -488 -242 -510 -266 -543 -266 c 0
 -575 -266 -586 -242 -575 -195 c 0
 -573 -180 -566 -163 -555 -146 c 0
 -544 -129 -530 -121 -512 -121 c 0
 -496 -121 -485 -128 -479 -141 c 0
 -474 -155 -473 -173 -477 -195 c 0
EndSplineSet
EndChar
StartChar: uni0E3A
Encoding: 154 3642
OldEncoding: 3642
Width: 0
VWidth: 1000
Flags: HW
Fore
-160 -156 m 0
 -165 -179 -177 -198 -197 -214 c 0
 -216 -230 -237 -238 -260 -238 c 0
 -283 -238 -301 -230 -313 -214 c 0
 -326 -198 -329 -179 -324 -156 c 0
 -319 -134 -308 -115 -288 -98 c 0
 -268 -82 -247 -74 -225 -74 c 0
 -202 -74 -184 -82 -171 -97 c 0
 -158 -113 -154 -132 -160 -156 c 0
EndSplineSet
EndChar
StartChar: uni0E3F
Encoding: 155 3647
OldEncoding: 3647
Width: 1019
VWidth: 1000
Flags: HW
Fore
600 0 m 2
 565 0 l 1
 551 -72 l 1
 457 -72 l 1
 471 0 l 1
 111 0 l 1
 117 27 l 1
 143 27 165 28 182 32 c 0
 200 35 215 41 227 50 c 0
 240 59 250 72 258 88 c 0
 266 104 273 126 279 152 c 2
 412 776 l 1
 420 824 418 857 408 877 c 1
 391 894 356 903 303 903 c 1
 307 928 l 1
 668 928 l 1
 686 1014 l 1
 780 1014 l 1
 762 928 l 1
 845 928 911 909 961 872 c 0
 1016 830 1036 770 1020 692 c 0
 995 580 919 512 791 487 c 1
 857 487 906 464 936 418 c 0
 971 369 982 311 967 244 c 0
 950 162 902 98 823 51 c 0
 762 17 687 0 600 0 c 2
750 870 m 1
 674 514 l 1
 724 514 769 530 807 563 c 0
 845 596 870 638 881 690 c 0
 892 742 884 785 859 819 c 0
 834 853 797 870 750 870 c 1
580 512 m 1
 657 877 l 1
 604 877 l 2
 584 877 571 863 567 836 c 1
 498 512 l 1
 580 512 l 1
481 49 m 1
 567 455 l 1
 485 455 l 1
 412 109 l 1
 408 85 408 70 414 61 c 1
 442 51 l 1
 481 49 l 1
662 449 m 1
 575 51 l 1
 631 51 682 70 727 106 c 0
 772 143 801 190 813 248 c 0
 825 309 818 358 792 394 c 0
 765 430 722 449 662 449 c 1
EndSplineSet
EndChar
StartChar: uni0E40
Encoding: 156 3648
OldEncoding: 3648
Width: 397
VWidth: 1000
Flags: HW
Fore
111 139 m 1
 108 123 107 106 109 89 c 0
 110 72 115 56 123 42 c 0
 131 28 143 16 158 7 c 0
 173 -2 192 -6 215 -6 c 0
 302 -6 354 35 371 119 c 0
 378 149 375 177 364 204 c 0
 352 230 331 244 301 244 c 0
 270 244 248 235 236 217 c 1
 356 788 l 1
 250 788 l 1
 111 139 l 1
334 119 m 0
 328 91 318 71 303 57 c 0
 288 44 273 37 258 37 c 0
 242 37 229 45 221 60 c 0
 213 76 212 96 217 119 c 0
 224 146 234 166 249 179 c 0
 263 192 278 199 293 199 c 0
 312 199 325 190 331 172 c 0
 337 154 338 137 334 119 c 0
EndSplineSet
EndChar
StartChar: uni0E41
Encoding: 157 3649
OldEncoding: 3649
Width: 772
VWidth: 1000
Flags: HW
Fore
113 141 m 1
 109 125 108 108 110 91 c 0
 112 74 117 58 125 44 c 0
 133 30 145 18 160 9 c 0
 175 0 194 -4 217 -4 c 0
 303 -4 355 38 373 121 c 0
 380 151 377 179 366 206 c 0
 354 232 333 246 303 246 c 0
 272 246 249 237 236 219 c 1
 356 791 l 1
 250 791 l 1
 113 141 l 1
336 121 m 0
 329 94 318 73 303 59 c 0
 288 46 273 39 258 39 c 0
 242 39 230 47 222 62 c 0
 215 78 214 98 219 121 c 0
 225 148 234 168 249 181 c 0
 263 194 278 201 293 201 c 0
 312 201 325 192 331 174 c 0
 337 156 339 139 336 121 c 0
485 139 m 1
 483 123 482 106 483 89 c 0
 485 72 489 56 498 42 c 0
 506 28 517 16 532 7 c 0
 547 -2 567 -6 590 -6 c 0
 677 -6 729 35 745 119 c 0
 752 149 750 177 738 204 c 0
 727 230 706 244 676 244 c 0
 644 244 623 235 610 217 c 1
 731 788 l 1
 625 788 l 1
 485 139 l 1
709 119 m 0
 703 91 693 71 678 57 c 0
 663 44 648 37 633 37 c 0
 616 37 604 45 596 60 c 0
 588 76 586 96 592 119 c 0
 599 146 609 166 624 179 c 0
 638 192 653 199 668 199 c 0
 687 199 699 190 706 172 c 0
 712 154 713 137 709 119 c 0
EndSplineSet
EndChar
StartChar: uni0E42
Encoding: 158 3650
OldEncoding: 3650
Width: 446
VWidth: 1000
Flags: HW
Fore
801 1331 m 1
 776 1279 730 1252 662 1249 c 0
 651 1249 638 1250 623 1251 c 0
 608 1253 593 1257 578 1264 c 0
 564 1270 548 1279 529 1290 c 0
 511 1301 493 1312 474 1322 c 0
 456 1332 437 1341 418 1349 c 0
 399 1356 381 1360 365 1360 c 0
 345 1360 326 1354 305 1341 c 0
 285 1329 266 1313 248 1292 c 1
 271 1290 291 1287 309 1284 c 0
 327 1281 350 1276 377 1268 c 0
 429 1253 461 1228 475 1195 c 0
 489 1162 492 1125 483 1085 c 2
 295 205 l 1
 314 221 336 229 360 229 c 0
 389 229 409 217 421 194 c 0
 432 170 435 143 428 113 c 0
 410 33 360 -6 279 -6 c 0
 233 -6 202 7 185 33 c 0
 168 59 165 94 174 139 c 2
 369 1055 l 1
 378 1097 378 1135 369 1168 c 0
 359 1202 332 1224 289 1235 c 0
 270 1240 248 1245 224 1249 c 0
 200 1253 177 1257 156 1262 c 1
 236 1386 311 1448 381 1448 c 0
 401 1448 423 1445 446 1439 c 0
 470 1433 494 1421 520 1403 c 1
 688 1307 l 1
 711 1300 l 1
 734 1300 751 1310 762 1329 c 1
 801 1331 l 1
385 113 m 1
 396 160 384 184 350 184 c 0
 319 184 298 160 287 113 c 0
 277 70 288 46 319 39 c 1
 347 39 369 63 385 113 c 1
EndSplineSet
EndChar
StartChar: uni0E43
Encoding: 159 3651
OldEncoding: 3651
Width: 516
VWidth: 1000
Flags: HW
Fore
397 1178 m 0
 393 1154 383 1135 367 1120 c 0
 350 1105 332 1098 313 1098 c 0
 289 1098 271 1110 259 1135 c 0
 247 1159 245 1187 252 1219 c 0
 261 1258 281 1293 309 1324 c 0
 338 1355 369 1370 403 1370 c 0
 440 1370 466 1357 479 1332 c 0
 493 1307 496 1275 487 1235 c 2
 254 137 l 2
 244 92 248 57 266 32 c 0
 284 6 313 -6 352 -6 c 0
 393 -6 428 4 456 25 c 0
 484 45 502 75 510 115 c 0
 517 145 514 171 502 195 c 0
 489 218 469 229 440 229 c 0
 416 229 394 221 375 205 c 1
 594 1237 l 2
 608 1300 601 1352 575 1394 c 0
 550 1435 505 1456 442 1456 c 0
 416 1456 391 1451 366 1440 c 0
 340 1429 317 1414 297 1395 c 0
 276 1376 259 1353 245 1328 c 0
 230 1303 220 1276 213 1247 c 0
 201 1189 204 1143 223 1110 c 0
 242 1077 270 1061 307 1061 c 0
 339 1061 366 1073 389 1099 c 0
 412 1124 427 1150 434 1178 c 0
 442 1213 441 1241 430 1263 c 0
 419 1284 400 1294 373 1294 c 0
 358 1294 342 1288 326 1274 c 0
 309 1260 298 1241 293 1217 c 0
 290 1199 292 1183 299 1169 c 0
 302 1164 305 1160 310 1158 c 0
 315 1156 319 1155 322 1155 c 2
 328 1155 l 2
 329 1156 328 1157 326 1157 c 0
 324 1157 323 1158 322 1161 c 0
 319 1164 317 1166 316 1168 c 0
 316 1170 315 1173 313 1176 c 0
 311 1181 310 1187 311 1195 c 0
 313 1203 314 1208 315 1210 c 0
 322 1245 339 1262 367 1262 c 0
 383 1262 394 1254 399 1239 c 0
 405 1224 404 1204 397 1178 c 0
465 115 m 0
 459 90 451 72 438 61 c 0
 426 51 414 45 401 45 c 0
 389 45 379 51 371 62 c 0
 362 74 361 91 367 113 c 0
 378 160 399 184 430 184 c 0
 444 184 454 179 462 168 c 0
 469 157 470 139 465 115 c 0
EndSplineSet
EndChar
StartChar: uni0E44
Encoding: 160 3652
OldEncoding: 3652
Width: 522
VWidth: 1000
Flags: HW
Fore
375 205 m 1
 394 221 416 229 440 229 c 0
 469 229 489 217 501 194 c 0
 512 170 515 143 508 113 c 0
 490 33 440 -6 358 -6 c 0
 313 -6 282 6 265 32 c 0
 248 57 244 92 254 137 c 2
 510 1343 l 1
 513 1352 512 1358 507 1362 c 0
 502 1366 497 1368 492 1368 c 0
 485 1368 479 1365 474 1359 c 0
 469 1353 466 1348 465 1346 c 2
 301 1065 l 2
 293 1053 285 1047 279 1047 c 0
 268 1047 262 1055 262 1071 c 1
 254 1440 l 1
 270 1458 l 1
 281 1458 287 1454 289 1446 c 2
 326 1204 l 1
 422 1372 l 1
 459 1432 502 1462 551 1462 c 0
 580 1462 600 1451 611 1427 c 0
 623 1404 625 1378 618 1348 c 2
 375 205 l 1
465 113 m 0
 476 160 464 184 430 184 c 0
 399 184 378 160 367 113 c 0
 361 91 361 73 367 59 c 0
 372 46 383 39 399 39 c 0
 413 39 426 45 438 57 c 0
 451 70 459 88 465 113 c 0
EndSplineSet
EndChar
StartChar: uni0E45
Encoding: 161 3653
OldEncoding: 3653
Width: 415
VWidth: 1000
Flags: HW
Fore
201 -344 m 1
 94 -344 l 1
 297 608 l 2
 304 641 295 668 271 689 c 0
 247 710 219 721 186 721 c 0
 122 721 62 685 6 612 c 1
 -20 629 l 1
 11 682 50 722 97 749 c 0
 144 775 191 788 238 788 c 0
 294 788 338 773 372 741 c 0
 405 710 416 666 403 610 c 2
 201 -344 l 1
EndSplineSet
EndChar
StartChar: uni0E46
Encoding: 162 3654
OldEncoding: 3654
Width: 788
VWidth: 1000
Flags: HW
Fore
541 -111 m 2
 538 -122 532 -136 522 -155 c 0
 513 -173 498 -195 479 -219 c 2
 381 -344 l 1
 262 -344 l 1
 362 -219 l 2
 378 -201 390 -184 401 -167 c 0
 412 -150 422 -132 430 -115 c 0
 433 -112 435 -107 435 -100 c 0
 436 -94 438 -85 440 -76 c 1
 598 662 l 2
 608 708 589 731 543 731 c 0
 521 731 501 724 483 711 c 0
 466 697 453 677 446 649 c 1
 406 649 l 1
 418 704 399 731 348 731 c 0
 277 731 230 677 207 567 c 1
 215 577 224 585 234 593 c 0
 245 600 259 604 279 604 c 0
 306 604 326 592 338 567 c 0
 350 543 353 516 346 487 c 0
 338 455 324 428 305 408 c 0
 285 382 259 369 227 369 c 0
 150 369 126 443 156 592 c 0
 168 644 190 689 221 727 c 0
 259 769 304 791 354 791 c 0
 394 791 423 769 440 727 c 1
 477 769 526 791 586 791 c 0
 631 791 663 773 682 739 c 0
 701 705 705 665 694 618 c 1
 541 -111 l 2
303 487 m 0
 311 534 300 557 268 557 c 0
 256 557 243 550 230 537 c 0
 217 523 209 507 205 487 c 0
 193 438 203 414 238 414 c 0
 269 414 291 438 303 487 c 0
EndSplineSet
EndChar
StartChar: uni0E47
Encoding: 163 3655
OldEncoding: 3655
Width: 0
VWidth: 1000
Flags: HW
Fore
82 1249 m 1
 70 1189 33 1149 -29 1128 c 0
 -35 1127 -44 1126 -55 1124 c 0
 -66 1123 -77 1122 -88 1122 c 0
 -99 1122 -113 1123 -130 1123 c 0
 -147 1124 -165 1124 -184 1124 c 0
 -194 1124 -202 1124 -209 1124 c 0
 -216 1124 -223 1124 -229 1122 c 0
 -255 1117 -277 1107 -294 1094 c 0
 -311 1080 -323 1056 -330 1022 c 0
 -334 1004 -335 989 -332 976 c 0
 -329 963 -326 951 -322 940 c 1
 -319 955 -311 967 -297 975 c 0
 -289 980 -279 984 -268 987 c 2
 -264 987 l 2
 -253 987 -242 983 -231 976 c 0
 -221 968 -212 959 -207 948 c 0
 -203 939 -197 930 -188 923 c 0
 -180 915 -171 911 -162 911 c 0
 -158 911 -154 912 -151 912 c 0
 -147 913 -143 916 -139 922 c 1
 -154 922 -167 929 -176 943 c 0
 -186 957 -187 979 -180 1008 c 0
 -173 1038 -161 1061 -143 1076 c 0
 -126 1092 -105 1100 -82 1100 c 0
 -59 1100 -40 1092 -27 1076 c 0
 -13 1061 -8 1041 -12 1018 c 0
 -20 977 -38 942 -66 913 c 0
 -91 883 -124 868 -162 868 c 0
 -178 868 -191 871 -201 876 c 0
 -210 880 -218 886 -225 893 c 0
 -228 897 -231 902 -233 908 c 0
 -236 914 -239 921 -242 927 c 0
 -244 933 -248 938 -252 943 c 0
 -256 948 -261 950 -266 950 c 2
 -274 950 l 2
 -289 949 -300 935 -307 907 c 0
 -309 900 -309 894 -309 887 c 0
 -309 881 -309 876 -309 870 c 1
 -342 876 -367 893 -384 923 c 0
 -401 952 -406 986 -397 1024 c 0
 -386 1075 -363 1113 -327 1140 c 0
 -290 1166 -251 1180 -207 1180 c 2
 -193 1180 l 2
 -173 1178 -150 1176 -123 1174 c 0
 -96 1171 -77 1169 -68 1169 c 0
 -23 1169 5 1194 14 1243 c 1
 82 1249 l 1
-72 1008 m 0
 -66 1044 -76 1063 -100 1063 c 0
 -113 1063 -123 1057 -131 1047 c 0
 -139 1036 -145 1023 -147 1008 c 0
 -150 997 -151 985 -148 972 c 0
 -146 959 -138 952 -123 952 c 0
 -97 952 -80 971 -72 1008 c 0
EndSplineSet
EndChar
StartChar: uni0E48
Encoding: 164 3656
OldEncoding: 3656
Width: 0
VWidth: 1000
Flags: HW
Fore
168 1610 m 1
 135 1497 l 1
 82 1343 l 2
 78 1333 70 1327 59 1327 c 0
 47 1327 41 1333 41 1343 c 1
 55 1497 l 1
 74 1610 l 1
 168 1610 l 1
EndSplineSet
EndChar
StartChar: uni0E49
Encoding: 165 3657
OldEncoding: 3657
Width: 0
VWidth: 1000
Flags: HW
Fore
262 1624 m 1
 255 1595 244 1566 228 1537 c 0
 213 1508 194 1481 172 1456 c 0
 150 1432 126 1410 100 1393 c 0
 74 1375 48 1362 20 1354 c 0
 -27 1339 -70 1331 -106 1331 c 2
 -170 1331 l 1
 -162 1366 l 1
 -143 1369 -122 1375 -100 1383 c 0
 -79 1392 -61 1404 -47 1419 c 1
 -53 1419 l 2
 -75 1419 -91 1427 -102 1444 c 0
 -113 1460 -115 1484 -109 1516 c 0
 -103 1539 -91 1560 -74 1580 c 0
 -56 1600 -35 1610 -12 1610 c 0
 10 1610 26 1600 36 1581 c 0
 46 1562 49 1541 45 1518 c 0
 38 1485 25 1455 4 1430 c 0
 -16 1404 -40 1384 -68 1372 c 1
 -2 1376 51 1401 92 1446 c 0
 133 1491 162 1550 178 1624 c 1
 262 1624 l 1
8 1516 m 0
 12 1532 12 1546 6 1559 c 0
 1 1571 -8 1577 -18 1577 c 0
 -33 1577 -46 1571 -56 1561 c 0
 -67 1550 -74 1535 -78 1516 c 0
 -86 1473 -75 1452 -45 1452 c 0
 -34 1452 -24 1457 -13 1468 c 0
 -3 1479 4 1495 8 1516 c 0
EndSplineSet
EndChar
StartChar: uni0E4A
Encoding: 166 3658
OldEncoding: 3658
Width: 0
VWidth: 1000
Flags: HW
Fore
248 1587 m 1
 211 1415 111 1329 -51 1329 c 1
 -43 1366 l 1
 -20 1370 2 1383 22 1404 c 0
 41 1425 54 1447 59 1470 c 0
 68 1517 55 1540 23 1540 c 0
 -12 1540 -33 1513 -43 1460 c 1
 -78 1460 l 1
 -68 1513 -81 1540 -117 1540 c 0
 -130 1540 -144 1535 -158 1524 c 1
 -137 1524 -123 1515 -116 1497 c 0
 -108 1479 -108 1457 -115 1430 c 0
 -127 1364 -160 1331 -213 1331 c 0
 -235 1331 -251 1342 -262 1363 c 0
 -273 1384 -276 1406 -270 1430 c 0
 -264 1458 -253 1484 -238 1507 c 0
 -223 1529 -205 1547 -185 1562 c 0
 -166 1576 -140 1583 -109 1583 c 0
 -79 1583 -58 1565 -47 1530 c 1
 -40 1545 -31 1557 -18 1567 c 0
 -6 1576 9 1581 27 1581 c 0
 95 1581 122 1545 106 1473 c 0
 97 1426 74 1391 37 1368 c 1
 100 1391 139 1441 156 1518 c 1
 162 1550 l 1
 166 1587 l 1
 248 1587 l 1
-147 1430 m 0
 -143 1449 -144 1464 -148 1477 c 0
 -153 1489 -163 1495 -178 1495 c 0
 -193 1495 -205 1488 -215 1474 c 0
 -225 1459 -231 1445 -236 1430 c 0
 -238 1410 -237 1395 -232 1382 c 0
 -228 1370 -218 1364 -205 1364 c 0
 -175 1364 -156 1386 -147 1430 c 0
EndSplineSet
EndChar
StartChar: uni0E4B
Encoding: 167 3659
OldEncoding: 3659
Width: 0
VWidth: 1000
Flags: HW
Fore
66 1626 m 1
 45 1509 l 1
 -66 1509 l 1
 -80 1450 l 1
 33 1450 l 1
 12 1331 l 1
 92 1331 l 1
 121 1450 l 1
 236 1450 l 1
 250 1509 l 1
 137 1509 l 1
 168 1626 l 1
 66 1626 l 1
EndSplineSet
EndChar
StartChar: uni0E4C
Encoding: 168 3660
OldEncoding: 3660
Width: 0
VWidth: 1000
Flags: HW
Fore
-8 1419 m 2
 -8 1419 -8 1424 -6 1434 c 0
 -5 1443 -5 1452 -6 1460 c 0
 -14 1478 -26 1487 -41 1487 c 0
 -53 1487 -65 1481 -75 1470 c 0
 -85 1460 -93 1442 -98 1419 c 0
 -106 1373 -97 1350 -70 1350 c 0
 -55 1350 -41 1356 -29 1368 c 0
 -23 1375 -19 1383 -15 1394 c 0
 -12 1404 -10 1412 -8 1419 c 2
-8 1526 m 1
 33 1513 47 1477 35 1417 c 0
 28 1387 14 1361 -8 1339 c 0
 -30 1318 -55 1307 -82 1307 c 0
 -113 1307 -138 1318 -156 1339 c 0
 -173 1361 -179 1388 -172 1419 c 0
 -154 1505 -82 1563 45 1593 c 0
 81 1603 106 1614 121 1626 c 0
 136 1638 144 1658 145 1683 c 1
 225 1700 l 1
 227 1694 226 1686 223 1673 c 0
 219 1654 209 1637 194 1622 c 0
 178 1607 152 1593 115 1581 c 0
 93 1574 70 1566 46 1555 c 0
 22 1545 4 1535 -8 1526 c 1
EndSplineSet
EndChar
StartChar: uni0E4D
Encoding: 169 3661
OldEncoding: 3661
Width: 0
VWidth: 1000
Flags: HW
Fore
-129 1024 m 0
 -136 991 -130 964 -111 941 c 0
 -91 919 -66 907 -35 907 c 0
 -3 907 26 919 54 941 c 0
 82 964 100 991 106 1024 c 0
 113 1057 108 1085 90 1108 c 0
 72 1131 48 1143 16 1143 c 0
 -15 1143 -45 1131 -75 1108 c 0
 -104 1085 -122 1057 -129 1024 c 0
-78 1024 m 0
 -74 1043 -64 1059 -48 1072 c 0
 -32 1085 -15 1092 4 1092 c 0
 23 1092 38 1085 47 1072 c 0
 57 1059 59 1043 55 1024 c 0
 51 1005 42 989 27 977 c 0
 12 965 -5 958 -25 958 c 0
 -44 958 -58 965 -69 977 c 0
 -79 989 -82 1005 -78 1024 c 0
EndSplineSet
EndChar
StartChar: uni0E4E
Encoding: 170 3662
OldEncoding: 3662
Width: 0
VWidth: 1000
Flags: HW
Fore
215 1204 m 2
 213 1206 l 2
 209 1214 201 1224 189 1236 c 0
 178 1248 160 1253 137 1253 c 2
 127 1253 l 2
 111 1252 94 1245 78 1233 c 0
 61 1221 48 1205 37 1186 c 0
 31 1175 29 1167 29 1163 c 0
 26 1152 25 1142 27 1134 c 0
 28 1125 30 1116 33 1108 c 0
 37 1101 38 1094 35 1087 c 0
 33 1083 30 1080 26 1077 c 0
 21 1075 16 1073 12 1073 c 0
 7 1073 2 1077 -2 1083 c 0
 -10 1105 -20 1119 -33 1123 c 0
 -45 1128 -61 1130 -82 1130 c 0
 -98 1130 -116 1124 -135 1112 c 0
 -154 1100 -167 1085 -174 1067 c 0
 -178 1060 -181 1053 -182 1044 c 0
 -185 1025 -184 1009 -178 995 c 0
 -173 982 -161 973 -143 971 c 2
 -135 971 l 2
 -122 971 -107 974 -92 981 c 0
 -77 988 -66 995 -59 1004 c 1
 -76 965 l 1
 -88 952 -103 943 -120 937 c 0
 -137 931 -154 928 -172 928 c 0
 -179 928 -189 929 -203 932 c 0
 -230 940 -248 955 -257 978 c 0
 -266 1000 -268 1025 -262 1051 c 0
 -258 1072 -248 1094 -233 1116 c 0
 -214 1143 -191 1164 -164 1179 c 0
 -137 1193 -110 1200 -84 1200 c 0
 -58 1200 -35 1193 -16 1178 c 1
 -16 1183 -15 1191 -12 1202 c 0
 -10 1213 -6 1224 -2 1235 c 0
 2 1246 9 1257 18 1268 c 0
 29 1283 45 1294 65 1303 c 0
 84 1311 102 1315 117 1315 c 0
 143 1315 166 1310 186 1299 c 0
 207 1289 222 1274 231 1253 c 0
 234 1247 237 1239 239 1230 c 0
 241 1221 241 1213 240 1206 c 0
 240 1199 236 1196 229 1196 c 0
 227 1196 224 1197 221 1198 c 0
 218 1199 216 1201 215 1204 c 2
EndSplineSet
EndChar
StartChar: uni0E4F
Encoding: 171 3663
OldEncoding: 3663
Width: 1118
VWidth: 1000
Flags: HW
Fore
244 393 m 0
 231 339 230 287 241 240 c 0
 251 192 270 150 298 115 c 0
 326 79 362 51 406 31 c 0
 449 10 498 0 553 0 c 0
 608 0 661 10 714 31 c 0
 766 51 814 79 857 115 c 0
 900 150 937 192 968 240 c 0
 998 287 1020 339 1032 393 c 0
 1044 448 1045 499 1034 547 c 0
 1023 595 1004 637 976 673 c 0
 948 709 912 737 868 758 c 0
 825 778 776 788 721 788 c 0
 666 788 613 778 561 758 c 0
 509 737 462 709 419 673 c 0
 376 637 339 595 308 547 c 0
 278 499 256 448 244 393 c 0
285 397 m 0
 296 445 315 490 342 534 c 0
 369 577 402 614 440 645 c 0
 479 677 521 701 567 720 c 0
 614 738 661 748 709 748 c 0
 756 748 800 738 839 720 c 0
 878 701 909 677 934 645 c 0
 958 614 976 577 985 534 c 0
 995 490 994 445 983 397 c 0
 973 350 955 304 927 262 c 0
 899 220 866 183 827 152 c 0
 789 120 747 95 700 77 c 0
 654 58 607 49 559 49 c 0
 511 49 468 58 429 77 c 0
 390 95 358 120 334 152 c 0
 309 183 293 220 284 262 c 0
 275 304 275 350 285 397 c 0
440 393 m 0
 428 337 437 290 466 253 c 0
 495 215 538 197 594 197 c 0
 621 197 648 202 675 212 c 0
 701 222 726 236 748 254 c 0
 769 272 788 293 804 316 c 0
 820 340 830 366 836 393 c 0
 847 449 837 496 807 535 c 0
 777 573 734 592 678 592 c 0
 651 592 624 587 598 577 c 0
 572 566 548 552 526 535 c 0
 504 517 486 496 471 471 c 0
 456 446 446 421 440 393 c 0
485 393 m 0
 495 436 517 472 553 502 c 0
 588 532 627 547 670 547 c 0
 712 547 745 532 769 502 c 0
 793 472 800 436 791 393 c 0
 781 351 758 315 722 286 c 0
 686 256 646 242 604 242 c 0
 562 242 529 256 506 286 c 0
 483 315 476 351 485 393 c 0
EndSplineSet
EndChar
StartChar: uni0E50
Encoding: 172 3664
OldEncoding: 3664
Width: 962
VWidth: 1000
Flags: HW
Fore
217 291 m 0
 209 248 209 209 218 173 c 0
 227 137 243 105 266 78 c 0
 289 51 319 29 354 13 c 0
 390 -2 430 -10 475 -10 c 0
 520 -10 564 -2 606 13 c 0
 649 29 687 51 722 78 c 0
 757 105 786 137 811 173 c 0
 836 209 852 248 860 291 c 0
 870 333 870 373 861 410 c 0
 852 446 836 479 813 506 c 0
 790 533 760 555 725 570 c 0
 689 586 649 594 604 594 c 0
 559 594 515 586 473 570 c 0
 431 555 392 533 357 506 c 0
 323 479 293 446 268 410 c 0
 244 373 227 333 217 291 c 0
332 285 m 0
 340 322 353 356 370 388 c 0
 387 420 407 449 431 473 c 0
 455 498 481 517 509 530 c 0
 537 544 565 551 594 551 c 0
 623 551 648 544 671 530 c 0
 693 517 711 498 725 473 c 0
 739 449 748 420 752 388 c 0
 756 356 754 322 745 285 c 0
 737 248 724 213 707 181 c 0
 689 149 668 121 644 97 c 0
 620 73 594 55 566 41 c 0
 538 27 510 20 481 20 c 0
 453 20 427 27 404 41 c 0
 382 55 364 73 351 97 c 0
 338 121 330 149 326 181 c 0
 322 213 324 248 332 285 c 0
EndSplineSet
EndChar
StartChar: uni0E51
Encoding: 173 3665
OldEncoding: 3665
Width: 962
VWidth: 1000
Flags: HW
Fore
864 274 m 0
 875 321 876 364 866 402 c 0
 857 441 840 475 815 504 c 0
 791 532 760 555 723 570 c 0
 686 586 645 594 600 594 c 0
 558 594 516 586 474 571 c 0
 432 556 394 535 357 508 c 0
 321 481 290 449 265 412 c 0
 240 375 223 334 213 289 c 0
 205 253 203 218 208 182 c 0
 213 147 223 115 239 86 c 0
 254 57 275 34 302 15 c 0
 329 -3 361 -12 399 -12 c 0
 506 -12 573 51 600 176 c 0
 607 209 605 239 593 267 c 0
 581 295 560 309 528 309 c 0
 497 309 470 298 447 274 c 0
 425 251 410 223 403 190 c 0
 397 162 399 135 412 110 c 0
 424 84 444 72 471 72 c 0
 496 72 517 80 535 96 c 1
 510 55 478 35 438 35 c 0
 386 35 350 65 328 125 c 0
 319 148 316 173 316 201 c 0
 317 228 321 257 328 287 c 0
 335 318 346 349 361 380 c 0
 377 411 396 439 419 465 c 0
 441 491 467 512 497 527 c 0
 526 543 557 551 590 551 c 0
 627 551 657 543 682 526 c 0
 707 510 725 489 738 463 c 0
 751 437 759 407 761 374 c 0
 763 340 760 307 752 272 c 0
 723 137 656 44 551 -6 c 1
 559 -27 l 1
 595 -27 629 -17 664 3 c 0
 698 23 728 48 756 78 c 0
 783 108 807 141 826 176 c 0
 846 212 859 244 864 274 c 0
549 190 m 0
 535 140 513 115 481 115 c 0
 466 115 455 122 449 135 c 0
 442 149 441 167 446 190 c 0
 451 214 459 232 472 246 c 0
 485 259 499 266 514 266 c 0
 529 266 539 258 545 241 c 0
 550 224 552 207 549 190 c 0
EndSplineSet
EndChar
StartChar: uni0E52
Encoding: 174 3666
OldEncoding: 3666
Width: 962
VWidth: 1000
Flags: HW
Fore
909 319 m 0
 882 191 839 104 780 57 c 0
 753 35 721 19 685 9 c 0
 649 -1 613 -6 578 -6 c 2
 362 -6 l 2
 316 -6 279 2 251 18 c 0
 223 35 203 57 193 84 c 0
 182 107 177 137 178 172 c 0
 180 208 186 249 197 297 c 1
 270 645 l 1
 299 784 289 870 242 901 c 1
 270 924 l 1
 369 874 397 752 356 557 c 2
 281 201 l 2
 267 135 276 87 307 57 c 0
 311 52 318 46 328 41 c 0
 337 35 350 33 367 33 c 2
 604 33 l 2
 623 33 640 35 653 39 c 0
 667 43 678 48 686 55 c 0
 705 70 722 89 736 112 c 0
 751 134 762 163 770 199 c 1
 819 434 l 1
 838 516 823 557 774 557 c 0
 740 557 707 517 676 436 c 1
 643 436 l 1
 646 474 643 504 636 525 c 0
 628 546 614 557 594 557 c 0
 564 557 535 537 506 496 c 0
 495 477 486 459 480 442 c 0
 474 426 470 410 467 395 c 1
 478 408 496 414 520 414 c 0
 550 414 570 401 581 377 c 0
 591 352 593 324 586 293 c 0
 580 264 567 238 547 213 c 0
 522 187 496 174 467 174 c 0
 452 174 436 180 418 191 c 0
 400 203 388 222 381 248 c 0
 374 268 371 290 372 312 c 0
 372 335 375 358 381 381 c 0
 386 408 396 435 411 460 c 0
 425 485 442 508 462 527 c 0
 482 547 504 563 528 575 c 0
 553 588 578 594 604 594 c 0
 641 594 666 573 680 530 c 1
 713 573 747 594 782 594 c 0
 907 594 949 502 909 319 c 0
547 295 m 0
 550 311 548 328 542 345 c 0
 536 362 525 371 510 371 c 0
 495 371 481 364 469 350 c 0
 457 337 449 318 444 295 c 0
 439 272 440 253 446 240 c 0
 453 226 464 219 479 219 c 0
 511 219 533 244 547 295 c 0
EndSplineSet
EndChar
StartChar: uni0E53
Encoding: 175 3667
OldEncoding: 3667
Width: 962
VWidth: 1000
Flags: HW
Fore
922 311 m 0
 916 281 905 249 888 214 c 0
 871 179 850 146 826 115 c 0
 802 83 776 56 745 32 c 0
 715 8 684 -7 651 -12 c 1
 633 14 l 1
 713 48 771 147 807 309 c 0
 811 327 814 349 816 374 c 0
 818 399 817 424 813 447 c 0
 809 471 801 492 791 508 c 0
 780 524 763 532 741 532 c 0
 689 532 641 490 596 406 c 1
 563 406 l 1
 548 490 518 532 473 532 c 0
 449 532 426 524 406 506 c 0
 385 488 367 466 350 440 c 0
 334 414 321 387 310 359 c 0
 300 331 293 307 289 287 c 0
 263 164 279 84 336 47 c 0
 329 53 326 61 326 74 c 0
 326 86 327 99 330 113 c 0
 337 143 351 170 373 194 c 0
 395 217 420 229 449 229 c 0
 477 229 498 217 510 193 c 0
 522 168 525 141 518 111 c 0
 503 34 464 -4 399 -4 c 0
 313 -4 249 23 207 78 c 0
 165 132 152 203 170 289 c 0
 178 324 192 360 211 396 c 0
 230 432 253 465 281 495 c 0
 308 524 339 548 373 566 c 0
 407 585 443 594 481 594 c 0
 539 594 575 553 592 471 c 1
 640 552 698 592 766 592 c 0
 800 592 829 583 852 566 c 0
 875 549 893 527 906 501 c 0
 919 474 927 444 929 411 c 0
 931 377 928 344 922 311 c 0
473 109 m 0
 477 125 476 142 470 159 c 0
 464 176 453 184 438 184 c 0
 407 184 385 159 373 109 c 0
 369 85 369 67 375 53 c 0
 380 40 390 33 406 33 c 0
 440 33 462 58 473 109 c 0
EndSplineSet
EndChar
StartChar: uni0E54
Encoding: 176 3668
OldEncoding: 3668
Width: 962
VWidth: 1000
Flags: HW
Fore
1071 928 m 1
 1079 896 1080 862 1073 823 c 0
 1049 703 932 611 723 547 c 0
 593 507 504 475 457 451 c 0
 353 397 293 329 276 246 c 0
 263 188 279 143 324 111 c 0
 363 83 414 70 475 70 c 0
 513 70 558 76 608 88 c 1
 596 91 583 98 568 110 c 0
 554 121 540 137 526 158 c 0
 517 173 512 189 511 208 c 0
 510 226 511 245 514 264 c 0
 524 305 543 340 571 370 c 0
 600 399 635 414 676 414 c 0
 703 414 723 401 735 377 c 0
 748 352 750 326 743 297 c 0
 737 267 722 240 700 215 c 0
 679 190 653 178 625 178 c 0
 616 178 608 180 600 184 c 1
 611 157 653 129 727 100 c 0
 803 73 848 45 860 16 c 1
 821 0 l 1
 775 26 720 39 657 39 c 0
 622 39 560 31 471 14 c 0
 429 5 395 0 371 0 c 0
 296 0 238 20 199 59 c 0
 156 103 143 161 158 233 c 0
 181 335 247 416 356 479 c 0
 425 519 526 558 662 596 c 0
 883 660 1005 743 1028 846 c 1
 1034 901 l 1
 1071 928 l 1
700 295 m 0
 703 311 701 328 695 345 c 0
 689 362 679 371 664 371 c 0
 649 371 635 365 624 353 c 0
 612 342 603 322 598 295 c 0
 593 272 593 253 599 240 c 0
 605 226 616 219 633 219 c 0
 666 219 688 244 700 295 c 0
EndSplineSet
EndChar
StartChar: uni0E55
Encoding: 177 3669
OldEncoding: 3669
Width: 962
VWidth: 1000
Flags: HW
Fore
1071 928 m 1
 1081 895 1081 859 1073 821 c 0
 1049 702 933 612 727 549 c 0
 717 546 708 544 697 544 c 0
 687 543 677 541 668 539 c 0
 661 533 649 527 631 519 c 0
 613 512 595 504 578 498 c 0
 520 474 473 454 437 435 c 0
 401 417 375 401 358 387 c 0
 313 346 286 299 276 246 c 0
 263 188 279 143 324 111 c 0
 363 83 414 70 475 70 c 0
 513 70 558 76 608 88 c 1
 592 89 577 96 564 109 c 0
 551 121 541 136 532 154 c 0
 524 171 518 190 515 210 c 0
 512 230 511 248 514 264 c 0
 536 364 590 414 676 414 c 0
 703 414 723 401 735 377 c 0
 748 352 750 326 743 297 c 0
 737 267 722 240 700 215 c 0
 679 190 653 178 625 178 c 0
 616 178 608 180 600 184 c 1
 611 157 653 129 727 100 c 0
 803 73 848 45 860 16 c 1
 821 0 l 1
 775 26 720 39 657 39 c 0
 622 39 560 31 471 14 c 0
 429 5 395 0 371 0 c 0
 296 0 238 20 199 59 c 0
 156 103 143 161 158 233 c 0
 178 325 230 399 313 457 c 0
 343 476 380 495 423 514 c 0
 466 533 516 552 573 569 c 1
 541 591 528 623 537 664 c 0
 543 696 560 723 588 744 c 0
 615 766 645 776 678 776 c 0
 709 776 734 766 752 744 c 0
 769 723 775 697 768 666 c 0
 767 660 764 654 761 646 c 0
 757 639 753 629 748 618 c 1
 917 674 1010 748 1028 840 c 2
 1032 862 l 1
 1034 901 l 1
 1071 928 l 1
707 655 m 0
 715 696 700 717 664 717 c 0
 628 717 606 696 598 653 c 0
 590 621 610 600 657 592 c 1
 670 601 680 612 689 623 c 0
 698 634 704 644 707 655 c 0
700 295 m 0
 703 313 701 330 695 346 c 0
 689 362 679 371 664 371 c 0
 649 371 635 364 623 350 c 0
 610 337 602 318 598 295 c 0
 593 272 593 253 600 240 c 0
 607 226 618 219 633 219 c 0
 666 219 688 244 700 295 c 0
EndSplineSet
EndChar
StartChar: uni0E56
Encoding: 178 3670
OldEncoding: 3670
Width: 962
VWidth: 1000
Flags: HW
Fore
881 289 m 0
 863 203 816 130 741 72 c 0
 673 17 593 -10 502 -10 c 0
 425 -10 363 8 315 45 c 0
 262 89 244 148 260 223 c 0
 268 259 286 290 312 316 c 0
 339 343 369 356 403 356 c 0
 433 356 455 345 469 322 c 0
 483 298 486 271 479 240 c 0
 474 210 460 183 438 160 c 0
 414 132 387 119 358 119 c 0
 350 119 342 121 334 125 c 1
 362 61 421 29 510 29 c 0
 600 29 673 79 729 180 c 0
 737 195 744 211 750 228 c 0
 755 245 760 265 766 287 c 0
 780 352 774 411 750 463 c 0
 722 519 677 547 614 547 c 0
 537 547 464 520 397 465 c 1
 338 500 l 1
 360 538 373 575 379 610 c 0
 393 669 389 727 369 784 c 0
 348 846 311 883 258 897 c 1
 268 924 l 1
 339 924 393 888 430 817 c 0
 466 750 475 681 459 610 c 0
 456 597 453 584 450 573 c 0
 446 563 442 553 438 545 c 1
 494 578 556 594 625 594 c 0
 670 594 710 586 746 571 c 0
 783 556 812 536 836 509 c 0
 859 482 874 450 883 413 c 0
 891 375 890 334 881 289 c 0
436 238 m 0
 439 254 438 271 432 288 c 0
 427 305 416 313 401 313 c 0
 386 313 373 307 360 294 c 0
 348 281 339 262 334 238 c 0
 328 214 329 196 336 182 c 0
 343 169 354 162 369 162 c 0
 401 162 424 187 436 238 c 0
EndSplineSet
EndChar
StartChar: uni0E57
Encoding: 179 3671
OldEncoding: 3671
Width: 962
VWidth: 1000
Flags: HW
Fore
1008 895 m 1
 1014 819 1016 746 1013 677 c 0
 1009 608 1000 541 985 475 c 0
 933 235 834 80 686 10 c 0
 672 3 658 -0 644 -1 c 0
 630 -2 617 -2 606 -2 c 0
 598 -2 590 -2 582 -1 c 0
 573 -0 565 1 557 2 c 1
 575 29 590 54 603 76 c 0
 616 98 628 120 638 142 c 0
 648 165 657 189 665 216 c 0
 672 243 680 274 688 309 c 0
 692 327 696 349 698 374 c 0
 701 399 701 424 697 447 c 0
 694 471 687 492 678 508 c 0
 668 524 653 532 633 532 c 0
 592 532 551 490 510 406 c 1
 477 406 l 1
 477 490 457 532 416 532 c 0
 394 532 374 523 355 505 c 0
 337 486 321 464 306 438 c 0
 292 412 280 386 271 358 c 0
 262 331 256 309 252 291 c 0
 225 158 227 77 260 47 c 1
 252 66 251 88 256 113 c 0
 263 141 278 168 300 193 c 0
 323 217 347 229 375 229 c 0
 403 229 424 217 436 193 c 0
 449 168 451 141 444 111 c 0
 438 78 423 51 400 29 c 0
 378 7 351 -4 319 -4 c 0
 281 -4 249 4 222 22 c 0
 196 39 175 61 160 88 c 0
 145 115 135 146 131 181 c 0
 127 216 129 252 137 289 c 0
 144 324 156 360 173 395 c 0
 190 431 211 464 236 494 c 0
 260 524 289 548 322 566 c 0
 354 585 390 594 428 594 c 0
 457 594 478 582 493 559 c 0
 507 536 513 509 510 479 c 1
 521 509 540 536 566 558 c 0
 593 581 621 592 651 592 c 0
 688 592 718 583 740 566 c 0
 763 549 779 527 790 501 c 0
 800 474 805 444 805 410 c 0
 805 375 801 342 795 309 c 0
 786 270 772 229 753 188 c 0
 733 147 708 107 678 68 c 1
 734 111 788 194 842 315 c 0
 862 363 879 410 893 456 c 0
 907 501 919 547 930 594 c 0
 941 643 949 693 953 744 c 0
 958 796 962 849 965 903 c 1
 1008 895 l 1
399 109 m 0
 403 125 402 142 396 159 c 0
 390 176 380 184 365 184 c 0
 350 184 336 178 325 166 c 0
 313 154 304 134 297 109 c 0
 293 85 294 67 300 53 c 0
 306 40 317 33 332 33 c 0
 367 33 390 58 399 109 c 0
EndSplineSet
EndChar
StartChar: uni0E58
Encoding: 180 3672
OldEncoding: 3672
Width: 962
VWidth: 1000
Flags: HW
Fore
1069 922 m 1
 1069 892 1068 863 1066 836 c 0
 1064 808 1059 781 1053 754 c 0
 1012 554 918 455 772 455 c 0
 739 455 712 455 690 456 c 0
 668 456 649 458 631 461 c 0
 608 464 583 466 558 467 c 0
 533 468 504 470 473 473 c 2
 463 473 l 2
 411 473 366 455 328 419 c 0
 289 383 264 337 252 281 c 0
 234 193 253 134 307 102 c 1
 307 113 309 126 311 139 c 0
 319 177 332 205 350 221 c 0
 368 238 388 246 412 246 c 0
 431 246 472 214 537 150 c 0
 598 87 649 55 688 55 c 0
 714 55 735 69 750 96 c 1
 731 92 l 1
 701 92 681 105 671 132 c 0
 660 159 658 185 664 211 c 0
 670 240 685 266 707 291 c 0
 728 315 753 328 780 328 c 0
 849 328 872 279 852 182 c 0
 825 61 763 0 666 0 c 0
 631 0 586 20 530 59 c 0
 469 106 429 129 412 129 c 0
 393 129 379 123 370 112 c 0
 361 100 354 86 350 70 c 0
 347 57 346 45 347 32 c 0
 348 19 350 7 352 -4 c 1
 274 5 221 39 190 95 c 0
 160 152 154 221 172 303 c 0
 180 343 195 380 216 414 c 0
 237 448 263 478 293 503 c 0
 323 528 356 548 392 562 c 0
 428 577 466 584 506 584 c 0
 533 584 562 582 593 578 c 0
 624 573 658 568 696 561 c 0
 737 553 771 549 797 549 c 0
 857 549 909 582 954 647 c 0
 986 689 1010 749 1026 825 c 1
 1032 860 l 1
 1036 899 l 1
 1069 922 l 1
807 211 m 0
 810 227 808 244 803 261 c 0
 797 278 787 287 772 287 c 0
 757 287 743 280 731 266 c 0
 719 253 710 234 705 211 c 0
 699 188 700 169 708 156 c 0
 715 142 726 135 739 135 c 0
 773 135 796 160 807 211 c 0
EndSplineSet
EndChar
StartChar: uni0E59
Encoding: 181 3673
OldEncoding: 3673
Width: 962
VWidth: 1000
Flags: HW
Fore
1063 922 m 1
 1074 860 1073 799 1061 737 c 0
 1047 673 1021 615 981 563 c 0
 936 503 883 473 821 473 c 0
 799 473 779 480 760 494 c 0
 735 514 717 524 705 524 c 0
 681 524 666 503 657 461 c 0
 655 447 653 434 652 421 c 0
 652 408 653 396 655 385 c 0
 676 276 697 189 719 124 c 0
 741 59 769 18 805 0 c 1
 715 0 l 2
 681 0 633 133 571 399 c 0
 552 488 517 532 467 532 c 0
 423 532 386 515 356 480 c 0
 326 445 306 406 295 360 c 1
 293 344 l 2
 282 268 280 208 288 164 c 0
 295 120 312 85 338 57 c 0
 345 51 352 45 359 42 c 0
 367 39 372 37 375 37 c 1
 360 59 356 89 362 127 c 0
 369 157 383 184 404 208 c 0
 426 232 451 244 479 244 c 0
 508 244 528 232 540 208 c 0
 551 184 554 157 547 127 c 0
 529 41 468 -2 362 -2 c 0
 216 -2 148 95 158 289 c 0
 159 298 160 307 161 315 c 0
 161 324 162 332 164 340 c 0
 173 380 188 414 209 444 c 0
 229 474 252 500 276 520 c 0
 335 569 403 594 481 594 c 0
 544 594 586 563 608 500 c 1
 614 526 627 547 649 565 c 0
 671 583 695 592 721 592 c 0
 744 592 771 584 801 569 c 0
 816 561 831 557 846 557 c 0
 885 557 924 590 961 655 c 0
 988 703 1006 752 1016 803 c 0
 1023 838 1026 862 1027 874 c 0
 1028 887 1028 894 1028 897 c 1
 1063 922 l 1
506 127 m 0
 510 143 509 160 503 177 c 0
 497 194 486 203 471 203 c 0
 456 203 442 197 430 184 c 0
 418 172 409 153 403 127 c 0
 399 104 400 85 406 72 c 0
 411 58 422 51 438 51 c 0
 474 51 496 76 506 127 c 0
EndSplineSet
EndChar
StartChar: uni0E5A
Encoding: 182 3674
OldEncoding: 3674
Width: 997
VWidth: 1000
Flags: HW
Fore
594 223 m 1
 584 181 566 138 539 95 c 0
 511 52 477 20 436 0 c 1
 328 0 l 1
 347 15 366 30 384 46 c 0
 402 62 419 78 434 94 c 0
 446 109 457 130 467 156 c 0
 477 182 483 204 487 223 c 2
 580 651 l 1
 582 668 577 676 563 676 c 0
 556 676 548 669 538 656 c 0
 527 643 513 625 494 600 c 0
 477 578 463 560 450 546 c 0
 437 531 427 522 420 516 c 0
 405 505 390 497 375 490 c 0
 360 484 341 481 319 481 c 0
 269 481 232 498 209 532 c 0
 186 567 179 606 188 649 c 0
 199 693 218 727 246 752 c 0
 273 776 304 788 340 788 c 0
 371 788 392 776 401 750 c 0
 411 724 412 696 406 668 c 0
 403 654 398 641 392 629 c 0
 386 616 378 605 369 594 c 0
 344 568 319 555 293 555 c 2
 276 557 l 1
 283 550 292 545 303 542 c 0
 314 538 326 537 338 537 c 0
 356 537 372 544 387 558 c 0
 402 572 413 584 420 594 c 0
 427 602 435 614 445 629 c 0
 456 644 466 659 477 675 c 0
 488 691 499 705 509 718 c 0
 519 731 527 740 532 745 c 0
 546 759 561 770 577 777 c 0
 592 785 612 788 635 788 c 0
 654 788 670 782 684 769 c 0
 698 756 701 733 694 698 c 1
 716 726 742 748 771 764 c 0
 800 780 829 788 856 788 c 0
 890 788 917 777 937 755 c 0
 957 732 962 699 952 655 c 2
 860 223 l 2
 856 204 850 182 841 158 c 0
 832 133 822 112 811 94 c 0
 786 55 754 23 713 0 c 1
 594 0 l 1
 614 15 635 31 654 47 c 0
 674 63 689 79 700 94 c 0
 711 109 722 130 732 156 c 0
 742 182 750 204 754 223 c 2
 838 614 l 1
 840 634 839 650 835 664 c 0
 830 677 816 684 795 684 c 0
 765 684 738 674 715 654 c 0
 692 635 677 612 672 588 c 2
 594 223 l 1
365 668 m 0
 370 691 369 708 362 720 c 0
 356 731 345 737 332 737 c 0
 314 737 300 731 289 718 c 0
 278 705 270 688 264 668 c 0
 260 644 261 627 268 614 c 0
 275 602 286 596 301 596 c 0
 335 596 356 620 365 668 c 0
EndSplineSet
EndChar
StartChar: uni0E5B
Encoding: 183 3675
OldEncoding: 3675
Width: 2250
VWidth: 1000
Flags: HW
Fore
1483 324 m 1
 1958 324 l 2
 2006 324 2048 326 2086 330 c 0
 2123 334 2154 343 2179 358 c 0
 2195 369 2209 382 2221 395 c 0
 2233 409 2241 426 2245 446 c 0
 2251 479 2247 505 2230 524 c 0
 2214 543 2190 553 2159 553 c 0
 2146 553 2133 550 2118 545 c 0
 2103 539 2087 532 2071 522 c 0
 2060 515 2049 510 2039 505 c 0
 2029 500 2014 496 1995 494 c 1
 2018 494 2038 497 2054 504 c 0
 2075 512 2092 517 2107 519 c 0
 2122 521 2133 522 2140 522 c 0
 2155 522 2169 516 2181 505 c 0
 2193 493 2197 474 2191 449 c 0
 2185 421 2165 400 2134 385 c 0
 2096 366 2043 356 1976 356 c 2
 1499 356 l 2
 1479 356 1461 358 1446 360 c 0
 1431 363 1417 371 1403 385 c 0
 1391 396 1383 415 1381 441 c 0
 1379 468 1379 494 1380 518 c 1
 1290 340 l 1
 1272 569 l 1
 1149 315 l 1
 1130 614 l 1
 1118 600 l 1
 989 291 l 1
 983 670 l 1
 973 662 l 1
 929 562 891 480 857 415 c 0
 824 350 796 302 774 270 c 0
 743 223 707 185 668 158 c 0
 628 130 586 117 541 117 c 0
 504 117 474 125 453 142 c 0
 431 159 415 182 404 210 c 0
 394 238 389 270 388 305 c 0
 387 341 391 376 399 412 c 0
 406 443 416 474 430 506 c 0
 444 537 460 565 479 590 c 0
 498 614 521 635 546 650 c 0
 571 666 599 674 629 674 c 0
 651 674 669 668 684 656 c 0
 699 645 711 630 721 612 c 0
 732 591 738 567 738 542 c 0
 739 516 737 494 733 475 c 0
 729 459 723 440 716 419 c 0
 708 398 698 378 686 360 c 0
 674 343 659 328 643 315 c 0
 627 303 608 297 588 297 c 0
 571 297 560 299 554 302 c 0
 548 305 543 309 541 311 c 1
 563 311 582 320 598 337 c 0
 614 354 626 375 633 401 c 0
 638 427 636 450 625 468 c 0
 614 486 597 496 575 496 c 0
 555 496 535 486 516 466 c 0
 497 446 485 425 479 401 c 0
 471 365 475 331 490 301 c 0
 506 271 536 256 580 256 c 0
 606 256 630 262 654 273 c 0
 678 285 700 301 719 322 c 0
 738 342 754 366 768 393 c 0
 782 421 792 449 799 479 c 0
 806 516 806 551 801 584 c 0
 795 616 785 645 770 670 c 0
 758 689 740 703 716 712 c 0
 692 721 666 725 639 725 c 0
 602 725 567 716 535 697 c 0
 502 679 471 654 443 622 c 0
 415 589 392 553 372 511 c 0
 352 469 337 425 326 377 c 0
 315 326 313 282 319 243 c 0
 326 204 339 172 358 146 c 0
 378 121 402 102 432 89 c 0
 462 76 495 70 530 70 c 0
 570 70 606 78 639 95 c 0
 672 112 704 137 735 168 c 0
 787 218 857 336 944 520 c 1
 952 141 l 1
 961 147 l 1
 1096 459 l 1
 1110 172 l 1
 1241 440 l 1
 1260 219 l 1
 1358 410 l 1
 1362 378 1375 356 1398 343 c 0
 1420 330 1449 324 1485 324 c 2
 1483 324 l 1
594 401 m 0
 586 363 569 344 545 344 c 0
 522 344 514 363 522 401 c 0
 525 421 531 435 540 443 c 0
 549 452 558 457 567 457 c 0
 592 457 601 438 594 401 c 0
EndSplineSet
EndChar
StartChar: zerospace
Encoding: 184 8203
OldEncoding: 8203
Width: 1064
VWidth: 1000
Flags: HW
Fore
926 -244 m 1
 838 -244 l 1
 874 -70 l 1
 883 -23 860 -0 807 0 c 2
 287 0 l 2
 242 0 214 -21 205 -63 c 1
 168 -244 l 1
 80 -244 l 1
 147 80 l 1
 993 80 l 1
 926 -244 l 1
EndSplineSet
EndChar
StartChar: endash
Encoding: 185 8211
OldEncoding: 8211
Width: 1128
VWidth: 1000
Flags: HW
Fore
1100 350 m 1
 160 350 l 1
 176 420 l 1
 1116 420 l 1
 1100 350 l 1
EndSplineSet
EndChar
StartChar: emdash
Encoding: 186 8212
OldEncoding: 8212
Width: 2256
VWidth: 1000
Flags: HW
Fore
2126 350 m 1
 160 350 l 1
 176 420 l 1
 2142 420 l 1
 2126 350 l 1
EndSplineSet
EndChar
StartChar: quoteleft
Encoding: 187 8216
OldEncoding: 8216
Width: 333
VWidth: 1000
Flags: HW
Fore
418 705 m 0
 412 679 399 657 379 641 c 0
 360 629 339 622 317 621 c 0
 293 621 271 629 252 645 c 1
 227 671 221 709 231 758 c 0
 240 801 271 847 326 895 c 0
 369 935 406 959 436 969 c 1
 444 942 l 1
 353 892 302 841 293 791 c 0
 291 778 297 771 309 770 c 2
 328 772 l 1
 346 776 l 1
 405 776 429 752 418 705 c 0
EndSplineSet
EndChar
StartChar: quoteright
Encoding: 188 8217
OldEncoding: 8217
Width: 333
VWidth: 1000
Flags: HW
Fore
444 831 m 0
 436 796 410 754 365 707 c 0
 324 667 282 638 240 621 c 1
 233 647 l 1
 324 699 373 750 383 801 c 0
 386 813 380 819 367 819 c 2
 350 817 l 1
 332 815 l 2
 272 815 247 839 258 887 c 0
 269 935 303 962 360 969 c 1
 385 969 406 961 424 944 c 0
 449 918 455 881 444 831 c 0
EndSplineSet
EndChar
StartChar: quotedblleft
Encoding: 189 8220
OldEncoding: 8220
Width: 677
VWidth: 1000
Flags: HW
Fore
717 707 m 0
 705 644 672 612 621 612 c 0
 544 612 515 656 532 743 c 0
 553 835 623 910 741 969 c 1
 750 942 l 1
 659 892 610 841 600 791 c 0
 597 782 600 777 608 774 c 1
 623 789 641 797 662 797 c 0
 713 799 732 769 717 707 c 0
420 707 m 0
 408 644 375 612 324 612 c 0
 247 612 218 656 236 743 c 0
 256 835 326 910 444 969 c 1
 453 942 l 1
 362 892 313 841 303 791 c 0
 300 782 303 777 311 774 c 1
 326 789 344 797 365 797 c 0
 416 799 435 769 420 707 c 0
EndSplineSet
EndChar
StartChar: quotedblright
Encoding: 190 8221
OldEncoding: 8221
Width: 677
VWidth: 1000
Flags: HW
Fore
748 846 m 0
 727 754 657 679 539 621 c 1
 530 647 l 1
 621 698 670 748 680 799 c 0
 681 807 679 812 672 815 c 1
 657 800 639 793 618 793 c 0
 567 790 548 820 563 883 c 0
 575 945 608 977 659 977 c 0
 736 977 765 933 748 846 c 0
451 846 m 0
 430 754 360 679 242 621 c 1
 233 647 l 1
 324 698 373 748 383 799 c 0
 384 807 382 812 375 815 c 1
 360 800 342 793 322 793 c 0
 270 790 251 820 266 883 c 0
 279 945 311 977 362 977 c 0
 439 977 468 933 451 846 c 0
EndSplineSet
EndChar
StartChar: bullet
Encoding: 191 8226
OldEncoding: 8226
Width: 552
VWidth: 1000
Flags: HW
Fore
569 475 m 0
 564 449 554 424 539 400 c 0
 524 376 505 356 483 338 c 0
 461 320 438 306 413 296 c 0
 387 286 361 281 334 281 c 0
 281 281 239 300 210 338 c 0
 181 376 171 422 182 475 c 0
 188 502 198 528 213 551 c 0
 228 574 246 594 267 611 c 0
 288 628 312 642 338 652 c 0
 364 663 390 668 416 668 c 0
 469 668 511 649 541 611 c 0
 571 574 580 528 569 475 c 0
EndSplineSet
EndChar
StartChar: ellipsis
Encoding: 192 8230
OldEncoding: 8230
Width: 1087
VWidth: 1000
Flags: HW
Fore
944 61 m 0
 936 18 905 -8 850 -14 c 1
 802 -14 780 11 784 61 c 1
 797 116 829 143 883 143 c 0
 905 143 922 135 934 119 c 0
 945 104 948 85 944 61 c 0
631 61 m 0
 623 18 591 -8 537 -14 c 1
 489 -14 467 11 471 61 c 1
 483 116 516 143 569 143 c 0
 591 143 608 135 621 119 c 0
 631 104 635 85 631 61 c 0
317 61 m 0
 308 11 276 -14 223 -14 c 0
 170 -14 148 11 158 61 c 0
 170 116 203 143 256 143 c 0
 309 143 330 116 317 61 c 0
EndSplineSet
EndChar
StartChar: DEL
Encoding: 193 8718
OldEncoding: 8718
Width: 546
VWidth: 1000
Flags: HW
Fore
479 -4 m 1
 0 -4 l 1
 256 1208 l 1
 735 1208 l 1
 479 -4 l 1
EndSplineSet
EndChar
StartChar: uniF700
Encoding: 194 63232
OldEncoding: 63232
Width: 727
VWidth: 1000
Flags: HW
Fore
588 403 m 1
 600 474 576 530 516 569 c 0
 466 599 400 614 319 614 c 0
 295 614 277 614 266 613 c 0
 255 613 246 612 238 610 c 1
 270 669 326 698 403 698 c 0
 416 698 431 695 449 689 c 0
 466 683 487 677 510 670 c 0
 533 662 553 656 569 652 c 0
 586 649 599 647 610 647 c 0
 687 647 747 691 791 778 c 1
 748 778 l 1
 734 758 720 741 705 727 c 0
 689 713 670 707 647 707 c 0
 634 707 615 714 593 729 c 0
 570 744 552 756 537 764 c 0
 520 773 503 780 484 783 c 0
 466 787 447 788 428 788 c 0
 399 788 371 783 344 771 c 0
 317 759 291 744 268 724 c 0
 245 704 224 681 206 655 c 0
 187 629 173 601 162 571 c 1
 255 571 327 564 379 549 c 0
 459 526 494 477 481 401 c 1
 465 330 l 1
 458 369 442 399 418 420 c 0
 393 440 363 451 328 451 c 0
 289 451 258 439 234 417 c 0
 211 394 195 366 188 332 c 0
 183 304 186 279 199 254 c 0
 211 229 229 217 254 217 c 0
 281 217 305 228 326 251 c 0
 346 273 360 299 367 328 c 0
 371 348 371 366 369 381 c 1
 396 352 412 306 418 243 c 0
 423 179 416 98 395 0 c 1
 502 0 l 1
 588 403 l 1
328 332 m 0
 322 307 313 288 301 275 c 0
 289 262 276 256 262 256 c 0
 247 256 236 262 229 275 c 0
 223 288 222 307 227 332 c 0
 233 352 241 369 253 383 c 0
 265 397 278 403 293 403 c 0
 309 403 320 396 326 380 c 0
 331 364 332 348 328 332 c 0
EndSplineSet
EndChar
StartChar: uniF701
Encoding: 195 63233
OldEncoding: 63233
Width: 0
VWidth: 1000
Flags: HW
Fore
-129 934 m 1
 -130 950 -137 969 -148 990 c 0
 -160 1011 -176 1031 -196 1050 c 0
 -215 1068 -238 1084 -263 1097 c 0
 -288 1110 -316 1116 -346 1116 c 0
 -372 1116 -400 1112 -430 1104 c 0
 -460 1096 -479 1079 -485 1055 c 0
 -488 1040 -481 1030 -464 1027 c 0
 -447 1024 -429 1022 -412 1022 c 0
 -384 1022 -361 1021 -343 1018 c 0
 -325 1015 -304 1011 -281 1006 c 0
 -249 999 -222 989 -199 977 c 0
 -175 965 -152 950 -129 934 c 1
-92 864 m 1
 -115 882 -142 898 -173 911 c 0
 -204 925 -236 937 -268 946 c 0
 -289 953 -312 958 -337 963 c 0
 -362 967 -388 969 -416 969 c 0
 -427 969 -440 969 -455 969 c 0
 -471 969 -485 968 -496 967 c 0
 -519 967 -537 968 -551 972 c 0
 -565 975 -576 980 -586 987 c 0
 -591 993 -595 1000 -598 1010 c 0
 -601 1019 -601 1027 -600 1034 c 0
 -597 1045 -592 1057 -584 1069 c 0
 -575 1081 -566 1093 -555 1103 c 0
 -544 1113 -533 1123 -521 1132 c 0
 -510 1140 -499 1148 -489 1153 c 0
 -447 1176 -398 1188 -342 1188 c 0
 -307 1188 -272 1180 -238 1163 c 0
 -203 1147 -174 1124 -150 1096 c 0
 -125 1067 -107 1033 -95 993 c 0
 -84 954 -83 911 -92 864 c 1
EndSplineSet
EndChar
StartChar: uniF702
Encoding: 196 63234
OldEncoding: 63234
Width: 0
VWidth: 1000
Flags: HW
Fore
-39 1260 m 1
 -119 1260 l 1
 -154 1100 l 1
 -178 1127 -207 1149 -240 1164 c 0
 -272 1180 -307 1188 -342 1188 c 0
 -398 1188 -447 1176 -489 1153 c 0
 -499 1148 -510 1140 -521 1132 c 0
 -533 1123 -544 1113 -555 1103 c 0
 -566 1093 -575 1081 -584 1069 c 0
 -592 1057 -597 1045 -600 1034 c 0
 -601 1027 -601 1019 -598 1010 c 0
 -595 1000 -591 993 -586 987 c 0
 -576 980 -565 975 -551 972 c 0
 -537 968 -519 967 -496 967 c 0
 -485 968 -471 969 -455 969 c 0
 -440 969 -427 969 -416 969 c 0
 -388 969 -362 967 -337 963 c 0
 -312 958 -289 953 -268 946 c 0
 -236 937 -204 925 -173 911 c 0
 -142 898 -115 882 -92 864 c 1
 -83 909 -84 953 -96 995 c 1
 -39 1260 l 1
-129 934 m 1
 -152 950 -175 965 -199 977 c 0
 -222 989 -249 999 -281 1006 c 0
 -304 1011 -325 1015 -343 1018 c 0
 -361 1021 -384 1022 -412 1022 c 0
 -429 1022 -447 1024 -464 1027 c 0
 -481 1030 -488 1040 -485 1055 c 0
 -479 1079 -460 1096 -430 1104 c 0
 -400 1112 -372 1116 -346 1116 c 0
 -316 1116 -288 1110 -263 1097 c 0
 -238 1084 -215 1068 -196 1050 c 0
 -176 1031 -160 1011 -148 990 c 0
 -137 969 -130 950 -129 934 c 1
EndSplineSet
EndChar
StartChar: uniF703
Encoding: 197 63235
OldEncoding: 63235
Width: 0
VWidth: 1000
Flags: HW
Fore
-92 864 m 1
 -85 898 -84 931 -88 962 c 0
 -92 992 -101 1021 -115 1047 c 1
 -94 1056 -76 1070 -61 1087 c 0
 -46 1105 -37 1125 -33 1147 c 0
 -26 1178 -31 1205 -48 1227 c 0
 -65 1249 -89 1260 -121 1260 c 0
 -148 1260 -174 1251 -199 1234 c 0
 -223 1217 -241 1195 -252 1169 c 1
 -279 1182 -309 1188 -342 1188 c 0
 -398 1188 -447 1176 -489 1153 c 0
 -499 1148 -510 1140 -521 1132 c 0
 -533 1123 -544 1113 -555 1103 c 0
 -566 1093 -575 1081 -584 1069 c 0
 -592 1057 -597 1045 -600 1034 c 0
 -601 1027 -601 1019 -598 1010 c 0
 -595 1000 -591 993 -586 987 c 0
 -576 980 -565 975 -551 972 c 0
 -537 968 -519 967 -496 967 c 0
 -485 968 -471 969 -455 969 c 0
 -440 969 -427 969 -416 969 c 0
 -388 969 -362 967 -337 963 c 0
 -312 958 -289 953 -268 946 c 0
 -236 937 -204 925 -173 911 c 0
 -142 898 -115 882 -92 864 c 1
-129 934 m 1
 -152 950 -175 965 -199 977 c 0
 -222 989 -249 999 -281 1006 c 0
 -304 1011 -325 1015 -343 1018 c 0
 -361 1021 -384 1022 -412 1022 c 0
 -429 1022 -447 1024 -464 1027 c 0
 -481 1030 -488 1040 -485 1055 c 0
 -479 1079 -460 1096 -430 1104 c 0
 -400 1112 -372 1116 -346 1116 c 0
 -316 1116 -288 1110 -263 1097 c 0
 -238 1084 -215 1068 -196 1050 c 0
 -176 1031 -160 1011 -148 990 c 0
 -137 969 -130 950 -129 934 c 1
-207 1147 m 0
 -203 1165 -194 1179 -180 1191 c 0
 -167 1203 -151 1208 -133 1208 c 0
 -115 1208 -102 1203 -92 1191 c 0
 -83 1179 -80 1165 -84 1147 c 0
 -88 1129 -97 1114 -111 1103 c 0
 -124 1091 -140 1085 -158 1085 c 0
 -175 1085 -189 1091 -199 1103 c 0
 -208 1114 -211 1129 -207 1147 c 0
EndSplineSet
EndChar
StartChar: uniF704
Encoding: 198 63236
OldEncoding: 63236
Width: 0
VWidth: 1000
Flags: HW
Fore
-39 1260 m 1
 -111 1260 l 1
 -145 1094 l 1
 -152 1100 -159 1107 -167 1113 c 0
 -174 1119 -182 1126 -188 1133 c 1
 -162 1260 l 1
 -233 1260 l 1
 -254 1169 l 1
 -281 1182 -311 1188 -342 1188 c 0
 -398 1188 -447 1176 -489 1153 c 0
 -499 1148 -510 1140 -521 1132 c 0
 -533 1123 -544 1113 -555 1103 c 0
 -566 1093 -575 1081 -584 1069 c 0
 -592 1057 -597 1045 -600 1034 c 0
 -601 1027 -601 1019 -598 1010 c 0
 -595 1000 -591 993 -586 987 c 0
 -576 980 -565 975 -551 972 c 0
 -537 968 -519 967 -496 967 c 0
 -485 968 -471 969 -455 969 c 0
 -440 969 -427 969 -416 969 c 0
 -388 969 -362 967 -337 963 c 0
 -312 958 -289 953 -268 946 c 0
 -236 937 -204 925 -173 911 c 0
 -142 898 -115 882 -92 864 c 1
 -83 909 -84 953 -96 995 c 1
 -39 1260 l 1
-129 934 m 1
 -152 950 -175 965 -199 977 c 0
 -222 989 -249 999 -281 1006 c 0
 -304 1011 -325 1015 -343 1018 c 0
 -361 1021 -384 1022 -412 1022 c 0
 -429 1022 -447 1024 -464 1027 c 0
 -481 1030 -488 1040 -485 1055 c 0
 -479 1079 -460 1096 -430 1104 c 0
 -400 1112 -372 1116 -346 1116 c 0
 -316 1116 -288 1110 -263 1097 c 0
 -238 1084 -215 1068 -196 1050 c 0
 -176 1031 -160 1011 -148 990 c 0
 -137 969 -130 950 -129 934 c 1
EndSplineSet
EndChar
StartChar: uniF705
Encoding: 199 63237
OldEncoding: 63237
Width: 0
VWidth: 1000
Flags: HW
Fore
-74 1223 m 1
 -109 1100 l 1
 -166 930 l 1
 -173 918 -182 911 -193 911 c 0
 -208 911 -214 918 -211 930 c 1
 -197 1100 l 1
 -176 1223 l 1
 -74 1223 l 1
EndSplineSet
EndChar
StartChar: uniF706
Encoding: 200 63238
OldEncoding: 63238
Width: 0
VWidth: 1000
Flags: HW
Fore
-35 1235 m 1
 -58 1130 -111 1049 -195 991 c 0
 -230 967 -267 947 -304 933 c 0
 -342 919 -382 911 -426 911 c 2
 -537 911 l 1
 -530 948 l 1
 -484 952 -442 976 -406 1018 c 1
 -422 1016 l 2
 -479 1016 -500 1053 -483 1126 c 0
 -478 1154 -465 1179 -444 1201 c 0
 -424 1224 -401 1235 -375 1235 c 0
 -350 1235 -332 1224 -319 1202 c 0
 -307 1180 -304 1156 -311 1128 c 0
 -328 1049 -365 993 -422 958 c 1
 -343 958 -279 986 -229 1040 c 0
 -206 1065 -186 1093 -170 1125 c 0
 -154 1157 -141 1194 -133 1235 c 1
 -35 1235 l 1
-352 1126 m 0
 -348 1146 -349 1162 -353 1175 c 0
 -358 1187 -368 1194 -383 1194 c 0
 -414 1194 -435 1171 -444 1126 c 0
 -455 1079 -445 1055 -414 1055 c 0
 -384 1055 -363 1079 -352 1126 c 0
EndSplineSet
EndChar
StartChar: uniF707
Encoding: 201 63239
OldEncoding: 63239
Width: 0
VWidth: 1000
Flags: HW
Fore
-35 1192 m 1
 -76 1002 -186 907 -365 907 c 1
 -356 948 l 1
 -332 954 -308 968 -286 990 c 0
 -263 1013 -249 1037 -244 1063 c 0
 -233 1115 -246 1141 -285 1141 c 0
 -320 1141 -344 1111 -356 1053 c 1
 -395 1053 l 1
 -383 1111 -397 1141 -438 1141 c 0
 -445 1141 -452 1139 -460 1136 c 0
 -467 1132 -474 1128 -481 1122 c 1
 -458 1122 -442 1112 -434 1093 c 0
 -426 1073 -425 1048 -432 1018 c 0
 -449 947 -485 911 -541 911 c 0
 -564 911 -582 923 -595 945 c 0
 -608 968 -611 992 -604 1018 c 0
 -599 1049 -586 1078 -567 1104 c 0
 -552 1124 -534 1143 -512 1160 c 0
 -490 1177 -462 1186 -428 1186 c 0
 -393 1186 -370 1167 -360 1128 c 1
 -352 1145 -340 1158 -325 1169 c 0
 -309 1180 -294 1186 -279 1186 c 0
 -203 1186 -174 1146 -190 1065 c 0
 -203 1014 -228 976 -266 950 c 1
 -199 975 -156 1030 -137 1116 c 1
 -131 1151 l 1
 -125 1192 l 1
 -35 1192 l 1
-469 1018 m 0
 -465 1040 -466 1057 -471 1070 c 0
 -477 1083 -487 1090 -504 1090 c 0
 -519 1090 -532 1082 -544 1067 c 0
 -555 1052 -563 1036 -565 1018 c 0
 -571 997 -571 980 -565 967 c 0
 -560 953 -550 946 -535 946 c 0
 -502 946 -480 970 -469 1018 c 0
EndSplineSet
EndChar
StartChar: uniF708
Encoding: 202 63240
OldEncoding: 63240
Width: 0
VWidth: 1000
Flags: HW
Fore
-283 1235 m 1
 -303 1106 l 1
 -424 1106 l 1
 -438 1040 l 1
 -315 1040 l 1
 -336 911 l 1
 -248 911 l 1
 -215 1040 l 1
 -92 1040 l 1
 -78 1106 l 1
 -199 1106 l 1
 -166 1235 l 1
 -283 1235 l 1
EndSplineSet
EndChar
StartChar: uniF709
Encoding: 203 63241
OldEncoding: 63241
Width: 0
VWidth: 1000
Flags: HW
Fore
-184 1038 m 1
 -184 1038 -184 1043 -182 1054 c 0
 -181 1064 -182 1074 -184 1083 c 0
 -190 1103 -202 1112 -221 1112 c 0
 -235 1112 -247 1106 -259 1094 c 0
 -271 1081 -279 1063 -285 1038 c 0
 -297 985 -287 958 -254 958 c 0
 -248 958 -241 961 -231 965 c 0
 -222 969 -214 974 -207 981 c 0
 -200 989 -195 999 -193 1010 c 0
 -190 1021 -187 1030 -184 1038 c 1
-184 1155 m 1
 -139 1143 -124 1103 -137 1036 c 0
 -144 1004 -160 975 -184 949 c 0
 -209 924 -236 911 -266 911 c 0
 -302 911 -329 924 -348 948 c 0
 -367 973 -373 1003 -367 1038 c 0
 -356 1086 -330 1125 -291 1156 c 0
 -251 1187 -196 1212 -125 1231 c 0
 -87 1242 -59 1254 -41 1268 c 0
 -23 1281 -15 1303 -16 1331 c 1
 76 1352 l 1
 76 1345 74 1335 72 1321 c 0
 68 1299 57 1280 39 1264 c 0
 21 1247 -8 1232 -49 1219 c 0
 -72 1210 -97 1200 -124 1189 c 0
 -151 1177 -171 1166 -184 1155 c 1
EndSplineSet
EndChar
StartChar: uniF70A
Encoding: 204 63242
OldEncoding: 63242
Width: 0
VWidth: 1000
Flags: HW
Fore
90 1223 m 1
 55 1100 l 1
 -2 930 l 1
 -9 918 -18 911 -29 911 c 0
 -44 911 -50 918 -47 930 c 1
 -33 1100 l 1
 -12 1223 l 1
 90 1223 l 1
EndSplineSet
EndChar
StartChar: uniF70B
Encoding: 205 63243
OldEncoding: 63243
Width: 0
VWidth: 1000
Flags: HW
Fore
186 1235 m 1
 163 1130 110 1049 27 991 c 0
 -9 967 -45 947 -83 933 c 0
 -120 919 -161 911 -205 911 c 2
 -315 911 l 1
 -309 948 l 1
 -263 952 -221 976 -184 1018 c 1
 -201 1016 l 2
 -258 1016 -279 1053 -262 1126 c 0
 -257 1154 -244 1179 -223 1201 c 0
 -203 1224 -180 1235 -154 1235 c 0
 -129 1235 -111 1224 -98 1202 c 0
 -86 1180 -83 1156 -90 1128 c 0
 -106 1049 -143 993 -201 958 c 1
 -122 958 -57 986 -8 1040 c 0
 15 1065 35 1093 51 1125 c 0
 68 1157 80 1194 88 1235 c 1
 186 1235 l 1
-131 1126 m 0
 -127 1146 -127 1162 -132 1175 c 0
 -137 1187 -147 1194 -162 1194 c 0
 -193 1194 -214 1171 -223 1126 c 0
 -234 1079 -224 1055 -193 1055 c 0
 -162 1055 -142 1079 -131 1126 c 0
EndSplineSet
EndChar
StartChar: uniF70C
Encoding: 206 63244
OldEncoding: 63244
Width: 0
VWidth: 1000
Flags: HW
Fore
195 1192 m 1
 154 1002 44 907 -135 907 c 1
 -127 948 l 1
 -102 954 -79 968 -56 990 c 0
 -34 1013 -20 1037 -14 1063 c 0
 -3 1115 -17 1141 -55 1141 c 0
 -91 1141 -115 1111 -127 1053 c 1
 -166 1053 l 1
 -154 1111 -168 1141 -209 1141 c 0
 -216 1141 -223 1139 -230 1136 c 0
 -238 1132 -245 1128 -252 1122 c 1
 -229 1122 -213 1112 -205 1093 c 0
 -197 1073 -196 1048 -203 1018 c 0
 -219 947 -255 911 -311 911 c 0
 -335 911 -353 923 -366 945 c 0
 -379 968 -382 992 -375 1018 c 0
 -372 1033 -368 1048 -362 1062 c 0
 -357 1076 -349 1090 -338 1104 c 0
 -323 1127 -304 1147 -283 1163 c 0
 -261 1180 -233 1188 -199 1188 c 0
 -165 1188 -142 1168 -131 1128 c 1
 -123 1145 -112 1158 -98 1169 c 0
 -85 1180 -68 1186 -49 1186 c 0
 26 1186 55 1146 39 1065 c 0
 27 1014 1 976 -37 950 c 1
 30 975 73 1030 92 1116 c 1
 98 1151 l 1
 104 1192 l 1
 195 1192 l 1
-240 1018 m 0
 -236 1040 -236 1057 -242 1070 c 0
 -247 1083 -258 1090 -274 1090 c 0
 -289 1090 -303 1082 -314 1067 c 0
 -326 1052 -333 1036 -336 1018 c 0
 -341 997 -341 980 -336 967 c 0
 -330 953 -320 946 -305 946 c 0
 -272 946 -251 970 -240 1018 c 0
EndSplineSet
EndChar
StartChar: uniF70D
Encoding: 207 63245
OldEncoding: 63245
Width: 0
VWidth: 1000
Flags: HW
Fore
-55 1317 m 1
 -78 1188 l 1
 -199 1188 l 1
 -213 1122 l 1
 -90 1122 l 1
 -111 993 l 1
 -23 993 l 1
 10 1122 l 1
 133 1122 l 1
 147 1188 l 1
 27 1188 l 1
 61 1317 l 1
 -55 1317 l 1
EndSplineSet
EndChar
StartChar: uniF70E
Encoding: 208 63246
OldEncoding: 63246
Width: 0
VWidth: 1000
Flags: HW
Fore
-127 1051 m 1
 -127 1051 -126 1056 -125 1068 c 0
 -124 1080 -124 1090 -127 1100 c 0
 -135 1122 -148 1133 -166 1133 c 0
 -181 1133 -195 1126 -209 1112 c 0
 -223 1098 -233 1078 -240 1051 c 0
 -252 993 -240 965 -203 965 c 0
 -196 965 -188 967 -178 971 c 0
 -169 975 -160 981 -152 989 c 0
 -145 997 -140 1008 -136 1020 c 0
 -133 1032 -130 1042 -127 1051 c 1
-127 1180 m 1
 -76 1167 -59 1124 -74 1049 c 0
 -82 1013 -99 981 -126 953 c 0
 -153 925 -183 911 -217 911 c 0
 -257 911 -287 925 -308 951 c 0
 -329 978 -336 1011 -328 1051 c 0
 -304 1156 -216 1227 -61 1266 c 0
 -18 1277 14 1290 33 1305 c 0
 52 1320 61 1343 59 1374 c 1
 162 1397 l 1
 162 1389 160 1378 158 1364 c 0
 152 1341 140 1320 121 1300 c 0
 102 1281 69 1264 23 1249 c 0
 -5 1241 -33 1231 -61 1218 c 0
 -90 1205 -112 1192 -127 1180 c 1
EndSplineSet
EndChar
StartChar: uniF70F
Encoding: 209 63247
OldEncoding: 63247
Width: 1116
VWidth: 1000
Flags: HW
Fore
997 113 m 1
 981 38 943 -0 883 0 c 2
 561 0 l 1
 674 526 l 2
 686 584 677 630 645 667 c 0
 614 703 569 721 512 721 c 0
 415 721 334 692 268 635 c 1
 338 635 389 605 422 545 c 1
 392 537 367 523 346 503 c 0
 326 483 312 457 305 424 c 2
 256 193 l 1
 267 203 278 212 289 217 c 0
 300 223 313 225 328 225 c 0
 351 225 369 215 382 195 c 0
 395 174 397 144 389 104 c 0
 373 27 322 -12 238 -12 c 0
 195 -12 165 0 147 25 c 0
 130 49 126 83 135 127 c 2
 193 397 l 1
 212 482 264 536 348 559 c 1
 318 586 265 600 188 600 c 1
 216 655 266 700 340 737 c 0
 403 771 466 788 528 788 c 0
 733 788 817 701 780 526 c 2
 676 39 l 1
 801 39 l 2
 821 39 840 45 857 57 c 0
 874 70 885 88 891 113 c 2
 1030 774 l 1
 1137 774 l 1
 997 113 l 1
356 104 m 0
 362 128 360 147 352 162 c 0
 344 177 333 184 319 184 c 0
 306 184 291 177 275 162 c 0
 260 147 249 127 244 102 c 0
 240 87 241 71 247 53 c 0
 253 35 266 27 287 27 c 0
 300 27 314 33 328 47 c 0
 341 61 351 80 356 104 c 0
EndSplineSet
EndChar
StartChar: uniF710
Encoding: 210 63248
OldEncoding: 63248
Width: 0
VWidth: 1000
Flags: HW
Fore
305 1167 m 1
 286 1073 243 997 176 938 c 0
 142 907 98 883 44 868 c 0
 -10 853 -59 846 -104 846 c 0
 -134 846 -167 850 -202 858 c 0
 -237 866 -263 878 -281 893 c 0
 -322 928 -336 976 -324 1034 c 0
 -304 1123 -253 1167 -168 1167 c 0
 -105 1167 -82 1128 -98 1051 c 0
 -105 1021 -119 993 -140 969 c 0
 -161 944 -186 932 -215 932 c 1
 -233 936 l 1
 -223 921 -202 910 -173 903 c 0
 -144 896 -115 893 -88 893 c 0
 -73 893 -56 895 -37 899 c 0
 -18 903 1 909 20 918 c 0
 40 926 58 936 76 947 c 0
 94 959 109 973 121 989 c 0
 160 1040 188 1099 203 1167 c 1
 305 1167 l 1
-141 1051 m 0
 -137 1071 -138 1088 -143 1101 c 0
 -149 1114 -160 1120 -176 1120 c 0
 -209 1120 -230 1097 -240 1051 c 0
 -251 1001 -240 977 -207 977 c 0
 -195 977 -181 984 -166 999 c 0
 -160 1006 -156 1014 -152 1023 c 0
 -147 1032 -144 1041 -141 1051 c 0
EndSplineSet
EndChar
StartChar: uniF711
Encoding: 211 63249
OldEncoding: 63249
Width: 0
VWidth: 1000
Flags: HW
Fore
-315 1018 m 0
 -322 985 -316 957 -297 935 c 0
 -278 912 -253 901 -221 901 c 0
 -190 901 -160 912 -132 935 c 0
 -104 957 -87 985 -80 1018 c 0
 -73 1051 -79 1079 -97 1102 c 0
 -116 1125 -141 1137 -172 1137 c 0
 -203 1137 -233 1125 -262 1102 c 0
 -291 1079 -309 1051 -315 1018 c 0
-264 1018 m 0
 -261 1037 -252 1053 -236 1066 c 0
 -219 1079 -201 1085 -182 1085 c 0
 -163 1085 -149 1079 -140 1066 c 0
 -131 1053 -128 1037 -131 1018 c 0
 -135 999 -145 983 -160 971 c 0
 -175 958 -192 952 -211 952 c 0
 -230 952 -245 958 -255 971 c 0
 -265 983 -268 999 -264 1018 c 0
EndSplineSet
EndChar
StartChar: uniF712
Encoding: 212 63250
OldEncoding: 63250
Width: 0
VWidth: 1000
Flags: HW
Fore
-14 1249 m 1
 -27 1189 -63 1149 -125 1128 c 0
 -132 1127 -141 1125 -152 1123 c 0
 -162 1121 -173 1120 -184 1120 c 0
 -195 1120 -210 1121 -227 1121 c 0
 -245 1122 -264 1122 -283 1122 c 0
 -292 1122 -300 1122 -305 1122 c 0
 -312 1122 -319 1122 -326 1120 c 0
 -350 1116 -371 1107 -389 1094 c 0
 -407 1080 -419 1055 -426 1020 c 0
 -430 1004 -431 989 -428 975 c 0
 -425 961 -422 949 -418 938 c 1
 -412 954 -404 967 -393 975 c 0
 -388 978 -383 980 -379 982 c 0
 -375 984 -369 986 -362 987 c 2
 -358 987 l 2
 -347 987 -337 983 -327 976 c 0
 -316 968 -309 959 -303 948 c 0
 -298 939 -291 930 -283 923 c 0
 -274 915 -266 911 -256 911 c 0
 -253 911 -250 912 -247 912 c 0
 -243 913 -239 916 -233 922 c 1
 -248 922 -261 929 -270 943 c 0
 -280 957 -281 979 -274 1008 c 0
 -268 1038 -256 1060 -239 1075 c 0
 -222 1090 -201 1098 -176 1098 c 0
 -153 1098 -135 1090 -122 1074 c 0
 -109 1058 -105 1039 -111 1016 c 0
 -119 975 -136 941 -162 913 c 0
 -188 883 -220 868 -258 868 c 0
 -273 868 -285 871 -295 876 c 0
 -304 880 -313 886 -319 893 c 0
 -326 900 -332 911 -338 927 c 0
 -343 942 -352 950 -362 950 c 2
 -369 950 l 2
 -384 949 -395 935 -401 907 c 0
 -403 900 -403 894 -403 887 c 0
 -403 881 -403 876 -403 870 c 1
 -436 876 -461 893 -478 923 c 0
 -495 952 -500 986 -492 1024 c 0
 -481 1073 -457 1111 -422 1138 c 0
 -386 1164 -346 1178 -301 1178 c 2
 -289 1178 l 2
 -270 1176 -246 1175 -218 1172 c 0
 -190 1170 -171 1169 -162 1169 c 0
 -118 1169 -91 1193 -82 1241 c 1
 -14 1249 l 1
-168 1008 m 0
 -162 1043 -172 1061 -197 1061 c 0
 -209 1061 -219 1056 -227 1046 c 0
 -236 1035 -241 1023 -244 1008 c 0
 -246 997 -246 985 -244 972 c 0
 -241 959 -233 952 -219 952 c 0
 -193 952 -176 971 -168 1008 c 0
EndSplineSet
EndChar
StartChar: uniF713
Encoding: 213 63251
OldEncoding: 63251
Width: 0
VWidth: 1000
Flags: HW
Fore
55 1608 m 1
 23 1495 l 1
 -31 1341 l 2
 -35 1331 -42 1325 -53 1325 c 0
 -66 1325 -72 1331 -72 1341 c 1
 -57 1495 l 1
 -39 1608 l 1
 55 1608 l 1
EndSplineSet
EndChar
StartChar: uniF714
Encoding: 214 63252
OldEncoding: 63252
Width: 0
VWidth: 1000
Flags: HW
Fore
238 1604 m 1
 232 1575 222 1546 206 1517 c 0
 190 1487 171 1460 150 1436 c 0
 128 1411 104 1390 78 1372 c 0
 52 1354 25 1341 -2 1333 c 0
 -50 1318 -92 1311 -129 1311 c 2
 -193 1311 l 1
 -184 1346 l 1
 -165 1348 -145 1354 -123 1363 c 0
 -101 1372 -83 1384 -70 1399 c 1
 -76 1399 l 2
 -98 1399 -114 1407 -125 1423 c 0
 -136 1440 -138 1464 -131 1495 c 0
 -126 1518 -114 1540 -96 1560 c 0
 -79 1579 -58 1589 -35 1589 c 0
 -13 1589 3 1580 13 1561 c 0
 24 1541 26 1520 20 1497 c 0
 14 1464 0 1435 -19 1409 c 0
 -39 1383 -63 1364 -90 1352 c 1
 -25 1356 29 1380 70 1425 c 0
 111 1470 139 1530 154 1604 c 1
 238 1604 l 1
-14 1495 m 0
 -10 1511 -11 1526 -16 1538 c 0
 -22 1550 -30 1556 -41 1556 c 0
 -56 1556 -69 1551 -79 1540 c 0
 -89 1529 -96 1514 -100 1495 c 0
 -109 1453 -98 1432 -68 1432 c 0
 -57 1432 -46 1437 -36 1448 c 0
 -26 1459 -18 1475 -14 1495 c 0
EndSplineSet
EndChar
StartChar: uniF715
Encoding: 215 63253
OldEncoding: 63253
Width: 0
VWidth: 1000
Flags: HW
Fore
252 1567 m 1
 215 1395 115 1309 -47 1309 c 1
 -39 1346 l 1
 -17 1350 4 1362 25 1383 c 0
 45 1405 57 1427 61 1450 c 0
 72 1496 61 1520 27 1520 c 0
 -6 1520 -29 1493 -41 1440 c 1
 -76 1440 l 1
 -63 1493 -76 1520 -113 1520 c 0
 -126 1520 -140 1514 -154 1503 c 1
 -133 1503 -119 1494 -112 1477 c 0
 -104 1459 -104 1436 -111 1409 c 0
 -123 1343 -156 1311 -209 1311 c 0
 -231 1311 -247 1321 -258 1342 c 0
 -269 1364 -272 1386 -266 1409 c 0
 -259 1438 -248 1464 -233 1487 c 0
 -218 1509 -201 1527 -181 1541 c 0
 -161 1555 -136 1563 -104 1563 c 0
 -74 1563 -54 1545 -43 1509 c 1
 -36 1524 -27 1537 -14 1546 c 0
 -2 1556 13 1561 31 1561 c 0
 99 1561 126 1524 111 1452 c 0
 101 1406 78 1371 41 1348 c 1
 104 1371 143 1421 158 1497 c 1
 166 1530 l 1
 170 1567 l 1
 252 1567 l 1
-143 1409 m 0
 -139 1428 -140 1444 -144 1456 c 0
 -149 1468 -159 1475 -174 1475 c 0
 -189 1475 -202 1467 -212 1453 c 0
 -222 1439 -229 1424 -231 1409 c 0
 -236 1390 -235 1374 -230 1362 c 0
 -226 1350 -216 1343 -203 1343 c 0
 -171 1343 -152 1365 -143 1409 c 0
EndSplineSet
EndChar
StartChar: uniF716
Encoding: 216 63254
OldEncoding: 63254
Width: 0
VWidth: 1000
Flags: HW
Fore
-57 1606 m 1
 -78 1489 l 1
 -188 1489 l 1
 -203 1430 l 1
 -90 1430 l 1
 -111 1311 l 1
 -29 1311 l 1
 0 1430 l 1
 113 1430 l 1
 127 1489 l 1
 16 1489 l 1
 45 1606 l 1
 -57 1606 l 1
EndSplineSet
EndChar
StartChar: uniF717
Encoding: 217 63255
OldEncoding: 63255
Width: 0
VWidth: 1000
Flags: HW
Fore
27 1423 m 1
 27 1423 27 1428 28 1437 c 0
 28 1446 28 1454 27 1462 c 0
 23 1480 12 1489 -4 1489 c 0
 -16 1489 -28 1483 -40 1473 c 0
 -52 1462 -59 1445 -63 1423 c 0
 -74 1376 -65 1352 -35 1352 c 0
 -29 1352 -23 1353 -15 1357 c 0
 -8 1360 -1 1365 4 1372 c 0
 11 1379 16 1387 18 1397 c 0
 21 1406 24 1415 27 1423 c 1
27 1526 m 1
 68 1515 82 1480 70 1421 c 0
 63 1391 48 1365 27 1343 c 0
 5 1322 -20 1311 -47 1311 c 0
 -79 1311 -103 1322 -120 1343 c 0
 -137 1365 -142 1392 -135 1423 c 0
 -119 1505 -48 1562 78 1593 c 0
 112 1603 137 1614 154 1626 c 0
 170 1638 177 1657 176 1681 c 1
 256 1700 l 1
 256 1688 255 1679 254 1673 c 0
 250 1654 240 1637 224 1622 c 0
 209 1607 182 1593 145 1581 c 0
 125 1574 103 1566 79 1556 c 0
 55 1547 38 1537 27 1526 c 1
EndSplineSet
EndChar
StartChar: uniF718
Encoding: 218 63256
OldEncoding: 63256
Width: 0
VWidth: 1000
Flags: HW
Fore
-262 -745 m 1
 -367 -745 l 1
 -342 -625 l 1
 -357 -634 -373 -639 -389 -639 c 0
 -418 -639 -438 -625 -451 -598 c 0
 -460 -578 -461 -552 -455 -520 c 0
 -437 -438 -388 -397 -309 -397 c 0
 -276 -397 -251 -409 -232 -432 c 0
 -214 -455 -208 -483 -215 -516 c 2
 -262 -745 l 1
-315 -520 m 0
 -311 -498 -312 -481 -316 -467 c 0
 -321 -453 -332 -446 -348 -446 c 0
 -366 -446 -381 -455 -392 -472 c 0
 -404 -489 -411 -505 -414 -520 c 0
 -425 -568 -413 -592 -379 -592 c 0
 -346 -592 -325 -568 -315 -520 c 0
EndSplineSet
EndChar
StartChar: uniF719
Encoding: 219 63257
OldEncoding: 63257
Width: 0
VWidth: 1000
Flags: HW
Fore
-322 -520 m 2
 -315 -487 -321 -459 -340 -436 c 0
 -359 -413 -385 -401 -418 -401 c 0
 -497 -401 -545 -442 -561 -524 c 0
 -568 -556 -567 -582 -557 -602 c 0
 -545 -629 -525 -643 -498 -643 c 0
 -489 -643 -480 -641 -470 -637 c 0
 -460 -633 -451 -628 -444 -623 c 1
 -446 -635 l 1
 -463 -711 -431 -750 -352 -750 c 2
 -299 -750 l 2
 -217 -750 -167 -710 -150 -631 c 1
 -104 -410 l 1
 -209 -410 l 1
 -260 -651 l 2
 -267 -683 -285 -698 -313 -698 c 0
 -345 -698 -357 -683 -350 -651 c 2
 -322 -520 l 2
-422 -524 m 0
 -433 -572 -455 -596 -487 -596 c 0
 -520 -596 -531 -572 -520 -524 c 0
 -517 -509 -511 -493 -500 -476 c 0
 -489 -459 -474 -451 -457 -451 c 0
 -440 -451 -429 -457 -424 -471 c 0
 -418 -485 -418 -502 -422 -524 c 0
EndSplineSet
EndChar
StartChar: uniF71A
Encoding: 220 63258
OldEncoding: 63258
Width: 0
VWidth: 1000
Flags: HW
Fore
-178 -492 m 0
 -184 -517 -197 -539 -218 -556 c 0
 -239 -573 -262 -582 -287 -582 c 0
 -313 -582 -332 -573 -346 -556 c 0
 -360 -539 -364 -517 -358 -492 c 0
 -353 -467 -340 -446 -319 -428 c 0
 -299 -410 -276 -401 -250 -401 c 0
 -225 -401 -206 -410 -191 -428 c 0
 -177 -446 -173 -467 -178 -492 c 0
EndSplineSet
EndChar
